<svg width="28" height="28" viewBox="0 0 28 28" fill="none" xmlns="http://www.w3.org/2000/svg">
<g clip-path="url(#clip0_305_80)">
<path d="M23.332 14.0013C23.332 19.1463 19.1437 23.3346 13.9987 23.3346C8.8537 23.3346 4.66536 19.1463 4.66536 14.0013C4.66536 8.8563 8.8537 4.66797 13.9987 4.66797C19.1437 4.66797 23.332 8.8563 23.332 14.0013ZM25.6654 14.0013C25.6654 7.5613 20.4387 2.33463 13.9987 2.33463C7.5587 2.33463 2.33203 7.5613 2.33203 14.0013C2.33203 20.4413 7.5587 25.668 13.9987 25.668C20.4387 25.668 25.6654 20.4413 25.6654 14.0013ZM13.9987 15.168H18.6654L18.6654 12.8346H13.9987V9.33464L9.33203 14.0013L13.9987 18.668V15.168Z" fill="black"/>
</g>
<defs>
<clipPath id="clip0_305_80">
<rect width="28" height="28" fill="white" transform="matrix(0 -1 1 0 0 28)"/>
</clipPath>
</defs>
</svg>
