<svg width="262" height="239" viewBox="0 0 262 239" fill="none" xmlns="http://www.w3.org/2000/svg">
<path d="M56.4213 183.791C58.1859 183.256 61.315 180.638 61.315 180.632C61.315 180.627 58.7976 179.299 58.627 179.235C56.6448 178.475 52.3217 178.068 50.7513 179.733C50.5029 180.016 50.3223 180.344 50.221 180.694C50.1197 181.045 50.1 181.411 50.1631 181.769C50.2262 182.126 50.3708 182.468 50.5876 182.772C50.8043 183.076 51.0885 183.336 51.4218 183.534C52.8099 184.434 54.8921 184.241 56.4213 183.791Z" fill="#9C9C9C"/>
<path d="M89.0126 158.553C89.0538 158.553 87.7186 156.182 87.6128 156.037C86.4364 154.431 83.0603 151.899 80.7428 152.498C80.3608 152.608 80.0082 152.789 79.7081 153.03C79.4079 153.272 79.1668 153.568 79.0004 153.9C78.8341 154.231 78.7461 154.591 78.7423 154.955C78.7385 155.32 78.8189 155.681 78.9783 156.016C79.6076 157.451 81.4604 158.339 83.0132 158.73C84.8366 159.191 89.0067 158.559 89.0126 158.553Z" fill="#9C9C9C"/>
<path d="M65.6499 191.238C67.1674 190.333 69.2613 187.308 69.426 187.067C71.3244 188.16 73.3012 189.137 75.3431 189.99C76.5194 190.493 77.7428 190.97 78.9663 191.43C78.3781 191.291 77.8428 191.179 77.7899 191.168C75.6548 190.911 71.367 191.559 70.3377 193.54C70.1763 193.874 70.0944 194.236 70.0972 194.602C70.1001 194.967 70.1877 195.328 70.3542 195.66C70.5208 195.993 70.7626 196.29 71.0638 196.531C71.365 196.773 71.7188 196.954 72.1022 197.063C73.702 197.598 75.6313 196.897 77.0017 196.093C78.3722 195.29 80.2073 192.726 80.6837 192.046L82.0954 192.581C84.3599 193.4 86.6185 194.188 88.8124 195.066C89.5829 195.365 90.3299 195.692 91.0827 196.008C90.5534 195.89 90.1123 195.794 90.0417 195.788C87.9066 195.531 83.6246 196.179 82.5894 198.16C82.4281 198.494 82.3462 198.856 82.3491 199.221C82.352 199.586 82.4397 199.946 82.6063 200.279C82.7729 200.611 83.0147 200.907 83.3159 201.148C83.6171 201.389 83.9708 201.57 84.354 201.678C85.9597 202.213 87.9125 201.512 89.2535 200.709C90.5946 199.905 92.2768 197.593 92.8532 196.789C93.606 197.137 94.3648 197.485 95.0824 197.86C95.5647 198.123 96.0529 198.342 96.5234 198.631L97.9233 199.45C98.7879 199.986 99.6878 200.564 100.523 201.121C101.111 201.506 101.652 201.881 102.205 202.256C101.441 201.951 99.929 201.372 99.7937 201.34C97.7292 200.805 93.3825 200.842 92.0356 202.657C91.8198 202.965 91.6776 203.31 91.6184 203.67C91.5592 204.031 91.5842 204.399 91.6919 204.75C91.7996 205.101 91.9876 205.428 92.2434 205.708C92.4993 205.989 92.8173 206.217 93.1767 206.378C94.6706 207.112 96.7057 206.705 98.1821 206.095C99.7878 205.425 102.299 202.839 102.582 202.513C103.493 203.139 104.376 203.755 105.193 204.349C107.581 206.068 109.569 207.615 111.075 208.825L112.251 207.851C110.675 206.641 108.569 205.067 106.034 203.321C105.111 202.684 104.111 202.015 103.093 201.34C103.636 200.351 104.115 199.334 104.529 198.294C106.334 198.46 109.734 197.609 110.175 197.496C110.557 198.476 110.916 199.434 111.24 200.339C112.169 202.925 112.881 205.158 113.404 206.93L114.722 205.859C114.175 204.205 113.469 202.186 112.592 199.911C112.21 198.915 111.781 197.86 111.322 196.779C111.728 196.57 114.998 194.835 116.027 193.529C116.963 192.34 117.792 190.59 117.286 189.107C117.179 188.756 116.993 188.429 116.739 188.148C116.485 187.867 116.169 187.638 115.811 187.475C115.454 187.312 115.063 187.219 114.663 187.202C114.264 187.185 113.865 187.245 113.492 187.377C111.275 188.239 110.393 192.11 110.587 194.059C110.587 194.177 110.881 195.414 111.069 196.201C110.881 195.756 110.704 195.328 110.481 194.878C110.093 193.979 109.675 193.095 109.234 192.142C108.999 191.687 108.769 191.232 108.528 190.772C108.287 190.311 108.005 189.846 107.74 189.374C107.111 188.304 106.411 187.233 105.675 186.162C106.54 185.852 109.581 184.706 110.71 183.656C111.84 182.607 112.945 180.979 112.687 179.464C112.641 179.103 112.512 178.754 112.309 178.44C112.105 178.127 111.831 177.856 111.505 177.645C111.179 177.434 110.807 177.289 110.415 177.218C110.023 177.146 109.618 177.151 109.228 177.232C106.875 177.767 105.376 181.483 105.246 183.437C105.246 183.555 105.317 184.968 105.376 185.744C104.928 185.113 104.487 184.481 104.017 183.855C102.652 182.05 101.205 180.262 99.776 178.474C99.3349 177.938 98.9055 177.376 98.4762 176.825C98.782 176.718 102.429 175.428 103.693 174.255C104.817 173.184 105.928 171.578 105.675 170.058C105.629 169.696 105.5 169.346 105.296 169.033C105.091 168.72 104.817 168.449 104.49 168.238C104.163 168.028 103.792 167.882 103.399 167.811C103.006 167.74 102.602 167.744 102.211 167.825C99.8584 168.36 98.3585 172.076 98.2291 174.03C98.2291 174.18 98.335 176.209 98.3938 176.707C97.441 175.492 96.5058 174.276 95.6353 173.045C94.4484 171.389 93.3835 169.663 92.4473 167.879C92.5885 167.83 96.3999 166.497 97.6939 165.293C98.8173 164.222 99.929 162.616 99.676 161.101C99.6306 160.739 99.5019 160.39 99.2983 160.076C99.0947 159.763 98.8208 159.492 98.4945 159.281C98.1682 159.071 97.7968 158.925 97.4044 158.854C97.0121 158.782 96.6077 158.787 96.2176 158.868C93.8648 159.403 92.365 163.119 92.2356 165.073C92.2356 165.202 92.312 166.749 92.3709 167.482L92.2415 167.514C91.3466 165.697 90.634 163.811 90.1123 161.877C89.8123 160.806 89.5888 159.783 89.3947 158.782C90.1299 158.6 93.5119 157.738 94.7942 156.769C96.0764 155.8 97.3351 154.344 97.2704 152.797C97.2671 152.432 97.1798 152.073 97.0142 151.741C96.8486 151.41 96.6083 151.113 96.3089 150.871C96.0094 150.63 95.6576 150.448 95.2761 150.338C94.8946 150.228 94.492 150.192 94.0942 150.232C91.7121 150.537 89.7535 154.071 89.3888 156.004C89.3888 156.105 89.2947 157.192 89.2535 157.985C89.1771 157.529 89.0829 157.064 89.0182 156.625C88.7653 154.981 88.6418 153.466 88.5418 152.122C88.4948 151.356 88.4712 150.66 88.4536 150.013C89.0712 149.477 91.5533 147.336 92.2003 145.981C92.8473 144.627 93.2296 142.769 92.3885 141.42C92.2022 141.097 91.9433 140.813 91.6287 140.588C91.314 140.362 90.9506 140.199 90.5622 140.11C90.1738 140.02 89.769 140.006 89.3743 140.069C88.9796 140.131 88.6037 140.269 88.2712 140.472C86.3067 141.746 86.3597 145.703 87.0125 147.571C87.0714 147.732 88.2654 150.163 88.3007 150.136L88.3359 150.104C88.3359 150.725 88.3359 151.394 88.383 152.127C88.4477 153.477 88.5301 155.002 88.7477 156.657C88.9599 158.439 89.2859 160.209 89.7241 161.957C90.2042 163.92 90.8774 165.839 91.7356 167.691L91.7709 167.755C91.3121 167.268 89.977 165.946 89.8593 165.855C88.236 164.57 84.2658 162.958 82.213 164.093C81.876 164.29 81.5883 164.549 81.3688 164.854C81.1492 165.159 81.0027 165.502 80.9389 165.862C80.8751 166.221 80.8953 166.589 80.9983 166.942C81.1013 167.294 81.2847 167.622 81.5366 167.905C82.56 169.142 84.601 169.554 86.2126 169.56C88.0242 169.56 91.6003 168.087 91.8886 167.953C92.8097 169.82 93.8669 171.628 95.053 173.366C95.7352 174.378 96.4587 175.385 97.1998 176.381C96.7881 175.974 96.4175 175.61 96.3587 175.561C94.7353 174.282 90.7651 172.665 88.7124 173.8C88.3754 173.997 88.0877 174.256 87.8681 174.56C87.6486 174.865 87.5021 175.209 87.4383 175.568C87.3745 175.928 87.3947 176.296 87.4977 176.648C87.6007 177 87.7841 177.329 88.036 177.612C89.0535 178.854 91.1004 179.261 92.712 179.266C94.3236 179.272 97.4174 178.067 98.2291 177.74C98.5173 178.12 98.8173 178.506 99.0938 178.886C100.482 180.701 101.876 182.516 103.211 184.326C103.676 184.968 104.105 185.611 104.534 186.253C104.17 185.889 103.858 185.589 103.805 185.546C102.182 184.261 98.2115 182.65 96.1587 183.785C95.8222 183.982 95.535 184.241 95.316 184.546C95.0971 184.851 94.9512 185.195 94.8879 185.555C94.8246 185.914 94.8454 186.282 94.9488 186.634C95.0523 186.986 95.2361 187.314 95.4882 187.597C96.5058 188.834 98.5526 189.246 100.158 189.251C101.764 189.257 104.57 188.18 105.534 187.784C105.958 188.453 106.381 189.123 106.752 189.792C106.999 190.252 107.269 190.681 107.481 191.157C107.693 191.634 107.934 192.089 108.152 192.544C108.546 193.443 108.952 194.364 109.328 195.248C109.581 195.858 109.81 196.447 110.04 197.036C109.593 196.393 108.675 195.157 108.587 195.06C107.305 193.787 105.685 192.835 103.882 192.298C103.748 192.149 103.598 192.013 103.435 191.891C103.133 191.651 102.78 191.472 102.398 191.364C102.016 191.257 101.613 191.224 101.216 191.267C100.819 191.31 100.436 191.429 100.093 191.616C99.7497 191.803 99.4533 192.053 99.2232 192.351C97.8939 194.182 99.5055 197.855 100.852 199.386C100.929 199.477 101.911 200.366 102.54 200.917L101.211 200.13C100.347 199.595 99.4467 199.06 98.5173 198.476L97.0998 197.684C96.6293 197.411 96.0999 197.175 95.5941 196.918C94.4177 196.34 93.1884 195.804 91.9415 195.312C92.4709 194.621 94.2942 192.142 94.6177 190.697C94.9412 189.251 94.8647 187.356 93.7296 186.205C93.4717 185.926 93.1523 185.7 92.7922 185.542C92.4321 185.383 92.0393 185.295 91.6393 185.283C91.2394 185.271 90.8412 185.337 90.4707 185.474C90.1002 185.612 89.7657 185.819 89.4888 186.082C87.8713 187.688 88.8536 191.559 89.924 193.256C89.9946 193.363 90.9122 194.498 91.4357 195.114C90.6828 194.814 89.9299 194.509 89.1594 194.225C86.9243 193.406 84.6363 192.619 82.3601 191.864C81.6601 191.628 80.9661 191.382 80.272 191.141C80.4661 190.9 82.7247 187.993 83.0659 186.376C83.3717 184.941 83.3188 183.035 82.1777 181.884C81.9198 181.606 81.6004 181.38 81.2403 181.221C80.8802 181.062 80.4874 180.974 80.0875 180.962C79.6875 180.951 79.2894 181.016 78.9189 181.154C78.5484 181.291 78.2138 181.498 77.9369 181.761C76.3194 183.367 77.3017 187.238 78.3781 188.935C78.4545 189.064 79.7838 190.697 80.1426 191.077C78.6133 190.542 77.0958 190.006 75.6195 189.412C73.6266 188.626 71.6931 187.721 69.8318 186.703C69.92 186.59 72.2963 183.565 72.6433 181.911C72.9433 180.476 72.8904 178.57 71.7552 177.419C71.4973 177.141 71.1779 176.915 70.8178 176.756C70.4577 176.597 70.0649 176.509 69.6649 176.497C69.265 176.486 68.8668 176.551 68.4963 176.688C68.1258 176.826 67.7913 177.033 67.5144 177.296C65.8969 178.902 66.8792 182.773 67.9496 184.47C68.0202 184.583 69.0319 185.83 69.5318 186.414L69.4377 186.505C67.5928 185.436 65.8566 184.22 64.25 182.869C63.3501 182.136 62.5384 181.392 61.7679 180.648C62.2737 180.112 64.5558 177.719 65.0558 176.257C65.5557 174.796 65.7028 172.959 64.7147 171.707C64.4904 171.405 64.199 171.149 63.8593 170.956C63.5196 170.764 63.1392 170.638 62.7427 170.587C62.3463 170.537 61.9426 170.563 61.5578 170.663C61.1731 170.764 60.8158 170.937 60.5092 171.171C58.7093 172.627 59.2211 176.557 60.0798 178.351C60.1269 178.447 60.7268 179.389 61.1738 180.069C60.8327 179.732 60.4739 179.389 60.1504 179.057C58.974 177.815 57.9212 176.611 57.0271 175.535C56.5213 174.919 56.0802 174.357 55.6685 173.827C55.8743 173.077 56.6507 170.052 56.3566 168.58C56.0625 167.108 55.2626 165.368 53.7451 164.682C53.3948 164.507 53.0079 164.401 52.6095 164.371C52.2112 164.34 51.8103 164.387 51.433 164.507C51.0557 164.627 50.7104 164.818 50.4197 165.068C50.1289 165.318 49.8992 165.621 49.7455 165.956C48.8809 168.002 51.3218 171.273 52.9922 172.504C53.1393 172.611 55.6096 174.035 55.6214 173.998C55.6226 173.982 55.6226 173.966 55.6214 173.95C56.0037 174.485 56.4213 175.021 56.886 175.62C57.7565 176.691 58.7564 177.944 59.9386 179.213C61.1977 180.594 62.543 181.907 63.9677 183.148C65.5588 184.532 67.281 185.786 69.1142 186.896L69.1848 186.933C68.5084 186.756 66.591 186.323 66.438 186.307C64.3029 186.05 60.021 186.697 58.9858 188.678C58.8244 189.013 58.7425 189.375 58.7454 189.74C58.7482 190.106 58.8358 190.467 59.0023 190.799C59.1689 191.132 59.4107 191.428 59.7119 191.67C60.0131 191.912 60.367 192.093 60.7503 192.201C62.3561 192.726 64.3088 192.046 65.6499 191.238Z" fill="#9C9C9C"/>
<path d="M175.693 55.4214C176.951 57.3381 181.486 60.1489 181.492 60.1489C181.498 60.1489 182.622 56.8669 182.669 56.6474C183.151 54.1472 182.469 49.0503 179.728 47.7225C179.262 47.5134 178.753 47.3958 178.234 47.3775C177.715 47.3592 177.198 47.4406 176.715 47.6164C176.233 47.7921 175.797 48.0583 175.436 48.3976C175.074 48.7369 174.795 49.1417 174.616 49.5857C173.764 51.4488 174.622 53.7938 175.693 55.4214Z" fill="#9C9C9C"/>
<path d="M220.165 85.6915C220.165 85.7397 223.106 83.5179 223.265 83.3572C225.188 81.5102 227.706 76.9326 226.206 74.4216C225.944 74.0132 225.591 73.6595 225.169 73.3836C224.747 73.1077 224.266 72.9158 223.757 72.8203C223.248 72.7248 222.723 72.728 222.216 72.8296C221.708 72.9311 221.23 73.1288 220.812 73.4097C218.995 74.5501 218.295 76.9379 218.195 78.8332C218.083 81.0604 220.165 85.6862 220.165 85.6915Z" fill="#9C9C9C"/>
<path d="M167.993 68.2006C169.693 69.6836 174.504 71.2255 174.887 71.3433C173.916 73.8467 173.13 76.4062 172.534 79.0047C172.175 80.5145 171.863 82.0511 171.575 83.593C171.575 82.8702 171.575 82.2224 171.575 82.1314C171.316 79.6044 169.181 74.8501 166.129 74.2344C165.618 74.144 165.093 74.1525 164.587 74.2593C164.08 74.366 163.605 74.5687 163.19 74.8541C162.775 75.1395 162.432 75.5012 162.181 75.9156C161.93 76.3301 161.778 76.7879 161.735 77.2594C161.476 79.2564 162.994 81.3123 164.499 82.6133C166.005 83.9142 170.099 85.3384 171.181 85.6917C171.075 86.2807 170.964 86.8749 170.864 87.4639C170.375 90.3068 169.905 93.1443 169.346 95.9176C169.152 96.8921 168.917 97.8504 168.687 98.8087C168.687 98.1663 168.687 97.6255 168.687 97.5452C168.428 95.0128 166.293 90.264 163.241 89.6429C162.731 89.5533 162.205 89.5626 161.699 89.6701C161.193 89.7776 160.718 89.9809 160.304 90.2667C159.89 90.5526 159.547 90.9146 159.297 91.3293C159.047 91.7439 158.896 92.2018 158.853 92.6732C158.594 94.6648 160.106 96.7207 161.611 98.0271C163.117 99.3334 166.817 100.608 168.081 101.036C167.817 102.01 167.552 102.985 167.246 103.916C167.017 104.548 166.852 105.169 166.587 105.796L165.846 107.643C165.335 108.799 164.811 109.998 164.276 111.123C163.911 111.899 163.547 112.638 163.182 113.382C163.388 112.413 163.77 110.507 163.77 110.346C163.935 107.809 162.594 102.819 159.7 101.78C159.21 101.62 158.689 101.556 158.171 101.592C157.652 101.628 157.148 101.763 156.691 101.989C156.233 102.214 155.833 102.525 155.517 102.9C155.2 103.276 154.974 103.708 154.853 104.168C154.265 106.101 155.441 108.344 156.688 109.848C158.088 111.508 162.4 113.628 162.941 113.891C162.353 115.117 161.729 116.311 161.141 117.424C159.435 120.674 157.859 123.404 156.612 125.498L158.312 126.601C159.547 124.459 161.123 121.563 162.817 118.136C163.441 116.889 164.082 115.545 164.723 114.158C166.253 114.502 167.805 114.762 169.37 114.935C169.664 117.076 171.822 120.738 172.105 121.209C170.852 121.932 169.628 122.623 168.458 123.255C165.135 125.075 162.211 126.542 159.923 127.65L161.776 128.855C163.923 127.752 166.523 126.36 169.422 124.695C170.699 123.967 172.046 123.164 173.416 122.328C173.822 122.735 177.175 126.001 179.298 126.815C181.221 127.548 183.892 128.003 185.803 126.992C186.262 126.769 186.664 126.461 186.983 126.088C187.302 125.715 187.53 125.284 187.654 124.825C187.778 124.366 187.794 123.888 187.701 123.423C187.608 122.957 187.408 122.515 187.115 122.125C185.28 119.817 179.645 119.919 176.986 120.706C176.834 120.754 175.193 121.429 174.169 121.873C174.728 121.531 175.275 121.199 175.845 120.84C176.981 120.133 178.092 119.4 179.286 118.618L180.992 117.413C181.58 117.017 182.127 116.541 182.704 116.102C184.015 115.063 185.292 113.96 186.544 112.804C187.227 113.703 189.697 116.878 191.479 117.874C193.261 118.87 195.826 119.684 197.879 118.945C198.369 118.788 198.818 118.539 199.195 118.214C199.573 117.889 199.871 117.495 200.07 117.058C200.269 116.621 200.365 116.151 200.351 115.678C200.338 115.205 200.215 114.74 199.99 114.314C198.561 111.781 192.967 111.101 190.215 111.513C190.044 111.54 188.103 112.049 187.044 112.327C187.791 111.637 188.544 110.946 189.274 110.218C191.391 108.13 193.461 105.935 195.532 103.793C196.167 103.129 196.814 102.476 197.449 101.823C197.69 102.144 200.531 105.972 202.531 107.091C204.296 108.082 206.878 108.901 208.936 108.162C209.426 108.005 209.874 107.755 210.251 107.43C210.628 107.105 210.926 106.711 211.124 106.274C211.323 105.837 211.418 105.367 211.404 104.894C211.39 104.422 211.267 103.957 211.042 103.531C209.613 100.998 204.019 100.319 201.267 100.731C201.061 100.758 198.267 101.48 197.567 101.694C198.979 100.249 200.396 98.8194 201.861 97.4596C203.824 95.6179 205.916 93.8939 208.125 92.2984C208.236 92.4483 211.183 96.4584 213.23 97.6041C214.995 98.5946 217.577 99.4084 219.635 98.6749C220.125 98.5176 220.573 98.2682 220.95 97.9429C221.327 97.6176 221.625 97.2238 221.823 96.7869C222.022 96.35 222.117 95.88 222.103 95.4074C222.089 94.9348 221.966 94.4702 221.741 94.0438C220.312 91.5114 214.718 90.8315 211.966 91.2491C211.783 91.2491 209.66 91.8219 208.654 92.1003L208.572 91.9558C210.844 90.4052 213.263 89.0417 215.8 87.8815C217.189 87.2283 218.553 86.6768 219.918 86.1629C220.382 86.9606 222.553 90.5852 224.27 91.8005C225.988 93.0158 228.387 94.0331 230.505 93.5084C231.011 93.4011 231.486 93.1981 231.899 92.9127C232.313 92.6273 232.656 92.2657 232.907 91.8517C233.157 91.4376 233.308 90.9802 233.352 90.5093C233.395 90.0383 233.329 89.5644 233.158 89.1182C232.04 86.4413 226.57 85.2206 223.782 85.3705C223.629 85.3705 222.094 85.6114 220.982 85.7881C221.57 85.5686 222.217 85.3277 222.806 85.1242C225.017 84.3586 227.088 83.7804 228.934 83.2825C229.981 83.0041 230.94 82.7471 231.834 82.5651C232.74 83.1326 236.416 85.3759 238.522 85.7239C240.628 86.0719 243.292 85.9862 244.915 84.6263C245.31 84.3188 245.629 83.9392 245.852 83.512C246.075 83.0848 246.196 82.6197 246.208 82.147C246.221 81.6742 246.123 81.2045 245.923 80.7682C245.722 80.332 245.423 79.9391 245.045 79.6151C242.692 77.7252 237.228 78.9244 234.822 80.2094C234.61 80.3218 231.581 82.4044 231.628 82.4366L231.681 82.4687C230.817 82.6507 229.887 82.8595 228.876 83.1005C227.023 83.5662 224.923 84.107 222.688 84.8298C220.269 85.5969 217.9 86.4907 215.595 87.5067C213.007 88.6268 210.533 89.9526 208.201 91.4686L208.125 91.5275C208.666 90.8582 210.125 88.9415 210.219 88.7809C211.536 86.5376 212.636 81.505 210.466 79.4545C210.094 79.1245 209.65 78.8692 209.163 78.7052C208.675 78.5412 208.156 78.4721 207.637 78.5023C207.119 78.5326 206.614 78.6616 206.153 78.8809C205.693 79.1003 205.289 79.4051 204.966 79.7757C203.543 81.3123 203.56 83.7857 204.019 85.6382C204.537 87.7262 207.613 91.4257 207.86 91.7202C205.532 93.3191 203.323 95.0577 201.249 96.9242C200.031 97.9949 198.849 99.13 197.673 100.27C198.126 99.6761 198.52 99.1407 198.567 99.0604C199.884 96.8224 200.984 91.7844 198.814 89.7393C198.443 89.4078 198 89.1513 197.513 88.9863C197.026 88.8214 196.507 88.7519 195.988 88.7822C195.47 88.8125 194.964 88.942 194.504 89.1623C194.045 89.3826 193.641 89.6886 193.32 90.0605C191.891 91.5917 191.909 94.0652 192.367 95.9176C192.826 97.7701 195.391 101.004 196.079 101.839L194.738 103.161C192.609 105.303 190.497 107.418 188.35 109.447C187.597 110.164 186.821 110.844 186.05 111.53C186.45 110.994 186.786 110.555 186.827 110.459C188.144 108.221 189.244 103.183 187.074 101.138C186.703 100.807 186.259 100.55 185.772 100.385C185.285 100.22 184.765 100.151 184.247 100.18C183.728 100.21 183.222 100.339 182.762 100.558C182.301 100.778 181.897 101.083 181.574 101.454C180.151 102.99 180.169 105.464 180.627 107.316C181.086 109.168 183.398 112.086 184.215 113.088C183.404 113.762 182.592 114.442 181.768 115.068C181.18 115.481 180.68 115.914 180.08 116.305L178.345 117.472C177.216 118.184 176.051 118.918 174.928 119.587C174.146 120.053 173.399 120.487 172.64 120.926C173.404 120.219 174.863 118.811 174.993 118.682C176.391 116.843 177.25 114.709 177.486 112.483C177.653 112.285 177.798 112.073 177.922 111.851C178.168 111.434 178.316 110.975 178.355 110.504C178.394 110.032 178.323 109.558 178.148 109.113C177.973 108.667 177.697 108.261 177.337 107.919C176.978 107.577 176.544 107.308 176.063 107.129C173.122 106.127 168.493 109.04 166.758 111.032C166.652 111.149 165.699 112.536 165.111 113.419C165.37 112.852 165.629 112.306 165.888 111.717C166.405 110.561 166.887 109.393 167.405 108.135C167.634 107.52 167.87 106.898 168.099 106.272C168.328 105.646 168.517 104.976 168.734 104.323C169.199 102.792 169.587 101.229 169.94 99.6386C171.052 100.051 175.034 101.459 177.128 101.395C179.222 101.33 181.833 100.72 183.121 99.0764C183.434 98.6991 183.657 98.266 183.774 97.8053C183.891 97.3446 183.9 96.8667 183.801 96.4025C183.701 95.9384 183.496 95.4985 183.197 95.1114C182.899 94.7244 182.514 94.3989 182.068 94.1562C179.345 92.7589 174.269 95.0021 172.222 96.7261C172.093 96.8385 170.775 98.2252 170.069 99.0015C170.269 98.0485 170.481 97.0955 170.658 96.1211C171.152 93.3103 171.558 90.4567 171.981 87.6084C172.105 86.7357 172.246 85.8684 172.381 85.0011C172.775 85.151 177.469 86.9178 179.816 86.8428C181.898 86.7786 184.521 86.1682 185.803 84.5246C186.117 84.1476 186.339 83.7148 186.457 83.2544C186.574 82.7939 186.584 82.316 186.485 81.8519C186.387 81.3878 186.182 80.9478 185.884 80.5606C185.586 80.1733 185.202 79.8475 184.756 79.6044C182.027 78.2124 176.951 80.4503 174.904 82.1796C174.751 82.3081 172.857 84.3211 172.405 84.8565C172.705 82.9452 172.993 81.0392 173.416 79.1707C173.944 76.6461 174.649 74.155 175.528 71.7128C175.71 71.7824 180.598 73.6509 183.004 73.5759C185.086 73.5063 187.709 72.9013 188.991 71.2577C189.305 70.8803 189.528 70.4471 189.645 69.9862C189.763 69.5253 189.772 69.047 189.674 68.5825C189.575 68.118 189.37 67.6775 189.072 67.2898C188.774 66.9021 188.39 66.5758 187.944 66.3321C185.215 64.9401 180.145 67.178 178.092 68.9073C177.957 69.0197 176.516 70.5456 175.845 71.2844L175.692 71.2041C176.636 68.7715 177.817 66.4206 179.222 64.1798C179.986 62.9377 180.786 61.7867 181.574 60.6838C182.445 61.1174 186.45 63.0502 188.632 63.2054C190.715 63.3446 193.403 63.002 194.867 61.4976C195.224 61.1539 195.497 60.7456 195.669 60.2995C195.841 59.8533 195.908 59.3792 195.865 58.908C195.822 58.4368 195.671 57.9791 195.421 57.5646C195.171 57.1501 194.828 56.7882 194.414 56.5024C191.873 54.8427 186.562 56.5613 184.315 58.0764C184.198 58.1567 183.056 59.1151 182.239 59.8271C182.609 59.3346 182.986 58.8206 183.356 58.3548C184.733 56.6095 186.115 55.0836 187.344 53.7398C188.056 52.9849 188.715 52.3103 189.332 51.6892C190.432 51.6892 194.861 51.7321 196.826 50.9665C198.79 50.2009 200.943 48.7874 201.496 46.8386C201.639 46.3832 201.675 45.9054 201.601 45.4365C201.527 44.9676 201.346 44.5181 201.068 44.1174C200.791 43.7167 200.423 43.3738 199.99 43.1112C199.557 42.8485 199.068 42.6719 198.555 42.593C195.461 42.1861 191.615 45.9445 190.385 48.2253C190.279 48.4234 189.015 51.6839 189.068 51.6839H189.138C188.55 52.2728 187.874 52.9099 187.18 53.622C185.915 54.9391 184.492 56.4435 183.062 58.1674C181.504 60.0154 180.064 61.9443 178.751 63.9443C177.272 66.178 176.015 68.5269 174.993 70.9632L174.957 71.0542C175.01 70.219 175.057 67.8901 175.04 67.7081C174.781 65.1757 172.646 60.4268 169.593 59.8111C169.083 59.7215 168.559 59.7306 168.053 59.8378C167.547 59.945 167.072 60.1478 166.658 60.4331C166.244 60.7184 165.901 61.0798 165.651 61.4938C165.4 61.9078 165.249 62.3651 165.205 62.836C164.976 64.833 166.487 66.8889 167.993 68.2006Z" fill="#9C9C9C"/>
<path d="M203.566 162.444V160.651C203.566 151.415 216.412 151.014 216.412 144.439C216.412 141.586 213.859 139.722 210.059 139.722C205.901 139.722 203.272 141.784 203.272 144.707V145.44C203.272 146.169 202.836 146.511 202.031 146.511L194.225 146.244C193.496 146.244 192.984 145.912 192.984 145.451V144.718C192.984 136.687 199.99 131.167 210.283 131.167C220.352 131.167 226.846 136.35 226.846 144.118C226.846 155.147 213.782 155.217 213.782 161.25V162.444C213.802 162.597 213.784 162.752 213.728 162.897C213.673 163.042 213.582 163.174 213.463 163.283C213.343 163.392 213.198 163.475 213.039 163.525C212.879 163.575 212.709 163.592 212.541 163.574H204.807C204.639 163.592 204.469 163.575 204.309 163.525C204.15 163.475 204.005 163.392 203.885 163.283C203.766 163.174 203.675 163.042 203.62 162.897C203.564 162.752 203.546 162.597 203.566 162.444ZM202.907 173.152C202.907 170.229 205.754 167.836 209.183 167.836C212.471 167.836 215.388 170.229 215.388 173.152C215.388 176.075 212.447 178.469 209.112 178.469C205.777 178.469 202.907 176.065 202.907 173.141V173.152Z" fill="#263238"/>
<path d="M49.3445 86.3657V84.8077C49.3445 76.7769 60.5199 76.4396 60.5199 70.727C60.5199 68.2428 58.3024 66.6313 55.0086 66.6313C51.3913 66.6313 49.1268 68.4195 49.1268 70.9572V71.5944C49.1268 72.2261 48.7504 72.5152 48.0505 72.5152L41.2687 72.285C40.6335 72.285 40.1924 71.9959 40.1924 71.5944V70.9572C40.1924 63.9972 46.2742 59.1787 55.2145 59.1787C63.9607 59.1787 69.6072 63.6813 69.6072 70.4219C69.6072 79.9999 58.2554 80.0588 58.2554 85.311V86.3496C58.2723 86.482 58.2562 86.6162 58.2081 86.7421C58.16 86.868 58.0812 86.9824 57.9777 87.0766C57.8741 87.1709 57.7485 87.2426 57.6102 87.2863C57.4719 87.3301 57.3245 87.3448 57.179 87.3294H50.4208C50.277 87.3444 50.1313 87.3299 49.9945 87.287C49.8576 87.2442 49.733 87.174 49.6298 87.0816C49.5266 86.9892 49.4474 86.8769 49.398 86.7531C49.3487 86.6292 49.3304 86.4968 49.3445 86.3657ZM48.7563 95.6547C48.7563 93.117 51.2266 91.0396 54.2028 91.0396C57.0555 91.0396 59.5964 93.117 59.5964 95.6547C59.5964 98.1924 57.0555 100.27 54.144 100.27C52.7609 100.301 51.4201 99.8341 50.4141 98.9695C49.4081 98.105 48.8185 96.9134 48.7739 95.6547H48.7563Z" fill="#92E3A9"/>
<path d="M191.307 24.93V24.1429C191.307 20.0901 196.942 19.9134 196.942 17.0276C196.942 15.7748 195.818 14.9557 194.154 14.9557C192.33 14.9557 191.177 15.8605 191.177 17.1454V17.4667C191.177 17.7879 190.983 17.9324 190.63 17.9324L187.207 17.8147C186.884 17.8147 186.66 17.6701 186.66 17.4667V17.1454C186.66 13.6172 189.736 11.1973 194.254 11.1973C198.671 11.1973 201.523 13.4727 201.523 16.8831C201.523 21.7016 195.789 21.7498 195.789 24.3785V24.9139C195.797 24.981 195.789 25.0489 195.765 25.1126C195.74 25.1763 195.7 25.2341 195.647 25.2816C195.594 25.3291 195.531 25.365 195.46 25.3866C195.39 25.4083 195.315 25.4151 195.242 25.4065H191.848C191.776 25.4148 191.703 25.4083 191.635 25.3875C191.566 25.3668 191.504 25.3322 191.452 25.2865C191.4 25.2407 191.36 25.185 191.335 25.1232C191.31 25.0615 191.3 24.9955 191.307 24.93ZM191.019 29.6253C190.981 29.1247 191.109 28.6253 191.388 28.1921C191.666 27.759 192.081 27.412 192.579 27.1964C193.076 26.9807 193.634 26.9064 194.179 26.9831C194.723 27.0598 195.23 27.2839 195.633 27.6263C196.036 27.9687 196.317 28.4136 196.438 28.903C196.56 29.3925 196.517 29.9039 196.314 30.3707C196.112 30.8375 195.761 31.2382 195.305 31.5206C194.849 31.8031 194.311 31.9541 193.759 31.9543C193.411 31.9657 193.064 31.9145 192.738 31.8035C192.412 31.6926 192.112 31.5241 191.858 31.3077C191.603 31.0914 191.398 30.8314 191.254 30.5427C191.11 30.254 191.03 29.9422 191.019 29.6253Z" fill="#92E3A9"/>
<path d="M26.1288 133.206V132.216C26.1288 127.108 33.234 126.889 33.234 123.248C33.234 121.668 31.8224 120.641 29.705 120.641C27.4052 120.641 25.9524 121.781 25.9524 123.398V123.799C25.9524 124.206 25.7112 124.388 25.2642 124.388L20.947 124.244C20.5411 124.244 20.2588 124.056 20.2588 123.799V123.398C20.2588 118.954 24.1349 115.902 29.8285 115.902C35.3985 115.902 38.9864 118.767 38.9864 123.066C38.9864 129.164 31.7636 129.201 31.7636 132.548V133.206C31.775 133.291 31.7651 133.377 31.7345 133.458C31.704 133.538 31.6536 133.612 31.5873 133.672C31.521 133.732 31.4404 133.778 31.3517 133.806C31.263 133.834 31.1685 133.843 31.0754 133.832H26.8052C26.713 133.841 26.6199 133.831 26.5327 133.802C26.4455 133.774 26.3665 133.728 26.3015 133.667C26.2366 133.607 26.1873 133.534 26.1574 133.455C26.1275 133.375 26.1177 133.29 26.1288 133.206ZM25.7641 139.122C25.7181 138.491 25.8817 137.863 26.2337 137.318C26.5858 136.773 27.1098 136.337 27.7378 136.067C28.3657 135.797 29.0684 135.705 29.7544 135.804C30.4404 135.902 31.0779 136.187 31.5839 136.62C32.0899 137.053 32.441 137.614 32.5914 138.231C32.7418 138.849 32.6847 139.493 32.4274 140.08C32.1701 140.667 31.7245 141.17 31.1487 141.523C30.5729 141.877 29.8936 142.064 29.1991 142.061C28.3139 142.087 27.4536 141.792 26.8073 141.241C26.161 140.69 25.7816 139.928 25.7524 139.122H25.7641Z" stroke="#263238" stroke-miterlimit="10"/>
<path d="M80.2418 40.7884V40.1084C80.2418 36.5963 85.1296 36.441 85.1296 33.9408C85.1296 32.87 84.1591 32.1472 82.7121 32.1472C81.1299 32.1472 80.13 32.9289 80.13 34.0425V34.3209C80.13 34.5993 79.9653 34.7224 79.6595 34.7224L76.7186 34.6207C76.4421 34.6207 76.248 34.4976 76.248 34.3209V34.0425C76.248 30.9854 78.9125 28.8867 82.8239 28.8867C86.7353 28.8867 89.0645 30.8569 89.0645 33.8123C89.0645 38.0097 84.0944 38.0365 84.0944 40.3333V40.7884C84.1019 40.8463 84.095 40.905 84.074 40.9601C84.053 41.0152 84.0186 41.0653 83.9733 41.1065C83.928 41.1477 83.873 41.1791 83.8125 41.1982C83.7519 41.2173 83.6874 41.2236 83.6238 41.2167H80.6829C80.6216 41.2194 80.5605 41.2099 80.5036 41.189C80.4468 41.168 80.3956 41.136 80.3536 41.0953C80.3117 41.0546 80.28 41.006 80.2606 40.953C80.2413 40.9001 80.2349 40.8439 80.2418 40.7884ZM79.9947 44.8573C79.9689 44.4296 80.0845 44.0045 80.3268 43.6372C80.5691 43.2699 80.9269 42.9772 81.3538 42.7969C81.7808 42.6166 82.2574 42.557 82.722 42.6258C83.1865 42.6947 83.6177 42.8888 83.9598 43.1831C84.3019 43.4773 84.5392 43.8582 84.641 44.2765C84.7427 44.6948 84.7043 45.1313 84.5307 45.5295C84.3571 45.9278 84.0562 46.2694 83.667 46.5104C83.2778 46.7513 82.8182 46.8805 82.3475 46.8811C81.74 46.8999 81.1491 46.6984 80.7047 46.321C80.2603 45.9436 79.9986 45.421 79.9771 44.868L79.9947 44.8573Z" fill="#263238"/>
<path d="M167.292 187.565V186.885C167.292 183.373 172.179 183.223 172.179 180.717C172.179 179.646 171.209 178.924 169.762 178.924C168.18 178.924 167.18 179.705 167.18 180.819V181.097C167.18 181.376 167.015 181.504 166.709 181.504L163.768 181.402C163.492 181.402 163.298 181.274 163.298 181.097V180.819C163.298 177.762 165.962 175.663 169.874 175.663C173.785 175.663 176.179 177.633 176.179 180.594C176.179 184.786 171.209 184.813 171.209 187.11V187.565C171.216 187.623 171.209 187.682 171.188 187.737C171.167 187.792 171.133 187.843 171.088 187.884C171.043 187.926 170.988 187.958 170.927 187.978C170.867 187.997 170.802 188.004 170.738 187.998H167.797C167.731 188.01 167.662 188.007 167.597 187.99C167.532 187.972 167.472 187.941 167.423 187.899C167.374 187.857 167.336 187.804 167.313 187.746C167.29 187.688 167.283 187.626 167.292 187.565ZM167.045 191.634C167.019 191.206 167.134 190.781 167.377 190.414C167.619 190.046 167.977 189.754 168.404 189.573C168.831 189.393 169.307 189.333 169.772 189.402C170.236 189.471 170.668 189.665 171.01 189.959C171.352 190.254 171.589 190.635 171.691 191.053C171.793 191.471 171.754 191.908 171.581 192.306C171.407 192.704 171.106 193.046 170.717 193.287C170.328 193.528 169.868 193.657 169.397 193.657C168.792 193.67 168.205 193.465 167.766 193.086C167.326 192.707 167.069 192.185 167.05 191.634H167.045Z" stroke="#263238" stroke-miterlimit="10"/>
<path d="M144.266 199.749C144.225 199.637 144.184 199.525 144.137 199.412C144.09 199.3 144.054 199.182 144.007 199.069C143.96 198.957 143.925 198.845 143.878 198.732C143.831 198.62 143.796 198.502 143.749 198.389C143.702 198.277 143.666 198.165 143.619 198.052C143.572 197.94 143.537 197.822 143.49 197.71L143.36 197.372C143.319 197.254 143.272 197.142 143.231 197.03L143.102 196.692C143.06 196.575 143.013 196.462 142.972 196.35L142.843 196.012C142.802 195.895 142.755 195.782 142.713 195.67L142.59 195.311C142.549 195.193 142.502 195.081 142.46 194.968L142.325 194.631C142.284 194.513 142.243 194.401 142.196 194.288C142.149 194.176 142.113 194.064 142.066 193.951C142.019 193.839 141.984 193.721 141.937 193.608C141.89 193.496 141.855 193.384 141.808 193.271C139.89 187.96 133.961 184.062 127.438 184.062C121.115 184.062 115.616 187.414 113.322 192.136C113.263 192.243 113.21 192.356 113.157 192.463L112.999 192.795C112.94 192.902 112.887 193.009 112.834 193.121C112.781 193.234 112.722 193.341 112.669 193.448L112.51 193.774C112.452 193.887 112.399 193.994 112.346 194.106C112.293 194.219 112.234 194.321 112.181 194.433C112.128 194.545 112.069 194.647 112.016 194.76L111.857 195.086C111.799 195.193 111.746 195.306 111.693 195.413C111.64 195.52 111.581 195.632 111.528 195.739L111.369 196.071C111.31 196.178 111.258 196.285 111.205 196.398C111.152 196.51 111.093 196.617 111.04 196.724L110.881 197.051C110.822 197.163 110.769 197.271 110.716 197.383C110.663 197.495 110.605 197.597 110.552 197.71L110.393 198.036C110.334 198.143 110.281 198.256 110.228 198.363C110.175 198.47 110.116 198.582 110.064 198.695C109.054 200.651 108.536 202.787 108.546 204.948C108.546 213.568 116.722 220.613 126.833 220.613C136.726 220.613 145.331 213.568 145.331 204.948C145.329 203.305 145.012 201.674 144.396 200.129C144.354 199.974 144.313 199.862 144.266 199.749Z" fill="#263238"/>
<path d="M130.273 81.166C99.941 81.166 79.29 97.415 79.29 121.111V123.253C79.2955 123.607 79.4013 123.953 79.597 124.259C79.7928 124.565 80.072 124.819 80.4076 124.998C80.5345 125.109 80.6723 125.21 80.8193 125.298C80.9468 125.411 81.0867 125.511 81.2369 125.598C81.3644 125.711 81.5043 125.811 81.6545 125.898C81.7808 126.012 81.9209 126.112 82.0721 126.197C82.1975 126.31 82.3355 126.411 82.4839 126.497C82.6112 126.612 82.7511 126.714 82.9015 126.802C83.0304 126.914 83.1702 127.014 83.3191 127.102C83.4469 127.215 83.5868 127.315 83.7367 127.402C83.8624 127.515 84.0003 127.615 84.1484 127.702C84.2866 127.823 84.4384 127.931 84.6013 128.023C84.7212 128.123 84.849 128.214 84.9836 128.296C85.1126 128.407 85.2524 128.508 85.4012 128.596C85.5281 128.707 85.666 128.808 85.8129 128.896C85.9419 129.007 86.0817 129.107 86.2306 129.196C86.3583 129.308 86.4983 129.409 86.6482 129.495C86.7739 129.608 86.9118 129.708 87.0599 129.795C87.1877 129.908 87.3276 130.008 87.4775 130.095C87.6032 130.208 87.7411 130.308 87.8892 130.395C88.0182 130.506 88.158 130.606 88.3068 130.695C88.4325 130.807 88.5705 130.908 88.7186 130.995C89.3982 131.539 90.2849 131.819 91.1889 131.776L110.105 132.419C112.052 132.419 113.11 131.616 113.11 129.843V128.077C113.11 120.994 119.474 116.009 129.579 116.009C138.773 116.009 144.96 120.512 144.96 127.434C144.96 128.223 144.878 129.01 144.713 129.785C135.22 141.113 110.511 146.109 110.511 168.097V173.387C110.511 175.528 111.799 176.711 114.169 176.711H136.943C139.296 176.711 140.602 175.539 140.602 173.387V169.858C140.602 152.041 179.11 151.843 179.11 119.339C179.11 96.4353 159.959 81.166 130.273 81.166Z" fill="#263238"/>
<path d="M110.48 173.398V168.108C110.48 140.889 148.341 139.733 148.341 120.33C148.341 111.908 140.813 106.41 129.625 106.41C117.362 106.41 109.627 112.481 109.627 121.096V123.237C109.627 125.379 108.333 126.375 105.969 126.375L82.9475 125.588C80.8007 125.588 79.2949 124.608 79.2949 123.237V121.096C79.2949 97.3994 99.9459 81.1504 130.278 81.1504C159.964 81.1504 179.097 96.4197 179.097 119.334C179.097 151.838 140.589 152.036 140.589 169.853V173.382C140.589 175.523 139.295 176.706 136.931 176.706H114.139C111.768 176.722 110.48 175.55 110.48 173.398ZM108.545 204.948C108.545 196.334 116.933 189.283 127.043 189.283C136.725 189.283 145.33 196.334 145.33 204.948C145.33 213.563 136.707 220.587 126.832 220.587C116.709 220.587 108.545 213.541 108.545 204.948Z" fill="#92E3A9" stroke="#92E3A9" stroke-miterlimit="10"/>
<path d="M125.892 238.142C143.632 238.142 158.012 235.215 158.012 231.604C158.012 227.994 143.632 225.067 125.892 225.067C108.152 225.067 93.7715 227.994 93.7715 231.604C93.7715 235.215 108.152 238.142 125.892 238.142Z" fill="#263238"/>
<path d="M101.34 83.3359L100.111 85.7773C100.111 85.7773 92.9707 86.4787 92.9707 86.9659C92.9707 87.4531 93.0472 90.81 93.4354 90.9492C93.7304 91.0537 94.0579 91.0537 94.3529 90.9492L104.87 88.5024L105.869 84.1711L101.34 83.3359Z" fill="white" stroke="#263238" stroke-linecap="round" stroke-linejoin="round"/>
<path d="M99.3407 87.6996C98.0348 88.6734 96.6261 89.527 95.1352 90.248C93.4354 90.944 93.3707 91.9987 93.9118 91.9987C94.4529 91.9987 99.2525 90.1677 99.2525 90.1677C99.2525 90.1677 103.611 89.129 104.24 88.8132C104.87 88.4973 104.94 86.7412 104.94 86.7412" fill="white"/>
<path d="M99.3407 87.6996C98.0348 88.6734 96.6261 89.527 95.1352 90.248C93.4354 90.944 93.3707 91.9987 93.9118 91.9987C94.4529 91.9987 99.2525 90.1677 99.2525 90.1677C99.2525 90.1677 103.611 89.129 104.24 88.8132C104.87 88.4973 104.94 86.7412 104.94 86.7412" stroke="#263238" stroke-linecap="round" stroke-linejoin="round"/>
<path d="M107.623 36.4248L103.235 67.0383L100.183 83.6139L106.958 85.0701L112.011 65.4642L114.405 53.1236L107.623 36.4248Z" fill="#7D7D7D" stroke="#263238" stroke-linecap="round" stroke-linejoin="round"/>
<path d="M143.031 14.2598L140.355 13.8743L134.873 11.9844L134.673 17.9111L143.172 18.6232L143.031 14.2598Z" fill="white" stroke="#263238" stroke-linecap="round" stroke-linejoin="round"/>
<path d="M111.746 122.821C109.752 124.937 107.888 127.154 106.165 129.459C103.9 132.607 104.7 135.991 107.494 136.842C110.288 137.694 113.87 135.386 114.805 133.571C115.74 131.756 115.47 130.792 116.928 128.977C118.387 127.163 119.587 125.348 119.058 122.928C118.528 120.508 113.182 121.129 111.746 122.821Z" fill="#7D7D7D" stroke="#263238" stroke-linecap="round" stroke-linejoin="round"/>
<path d="M114.533 134.026C114.345 133.662 114.127 133.277 113.869 132.865C111.734 129.443 107.987 129.717 105.634 130.354C104.087 133.229 104.97 136.088 107.505 136.859C110.04 137.63 113.31 135.745 114.533 134.026Z" fill="white" stroke="#263238" stroke-linecap="round" stroke-linejoin="round"/>
<path d="M113.869 132.865C113.075 133.936 112.01 136.859 107.887 135.649C106.737 135.38 105.709 134.791 104.946 133.963C105.035 134.616 105.323 135.233 105.778 135.745C106.232 136.256 106.834 136.642 107.517 136.859C110.305 137.705 113.893 135.403 114.828 133.588C115.763 131.773 115.492 130.809 116.951 128.994C118.41 127.179 119.61 125.364 119.08 122.944C119.08 125.846 117.904 126.328 116.422 127.902C114.939 129.476 114.669 131.773 113.869 132.865Z" fill="white" stroke="#263238" stroke-linecap="round" stroke-linejoin="round"/>
<path d="M150.971 122.821C152.965 124.937 154.829 127.154 156.553 129.459C158.817 132.607 158.017 135.991 155.223 136.842C152.429 137.694 148.847 135.386 147.912 133.571C146.977 131.756 147.248 130.792 145.789 128.977C144.33 127.163 143.13 125.348 143.66 122.928C144.189 120.508 149.512 121.129 150.971 122.821Z" fill="#7D7D7D" stroke="#263238" stroke-linecap="round" stroke-linejoin="round"/>
<path d="M148.189 134.026C148.372 133.662 148.589 133.277 148.848 132.865C150.983 129.443 154.73 129.717 157.083 130.354C158.63 133.229 157.747 136.088 155.212 136.859C152.677 137.63 149.407 135.745 148.189 134.026Z" fill="white" stroke="#263238" stroke-linecap="round" stroke-linejoin="round"/>
<path d="M148.847 132.865C149.642 133.936 150.706 136.859 154.829 135.649C155.979 135.38 157.007 134.791 157.77 133.963C157.681 134.616 157.393 135.233 156.939 135.745C156.485 136.256 155.882 136.642 155.2 136.859C152.412 137.705 148.824 135.403 147.889 133.588C146.954 131.773 147.224 130.809 145.765 128.994C144.307 127.179 143.107 125.364 143.636 122.944C143.636 125.846 144.813 126.328 146.295 127.902C147.777 129.476 148.048 131.773 148.847 132.865Z" fill="white" stroke="#263238" stroke-linecap="round" stroke-linejoin="round"/>
<path d="M157.206 81.0764C157.206 78.8974 153.089 76.4774 153.089 76.4774C146.884 70.7327 135.685 71.4929 131.55 72.0069C127.433 71.4715 116.222 70.7327 110.017 76.4774C110.017 76.4774 105.899 78.8974 105.899 81.0764C105.899 83.2554 111.087 122.58 111.087 122.58C111.087 122.58 110.952 124.636 114.675 124.876C118.398 125.117 119.969 123.185 119.969 123.185L121.433 89.9103C121.433 89.9103 127.415 86.0341 128.491 85.9163C128.88 85.8681 129.385 85.7931 129.95 85.7289V85.7931C131.003 85.5932 132.091 85.5932 133.144 85.7931V85.7289C133.732 85.7931 134.209 85.8681 134.603 85.9163C135.667 86.0341 141.661 89.9103 141.661 89.9103L143.125 123.185C143.125 123.185 144.719 125.117 148.419 124.876C152.119 124.636 152.007 122.58 152.007 122.58C152.007 122.58 157.206 83.2554 157.206 81.0764Z" fill="#263238" stroke="#263238" stroke-linecap="round" stroke-linejoin="round"/>
<path d="M141.655 89.9104C141.655 89.9104 140.855 81.9224 144.713 78.8975" stroke="#707070" stroke-linecap="round" stroke-linejoin="round"/>
<path d="M121.451 89.9111C121.451 89.9111 121.851 83.2562 121.051 80.8363C120.251 78.4163 118.922 77.4473 118.922 77.4473" stroke="#707070" stroke-linecap="round" stroke-linejoin="round"/>
<path d="M126.368 74.0576C126.368 74.0576 130.621 78.5335 131.421 82.2865" stroke="#707070" stroke-linecap="round" stroke-linejoin="round"/>
<path d="M135.672 74.3145C135.672 74.3145 133.278 76.7344 133.014 78.5494" stroke="#707070" stroke-linecap="round" stroke-linejoin="round"/>
<path d="M129.691 27.2327C129.691 27.2327 125.839 26.7455 124.51 27.9555C123.18 29.1654 118.657 33.6252 118.657 33.6252L121.051 72.1035C121.051 72.1035 126.504 74.0417 131.156 74.0417C135.809 74.0417 141.126 72.4676 142.331 71.6217C143.537 70.7758 142.467 29.5134 142.467 29.5134C142.467 29.5134 132.591 26.8686 129.691 27.2327Z" fill="#92E3A9" stroke="#263238" stroke-linecap="round" stroke-linejoin="round"/>
<path d="M136.738 28.0789C138.761 27.7992 140.802 27.6365 142.849 27.5917C145.507 27.5917 148.142 27.7148 148.142 27.7148L154.789 21.9059L141.414 19.1218L142.478 13.5592C142.478 13.5592 152.313 12.9542 157.23 13.8001C162.147 14.646 169.858 16.825 170.258 16.825C170.658 16.825 171.187 18.1582 170.787 19.1218C170.387 20.0855 157.883 32.6779 154.148 35.9437C151.704 38.1232 149.397 40.4254 147.237 42.8395L145.531 69.8231C145.531 69.8231 149.919 72.0021 150.719 72.7249C151.518 73.4477 152.448 76.3548 152.448 76.3548C152.448 76.3548 144.337 73.3299 142.208 73.089C140.078 72.848 138.755 72.7249 138.355 72.0182C137.955 71.3115 134.632 38.9847 134.632 38.9847L134.767 28.6999C134.767 28.6999 134.744 28.0789 136.738 28.0789Z" fill="#7D7D7D" stroke="#263238" stroke-linecap="round" stroke-linejoin="round"/>
<path d="M144.713 44.6543L137.531 45.5002L138.196 47.9202L141.79 48.7661L145.242 47.3152L144.713 44.6543Z" stroke="#263238" stroke-linecap="round" stroke-linejoin="round"/>
<path d="M148.83 30.1348L147.236 42.8395L151.359 32.0729" stroke="#263238" stroke-linecap="round" stroke-linejoin="round"/>
<path d="M154.812 21.9053C154.812 21.9053 158.136 22.5103 163.188 20.6953" stroke="#263238" stroke-linecap="round" stroke-linejoin="round"/>
<path d="M158.271 22.7514C160.454 22.8067 162.637 22.6451 164.782 22.2695" stroke="#263238" stroke-linecap="round" stroke-linejoin="round"/>
<path d="M125.174 27.1094L125.838 35.9433C126.444 36.6687 127.229 37.2544 128.129 37.6533C129.029 38.0523 130.019 38.2532 131.02 38.2401C134.344 38.1223 134.744 35.9433 134.744 35.9433V28.6834L125.174 27.1094Z" fill="white" stroke="#263238" stroke-linecap="round" stroke-linejoin="round"/>
<path d="M134.873 31.7077L134.608 38.9783L137.402 34.9843C137.402 34.9843 140.461 38.4911 141.255 38.3733C142.049 38.2555 140.725 36.7993 140.461 35.4715C140.196 34.1437 137.932 29.4163 137.667 28.0885C137.402 26.7608 134.873 26.5145 134.726 27.1195C134.652 27.642 134.652 28.171 134.726 28.6935L134.873 31.7077Z" fill="#7D7D7D" stroke="#263238" stroke-linecap="round" stroke-linejoin="round"/>
<path d="M125.703 38.2406C125.703 38.2406 126.232 72.12 124.903 72.5054C123.574 72.8909 118.257 72.9926 114.904 74.4436C111.551 75.8945 109.987 76.4994 109.987 76.4994C109.987 76.4994 111.581 72.9926 113.445 71.4186C114.685 70.4047 116.07 69.5492 117.563 68.8755L114.11 52.664C114.11 52.664 107.728 37.293 107.593 36.4471C107.458 35.6011 119.692 29.3103 122.215 28.2182C124.738 27.126 125.409 28.1004 125.409 28.1004L125.703 38.2406Z" fill="#7D7D7D" stroke="#263238" stroke-linecap="round" stroke-linejoin="round"/>
<path d="M122.38 26.5045C122.38 26.5045 119.192 35.7024 118.922 36.9124C118.651 38.1224 118.922 38.1224 119.857 37.2711C120.792 36.4198 123.18 34.3693 123.18 34.3693L125.704 38.2402L125.568 31.1034V26.9863C125.568 26.9863 125.439 25.2945 122.38 26.5045Z" fill="#7D7D7D" stroke="#263238" stroke-linecap="round" stroke-linejoin="round"/>
<path d="M116.133 46.3516H123.974L123.844 49.2534L120.386 50.3402L115.998 49.2534L116.133 46.3516Z" stroke="#263238" stroke-linecap="round" stroke-linejoin="round"/>
<path d="M137.667 14.5282C137.667 14.5282 139.526 21.9058 139.926 23.0944C140.326 24.2829 137.802 29.0265 136.985 30.1133C136.674 30.5847 136.246 30.9832 135.735 31.277C135.224 31.5708 134.645 31.7516 134.044 31.8051C133.114 31.8051 128.062 30.2365 126.862 29.5083C125.662 28.7802 124.474 27.9343 124.474 27.9343C123.909 28.169 123.28 28.2484 122.666 28.1628C122.052 28.0772 121.478 27.8303 121.016 27.4524C119.422 26.1193 117.292 24.5453 117.822 23.4584C118.08 22.9251 118.511 22.4768 119.058 22.1742C119.605 21.8716 120.241 21.7293 120.88 21.7666C122.345 21.7666 121.816 21.6435 121.816 21.6435C121.816 21.6435 119.157 18.1367 119.157 15.3527C119.157 12.5687 124.868 10.5342 128.191 10.5342C130.489 10.6213 132.747 11.1141 134.838 11.9851L137.667 14.5282Z" fill="white" stroke="#263238" stroke-linecap="round" stroke-linejoin="round"/>
<path d="M133.014 17.3066L135.408 21.4238L133.014 22.8747L131.949 21.6647" stroke="#263238" stroke-linecap="round" stroke-linejoin="round"/>
<path d="M137.402 21.0596C137.402 21.0596 137.531 22.0286 135.938 23.6027" stroke="#263238" stroke-linecap="round" stroke-linejoin="round"/>
<path d="M130.491 18.8209C130.491 19.3884 130.22 19.8489 129.903 19.8489C129.585 19.8489 129.314 19.3884 129.314 18.8209C129.314 18.2534 129.585 17.793 129.903 17.793C130.22 17.793 130.491 18.2534 130.491 18.8209Z" fill="#263238"/>
<path d="M134.673 17.9114C135.005 17.9114 135.273 17.4511 135.273 16.8834C135.273 16.3157 135.005 15.8555 134.673 15.8555C134.342 15.8555 134.073 16.3157 134.073 16.8834C134.073 17.4511 134.342 17.9114 134.673 17.9114Z" fill="#263238"/>
<path d="M123.31 8.23175C123.31 8.23175 114.946 11.0158 114.669 14.5279C114.393 18.0401 122.116 22.8746 122.516 23.4796C122.916 24.0846 124.11 22.7515 124.11 22.7515C123.844 22.4264 123.658 22.0528 123.566 21.6564C123.474 21.2599 123.476 20.85 123.574 20.4547C123.974 19.2447 125.704 17.7777 125.704 17.1888C125.704 16.5999 123.71 17.6706 123.71 15.8557C123.71 14.0407 128.627 12.9539 131.55 13.0717C134.473 13.1894 137.003 17.6706 139.132 15.4916C141.261 13.3126 138.197 12.7129 138.197 12.7129C138.197 12.7129 142.314 12.2257 142.314 10.293C142.314 8.36024 140.185 7.02177 139.255 7.02177C138.326 7.02177 135.803 8.47802 135.803 6.90398C135.803 5.32994 138.326 4.60182 135.932 2.08549C133.538 -0.430829 130.486 2.08549 130.486 3.05455C130.486 4.0236 129.686 5.83321 129.156 5.83321C128.627 5.83321 127.027 3.65953 125.168 4.86951C124.61 5.27397 124.154 5.78411 123.833 6.36464C123.512 6.94517 123.334 7.58223 123.31 8.23175Z" fill="#263238" stroke="#263238" stroke-linecap="round" stroke-linejoin="round"/>
<path d="M126.768 17.5529L131.02 16.0967" stroke="#263238" stroke-linecap="round" stroke-linejoin="round"/>
<path d="M131.685 14.4046C131.604 14.0248 131.67 13.631 131.873 13.291" stroke="#263238" stroke-linecap="round" stroke-linejoin="round"/>
<path d="M131.873 13.2804C132.173 12.745 132.849 12.0543 134.343 11.4922" stroke="white" stroke-linecap="round" stroke-linejoin="round"/>
</svg>
