<svg width="36" height="35" viewBox="0 0 36 35" fill="none" xmlns="http://www.w3.org/2000/svg">
<path d="M35.2292 17.5C35.2292 26.8792 27.4645 34.5 17.8646 34.5C8.26462 34.5 0.5 26.8792 0.5 17.5C0.5 8.12083 8.26462 0.5 17.8646 0.5C27.4645 0.5 35.2292 8.12083 35.2292 17.5Z" fill="#FCFDF9" stroke="black"/>
<path d="M15.6771 23.3346C15.4608 23.3346 15.2493 23.3988 15.0694 23.519C14.8896 23.6391 14.7494 23.81 14.6666 24.0098C14.5838 24.2097 14.5621 24.4296 14.6043 24.6418C14.6466 24.8539 14.7507 25.0488 14.9037 25.2018C15.0566 25.3547 15.2515 25.4589 15.4637 25.5011C15.6759 25.5433 15.8958 25.5217 16.0956 25.4389C16.2955 25.3561 16.4663 25.2159 16.5865 25.036C16.7067 24.8562 16.7708 24.6447 16.7708 24.4284C16.7708 24.1383 16.6556 23.8601 16.4505 23.655C16.2454 23.4499 15.9672 23.3346 15.6771 23.3346ZM23.3333 21.1471H14.5833C14.3899 21.1471 14.2045 21.0703 14.0677 20.9336C13.931 20.7968 13.8542 20.6114 13.8542 20.418C13.8542 20.2246 13.931 20.0391 14.0677 19.9024C14.2045 19.7656 14.3899 19.6888 14.5833 19.6888H20.7748C21.2498 19.6873 21.7115 19.5318 22.0908 19.2458C22.47 18.9598 22.7463 18.5586 22.8783 18.1023L24.0344 14.0559C24.0654 13.9474 24.0708 13.8332 24.0502 13.7222C24.0295 13.6112 23.9834 13.5066 23.9154 13.4165C23.8475 13.3263 23.7595 13.2532 23.6585 13.2029C23.5575 13.1525 23.4462 13.1263 23.3333 13.1263H14.3931C14.2421 12.7015 13.9639 12.3335 13.5962 12.0725C13.2285 11.8116 12.7894 11.6703 12.3385 11.668H11.6667C11.4733 11.668 11.2878 11.7448 11.1511 11.8815C11.0143 12.0183 10.9375 12.2037 10.9375 12.3971C10.9375 12.5905 11.0143 12.776 11.1511 12.9127C11.2878 13.0495 11.4733 13.1263 11.6667 13.1263H12.3385C12.4968 13.1269 12.6507 13.1787 12.777 13.274C12.9034 13.3693 12.9955 13.503 13.0395 13.655L13.1529 14.0522L13.1531 14.0559L14.3494 18.2429C13.7927 18.3028 13.2802 18.5739 12.9174 19.0003C12.5545 19.4267 12.369 19.976 12.399 20.5351C12.429 21.0941 12.6722 21.6204 13.0785 22.0056C13.4849 22.3908 14.0234 22.6055 14.5833 22.6055H23.3333C23.5267 22.6055 23.7122 22.5286 23.8489 22.3919C23.9857 22.2552 24.0625 22.0697 24.0625 21.8763C24.0625 21.6829 23.9857 21.4974 23.8489 21.3607C23.7122 21.224 23.5267 21.1471 23.3333 21.1471ZM22.3667 14.5846L21.4762 17.7014C21.4322 17.8536 21.3401 17.9874 21.2137 18.0828C21.0872 18.1781 20.9332 18.23 20.7748 18.2305H15.8626L15.6767 17.5799L14.8213 14.5846H22.3667ZM21.5104 23.3346C21.2941 23.3346 21.0826 23.3988 20.9028 23.519C20.7229 23.6391 20.5827 23.81 20.4999 24.0098C20.4171 24.2097 20.3955 24.4296 20.4377 24.6418C20.4799 24.8539 20.5841 25.0488 20.737 25.2018C20.89 25.3547 21.0849 25.4589 21.297 25.5011C21.5092 25.5433 21.7291 25.5217 21.929 25.4389C22.1288 25.3561 22.2997 25.2159 22.4198 25.036C22.54 24.8562 22.6042 24.6447 22.6042 24.4284C22.6042 24.1383 22.4889 23.8601 22.2838 23.655C22.0787 23.4499 21.8005 23.3346 21.5104 23.3346Z" fill="black"/>
</svg>
