<svg width="188" height="121" viewBox="0 0 188 121" fill="none" xmlns="http://www.w3.org/2000/svg">
<path d="M73.8182 27.6507L162.068 27.6209L122.226 40.9499L32.4708 40.9137L73.8182 27.6507Z" fill="#2B652A"/>
<path d="M9.74133 0C16.0817 0 24.832 0.324713 31.1724 0.324713L24.6781 7.7931L23.6265 8.99496C22.8519 9.88025 21.7268 10.3797 20.5506 10.3604L6.39235 10.1283C4.78357 10.1019 3.86291 8.28323 4.79412 6.97107L9.74133 0Z" fill="#7CC97A"/>
<g filter="url(#filter0_d_2_55)">
<circle cx="86.3908" cy="102.391" r="10.3908" fill="#ABD8AB"/>
</g>
<g filter="url(#filter1_d_2_55)">
<circle cx="112.391" cy="102.391" r="10.3908" fill="#ABD8AB"/>
</g>
<path d="M5.11601 13.5628C3.22737 11.6725 4.56615 8.44238 7.23825 8.44238H177.618C183.177 8.44238 187.684 12.9491 187.684 18.5085C187.684 24.0587 183.168 28.5493 177.618 28.5182L23.2838 27.6539C20.6496 27.6391 18.1276 26.5856 16.2657 24.7221L9.58601 18.0366L5.11601 13.5628Z" fill="url(#paint0_linear_2_55)"/>
<path d="M72.2487 60.0723C91.414 60.0723 117.864 60.397 137.029 60.397L117.398 67.8654L110.528 70.4631L50.6553 70.1384L72.2487 60.0723Z" fill="#2B652A"/>
<path d="M32.731 72.7757C31.4862 70.7774 32.923 68.1895 35.2774 68.1895H140.276C146.015 68.1895 150.667 72.8416 150.667 78.5803C150.667 84.3038 146 88.9291 140.277 88.8777L42.2131 87.9969L32.731 72.7757Z" fill="url(#paint1_linear_2_55)"/>
<path d="M20.807 45.7936C19.2289 43.8304 20.6265 40.9141 23.1452 40.9141H162.356C168.095 40.9141 172.747 45.5662 172.747 51.3049C172.747 57.0318 168.083 61.6632 162.356 61.6233L37.5553 60.7546C34.5501 60.7337 31.7136 59.3623 29.8307 57.0199L24.8455 50.8178L20.807 45.7936Z" fill="url(#paint2_linear_2_55)"/>
<defs>
<filter id="filter0_d_2_55" x="72" y="92" width="28.7812" height="28.7812" filterUnits="userSpaceOnUse" color-interpolation-filters="sRGB">
<feFlood flood-opacity="0" result="BackgroundImageFix"/>
<feColorMatrix in="SourceAlpha" type="matrix" values="0 0 0 0 0 0 0 0 0 0 0 0 0 0 0 0 0 0 127 0" result="hardAlpha"/>
<feOffset dy="4"/>
<feGaussianBlur stdDeviation="2"/>
<feComposite in2="hardAlpha" operator="out"/>
<feColorMatrix type="matrix" values="0 0 0 0 0 0 0 0 0 0 0 0 0 0 0 0 0 0 0.25 0"/>
<feBlend mode="normal" in2="BackgroundImageFix" result="effect1_dropShadow_2_55"/>
<feBlend mode="normal" in="SourceGraphic" in2="effect1_dropShadow_2_55" result="shape"/>
</filter>
<filter id="filter1_d_2_55" x="98" y="92" width="28.7812" height="28.7812" filterUnits="userSpaceOnUse" color-interpolation-filters="sRGB">
<feFlood flood-opacity="0" result="BackgroundImageFix"/>
<feColorMatrix in="SourceAlpha" type="matrix" values="0 0 0 0 0 0 0 0 0 0 0 0 0 0 0 0 0 0 127 0" result="hardAlpha"/>
<feOffset dy="4"/>
<feGaussianBlur stdDeviation="2"/>
<feComposite in2="hardAlpha" operator="out"/>
<feColorMatrix type="matrix" values="0 0 0 0 0 0 0 0 0 0 0 0 0 0 0 0 0 0 0.25 0"/>
<feBlend mode="normal" in2="BackgroundImageFix" result="effect1_dropShadow_2_55"/>
<feBlend mode="normal" in="SourceGraphic" in2="effect1_dropShadow_2_55" result="shape"/>
</filter>
<linearGradient id="paint0_linear_2_55" x1="99.3621" y1="14.7337" x2="98.7526" y2="37.698" gradientUnits="userSpaceOnUse">
<stop stop-color="#7CC979"/>
<stop offset="1" stop-color="#5FC85C" stop-opacity="0"/>
</linearGradient>
<linearGradient id="paint1_linear_2_55" x1="90.2706" y1="71.4366" x2="90.2706" y2="88.9711" gradientUnits="userSpaceOnUse">
<stop stop-color="#55D06C"/>
<stop offset="1" stop-color="#43B941" stop-opacity="0"/>
</linearGradient>
<linearGradient id="paint2_linear_2_55" x1="95.1405" y1="39.6152" x2="94.8158" y2="61.6957" gradientUnits="userSpaceOnUse">
<stop stop-color="#5FC85C"/>
<stop offset="1" stop-color="#4ECA4A" stop-opacity="0"/>
</linearGradient>
</defs>
</svg>
