<svg width="32" height="32" viewBox="0 0 32 32" fill="none" xmlns="http://www.w3.org/2000/svg">
<mask id="mask0_53_25" style="mask-type:luminance" maskUnits="userSpaceOnUse" x="1" y="1" width="29" height="30">
<path d="M29.6663 13.333H15.9997V18.9997H23.8663C23.133 22.5997 20.0663 24.6663 15.9997 24.6663C11.1997 24.6663 7.33301 20.7997 7.33301 15.9997C7.33301 11.1997 11.1997 7.33301 15.9997 7.33301C18.0663 7.33301 19.933 8.06634 21.3997 9.26634L25.6663 4.99967C23.0663 2.73301 19.733 1.33301 15.9997 1.33301C7.86634 1.33301 1.33301 7.86634 1.33301 15.9997C1.33301 24.133 7.86634 30.6663 15.9997 30.6663C23.333 30.6663 29.9997 25.333 29.9997 15.9997C29.9997 15.133 29.8663 14.1997 29.6663 13.333Z" fill="white"/>
</mask>
<g mask="url(#mask0_53_25)">
<path d="M0 24.6663V7.33301L11.3333 15.9997L0 24.6663Z" fill="#FBBC05"/>
</g>
<mask id="mask1_53_25" style="mask-type:luminance" maskUnits="userSpaceOnUse" x="1" y="1" width="29" height="30">
<path d="M29.6663 13.333H15.9997V18.9997H23.8663C23.133 22.5997 20.0663 24.6663 15.9997 24.6663C11.1997 24.6663 7.33301 20.7997 7.33301 15.9997C7.33301 11.1997 11.1997 7.33301 15.9997 7.33301C18.0663 7.33301 19.933 8.06634 21.3997 9.26634L25.6663 4.99967C23.0663 2.73301 19.733 1.33301 15.9997 1.33301C7.86634 1.33301 1.33301 7.86634 1.33301 15.9997C1.33301 24.133 7.86634 30.6663 15.9997 30.6663C23.333 30.6663 29.9997 25.333 29.9997 15.9997C29.9997 15.133 29.8663 14.1997 29.6663 13.333Z" fill="white"/>
</mask>
<g mask="url(#mask1_53_25)">
<path d="M0 7.33333L11.3333 16L16 11.9333L32 9.33333V0H0V7.33333Z" fill="#EA4335"/>
</g>
<mask id="mask2_53_25" style="mask-type:luminance" maskUnits="userSpaceOnUse" x="1" y="1" width="29" height="30">
<path d="M29.6663 13.333H15.9997V18.9997H23.8663C23.133 22.5997 20.0663 24.6663 15.9997 24.6663C11.1997 24.6663 7.33301 20.7997 7.33301 15.9997C7.33301 11.1997 11.1997 7.33301 15.9997 7.33301C18.0663 7.33301 19.933 8.06634 21.3997 9.26634L25.6663 4.99967C23.0663 2.73301 19.733 1.33301 15.9997 1.33301C7.86634 1.33301 1.33301 7.86634 1.33301 15.9997C1.33301 24.133 7.86634 30.6663 15.9997 30.6663C23.333 30.6663 29.9997 25.333 29.9997 15.9997C29.9997 15.133 29.8663 14.1997 29.6663 13.333Z" fill="white"/>
</mask>
<g mask="url(#mask2_53_25)">
<path d="M0 24.6667L20 9.33333L25.2667 10L32 0V32H0V24.6667Z" fill="#34A853"/>
</g>
<mask id="mask3_53_25" style="mask-type:luminance" maskUnits="userSpaceOnUse" x="1" y="1" width="29" height="30">
<path d="M29.6663 13.333H15.9997V18.9997H23.8663C23.133 22.5997 20.0663 24.6663 15.9997 24.6663C11.1997 24.6663 7.33301 20.7997 7.33301 15.9997C7.33301 11.1997 11.1997 7.33301 15.9997 7.33301C18.0663 7.33301 19.933 8.06634 21.3997 9.26634L25.6663 4.99967C23.0663 2.73301 19.733 1.33301 15.9997 1.33301C7.86634 1.33301 1.33301 7.86634 1.33301 15.9997C1.33301 24.133 7.86634 30.6663 15.9997 30.6663C23.333 30.6663 29.9997 25.333 29.9997 15.9997C29.9997 15.133 29.8663 14.1997 29.6663 13.333Z" fill="white"/>
</mask>
<g mask="url(#mask3_53_25)">
<path d="M31.9993 31.9997L11.3327 15.9997L8.66602 13.9997L31.9993 7.33301V31.9997Z" fill="#4285F4"/>
</g>
</svg>
