<svg width="295" height="229" viewBox="0 0 295 229" fill="none" xmlns="http://www.w3.org/2000/svg">
<path d="M147.5 229C210.678 229 261.895 225.885 261.895 222.042C261.895 218.199 210.678 215.084 147.5 215.084C84.3209 215.084 33.1045 218.199 33.1045 222.042C33.1045 225.885 84.3209 229 147.5 229Z" fill="#F5F5F5"/>
<path d="M62.1992 206.626C62.1992 206.626 61.3614 200.381 57.5441 199.686C53.7268 198.992 54.8596 195.998 53.8625 194.806C52.8654 193.613 50.2458 197.092 52.4878 200.436C54.7298 203.78 52.8949 202.729 53.8625 205.839C54.8301 208.949 62.5414 211.808 62.1992 206.626Z" fill="#263238"/>
<path opacity="0.2" d="M62.1992 206.626C62.1992 206.626 61.3614 200.381 57.5441 199.686C53.7268 198.992 54.8596 195.998 53.8625 194.806C52.8654 193.613 50.2458 197.092 52.4878 200.436C54.7298 203.78 52.8949 202.729 53.8625 205.839C54.8301 208.949 62.5414 211.808 62.1992 206.626Z" fill="white"/>
<path d="M62.0397 210.959C61.9895 210.96 61.9402 210.946 61.8974 210.919C61.8546 210.892 61.82 210.853 61.7978 210.806C61.7978 210.738 58.8478 204.235 60.3759 193.878C60.8725 190.912 61.6634 188.007 62.7359 185.211C64.5885 179.937 66.0576 175.77 62.7005 168.16C61.6385 165.751 60.5588 163.507 59.5086 161.337C55.5674 153.187 52.4286 146.751 54.7886 140.236C54.8004 140.202 54.8187 140.17 54.8424 140.143C54.866 140.116 54.8946 140.094 54.9264 140.079C54.9582 140.063 54.9927 140.054 55.0278 140.053C55.0628 140.051 55.0978 140.057 55.1308 140.07C55.1965 140.096 55.2499 140.148 55.2796 140.215C55.3094 140.281 55.3131 140.357 55.2901 140.426C53.054 146.721 56.122 153.058 60.0101 161.085C61.0603 163.261 62.1518 165.511 63.2138 167.927C66.6653 175.745 65.0841 180.22 63.261 185.402C62.2011 188.161 61.422 191.029 60.9364 193.958C59.4201 204.143 62.2816 210.505 62.3111 210.554C62.3395 210.621 62.3419 210.697 62.3177 210.765C62.2934 210.834 62.2445 210.891 62.1813 210.923C62.1385 210.949 62.0893 210.962 62.0397 210.959Z" fill="#263238"/>
<path d="M59.8214 209.435C59.8214 209.435 57.3434 205.538 60.9247 203.534C64.506 201.53 65.2199 203.147 67.4147 201.69C69.6095 200.233 71.3087 196.773 71.6863 198.992C72.0639 201.211 69.5033 202.495 70.4119 203.516C71.3205 204.536 64.4116 211.193 59.8214 209.435Z" fill="#263238"/>
<path d="M53.9684 143.58C53.9684 143.58 51.5494 135.927 57.0482 135.767C62.547 135.607 56.4877 142.768 53.9684 143.58Z" fill="#263238"/>
<path d="M58.748 149.468C58.748 149.468 60.3823 142.51 64.2881 143.973C68.1939 145.436 62.6361 149.597 58.748 149.468Z" fill="#263238"/>
<path d="M52.1218 150.07C52.1218 150.07 52.7118 144.538 48.5818 144.403C44.4518 144.268 46.2749 149.173 52.1218 150.07Z" fill="#263238"/>
<path d="M54.871 161.399C54.871 161.399 49.3132 156.242 47.319 160.084C45.3248 163.925 51.5139 164.73 54.871 161.399Z" fill="#263238"/>
<path d="M64.7109 160.483C64.7109 160.483 65.7552 151.914 70.2451 154.6C74.735 157.286 68.6226 161.343 64.7109 160.483Z" fill="#263238"/>
<path d="M68.6666 172.758C68.6666 172.758 65.3508 164.098 71.5104 165.075C77.67 166.052 73.009 170.656 68.6666 172.758Z" fill="#263238"/>
<path d="M59.2138 175.85C59.2138 175.85 54.01 169.469 50.0393 171.492C46.0686 173.514 49.3136 179.863 59.2138 175.85Z" fill="#263238"/>
<path d="M63.9336 189.993C63.9336 189.993 68.3645 179.74 72.3057 183.195C76.2469 186.649 69.7923 191.818 63.9336 189.993Z" fill="#263238"/>
<path d="M57.4967 189.391C57.4967 189.391 58.6767 181.443 54.2812 182.082C49.8857 182.722 51.0421 187.584 57.4967 189.391Z" fill="#263238"/>
<g opacity="0.2">
<path d="M53.9684 143.58C53.9684 143.58 51.5494 135.927 57.0482 135.767C62.547 135.607 56.4877 142.768 53.9684 143.58Z" fill="white"/>
<path d="M58.748 149.468C58.748 149.468 60.3823 142.51 64.2881 143.973C68.1939 145.436 62.6361 149.597 58.748 149.468Z" fill="white"/>
<path d="M52.1218 150.07C52.1218 150.07 52.7118 144.538 48.5818 144.403C44.4518 144.268 46.2749 149.173 52.1218 150.07Z" fill="white"/>
<path d="M54.871 161.399C54.871 161.399 49.3132 156.242 47.319 160.084C45.3248 163.925 51.5139 164.73 54.871 161.399Z" fill="white"/>
<path d="M64.7109 160.483C64.7109 160.483 65.7552 151.914 70.2451 154.6C74.735 157.286 68.6226 161.343 64.7109 160.483Z" fill="white"/>
<path d="M68.6666 172.758C68.6666 172.758 65.3508 164.098 71.5104 165.075C77.67 166.052 73.009 170.656 68.6666 172.758Z" fill="white"/>
<path d="M59.2138 175.85C59.2138 175.85 54.01 169.469 50.0393 171.492C46.0686 173.514 49.3136 179.863 59.2138 175.85Z" fill="white"/>
<path d="M63.9336 189.993C63.9336 189.993 68.3645 179.74 72.3057 183.195C76.2469 186.649 69.7923 191.818 63.9336 189.993Z" fill="white"/>
<path d="M57.4967 189.391C57.4967 189.391 58.6767 181.443 54.2812 182.082C49.8857 182.722 51.0421 187.584 57.4967 189.391Z" fill="white"/>
</g>
<path d="M56.3468 154.078C56.3012 154.077 56.2566 154.065 56.217 154.041C52.9661 152.142 50.6238 148.558 50.5235 148.405C50.4852 148.343 50.4717 148.267 50.4861 148.195C50.5004 148.122 50.5414 148.059 50.6002 148.017C50.6291 147.997 50.6616 147.983 50.6958 147.976C50.73 147.969 50.7652 147.969 50.7994 147.976C50.8335 147.984 50.8659 147.998 50.8945 148.019C50.9231 148.04 50.9474 148.067 50.966 148.097C50.966 148.128 53.2198 151.546 56.2406 153.414C56.7421 152.455 58.5298 149.148 60.0225 148.214C60.0527 148.195 60.0861 148.183 60.1209 148.178C60.1557 148.173 60.1911 148.175 60.2251 148.184C60.2591 148.193 60.2911 148.209 60.3191 148.231C60.3471 148.253 60.3706 148.281 60.3883 148.313C60.407 148.343 60.4195 148.378 60.4249 148.414C60.4303 148.45 60.4285 148.486 60.4196 148.521C60.4108 148.557 60.395 148.59 60.3734 148.618C60.3518 148.647 60.3247 148.67 60.2939 148.687C58.7068 149.683 56.6064 153.881 56.5828 153.924C56.5671 153.958 56.5448 153.988 56.5174 154.013C56.49 154.037 56.458 154.055 56.4235 154.066L56.3468 154.078Z" fill="#263238"/>
<path d="M61.3907 164.73C61.3314 164.73 61.2735 164.711 61.2255 164.675C56.5999 161.03 50.6822 161.183 50.6055 161.183C50.5353 161.182 50.4681 161.154 50.4169 161.104C50.3656 161.054 50.334 160.986 50.3282 160.913C50.3274 160.877 50.3335 160.84 50.3461 160.806C50.3587 160.773 50.3777 160.742 50.4018 160.715C50.4259 160.689 50.4547 160.668 50.4866 160.653C50.5185 160.639 50.5529 160.631 50.5878 160.63C50.6468 160.63 56.5527 160.47 61.2963 164.054C61.8863 163.021 64.2935 159.29 67.3438 157.422C67.3737 157.402 67.4072 157.389 67.4422 157.383C67.4771 157.377 67.5128 157.379 67.5471 157.388C67.5813 157.398 67.6134 157.414 67.6414 157.437C67.6693 157.459 67.6925 157.488 67.7096 157.52C67.7283 157.551 67.7408 157.585 67.7462 157.621C67.7516 157.657 67.7498 157.694 67.7409 157.729C67.7321 157.764 67.7163 157.797 67.6947 157.825C67.6731 157.854 67.646 157.878 67.6152 157.895C64.2522 159.96 61.6267 164.552 61.5972 164.595C61.5793 164.629 61.554 164.659 61.5233 164.681C61.4926 164.703 61.4573 164.718 61.4202 164.724L61.3907 164.73Z" fill="#263238"/>
<path d="M64.5932 178.769C64.5477 178.768 64.503 178.755 64.4634 178.732C64.3926 178.689 57.6312 174.638 52.7401 174.54C52.7052 174.54 52.6707 174.533 52.6385 174.519C52.6063 174.505 52.577 174.485 52.5524 174.459C52.5277 174.433 52.5082 174.403 52.4948 174.369C52.4815 174.336 52.4746 174.3 52.4746 174.263C52.4746 174.227 52.4815 174.191 52.4948 174.158C52.5082 174.124 52.5277 174.093 52.5524 174.068C52.577 174.042 52.6063 174.022 52.6385 174.008C52.6707 173.994 52.7052 173.987 52.7401 173.987C57.4011 174.079 63.4722 177.521 64.5401 178.154C67.6789 175.4 70.1687 168.627 70.1982 168.559C70.2093 168.524 70.2273 168.491 70.251 168.462C70.2747 168.434 70.3037 168.411 70.3361 168.395C70.3686 168.379 70.4038 168.37 70.4398 168.368C70.4757 168.367 70.5116 168.373 70.5452 168.386C70.5788 168.4 70.6095 168.42 70.6354 168.446C70.6612 168.472 70.6817 168.503 70.6956 168.538C70.7095 168.572 70.7165 168.61 70.7162 168.647C70.7159 168.685 70.7083 168.722 70.6938 168.756C70.5876 169.045 68.0506 175.935 64.7348 178.707C64.6948 178.743 64.6454 178.764 64.5932 178.769Z" fill="#263238"/>
<path d="M60.6824 193.306C60.6349 193.306 60.5881 193.294 60.5467 193.269C57.992 191.745 54.688 185.07 54.5464 184.787C54.5306 184.754 54.521 184.719 54.5183 184.682C54.5157 184.645 54.52 184.609 54.5309 184.574C54.5419 184.539 54.5593 184.507 54.5822 184.479C54.6051 184.451 54.6331 184.428 54.6644 184.412C54.6958 184.395 54.73 184.385 54.7651 184.383C54.8002 184.38 54.8354 184.384 54.8688 184.396C54.9023 184.407 54.9332 184.425 54.9599 184.449C54.9866 184.473 55.0085 184.502 55.0243 184.535C55.0243 184.602 58.2162 190.983 60.6175 192.655C62.5738 190.279 65.1599 188.557 68.0515 187.707C68.1196 187.687 68.1921 187.697 68.2538 187.732C68.3154 187.768 68.3614 187.827 68.3819 187.897C68.4022 187.967 68.3949 188.043 68.3617 188.107C68.3285 188.172 68.2722 188.22 68.2049 188.241C65.3457 189.069 62.796 190.785 60.8948 193.159C60.8756 193.201 60.8457 193.237 60.8083 193.263C60.7709 193.289 60.7274 193.304 60.6824 193.306Z" fill="#263238"/>
<path d="M60.1809 208.507C60.1809 208.507 58.051 204.979 55.6497 204.475C53.2484 203.971 52.2336 201.088 51.3309 202.84C50.4282 204.592 52.9062 210.308 60.1809 208.507Z" fill="#263238"/>
<path d="M49.1611 222.355H72.3953L73.9529 207.425H47.6094L49.1611 222.355Z" fill="#CFD8DC"/>
<path d="M47.0659 210.252H74.495L74.8431 207.093H46.7119L47.0659 210.252Z" fill="#CFD8DC"/>
<path opacity="0.3" d="M47.0659 210.252H74.495L74.8431 207.093H46.7119L47.0659 210.252Z" fill="white"/>
<path d="M253.051 60.8896L251.034 81.0814H240.933L238.915 60.8896H253.051Z" fill="#263238"/>
<path opacity="0.3" d="M253.051 60.8896L251.034 81.0814H240.933L238.915 60.8896H253.051Z" fill="white"/>
<path d="M247.859 76.7412H244.101V222.356H247.859V76.7412Z" fill="#263238"/>
<path opacity="0.3" d="M247.859 76.7412H244.101V222.356H247.859V76.7412Z" fill="white"/>
<path d="M249.97 79.8523H241.994L240.224 62.1191H251.74L249.97 79.8523Z" fill="#CFD8DC"/>
<path opacity="0.4" d="M249.97 79.8523H241.994L240.224 62.1191H251.74L249.97 79.8523Z" fill="white"/>
<path d="M244.932 80.1283H244.389L243.799 61.5039H244.342L244.932 80.1283Z" fill="#263238"/>
<path opacity="0.3" d="M244.932 80.1283H244.389L243.799 61.5039H244.342L244.932 80.1283Z" fill="white"/>
<path opacity="0.2" d="M253.05 60.8896L251.032 81.0814H244.684L243.923 60.8896H253.05Z" fill="white"/>
<path d="M245.982 54.3984C245.982 54.3984 239.988 60.5451 235.397 60.5451L236.825 61.5224H255.115L256.537 60.5451C251.971 60.5574 245.982 54.3984 245.982 54.3984Z" fill="#263238"/>
<path opacity="0.4" d="M256.561 60.5578L255.139 61.529H236.849L235.409 60.5578C239.999 60.5578 245.988 54.4111 245.988 54.4111C245.988 54.4111 251.97 60.5578 256.561 60.5578Z" fill="white"/>
<path opacity="0.2" d="M256.561 60.5574L255.139 61.5286H243.244C242.884 60.9139 242.654 60.4775 242.654 60.4775C245.846 58.9347 246.005 54.3984 246.005 54.3984C246.005 54.3984 251.97 60.5574 256.561 60.5574Z" fill="white"/>
<path d="M242.755 219.664H249.21C249.596 219.664 249.967 219.824 250.24 220.109C250.513 220.393 250.667 220.78 250.667 221.182V222.356H241.31V221.182C241.31 220.782 241.461 220.397 241.732 220.113C242.003 219.829 242.371 219.667 242.755 219.664Z" fill="#263238"/>
<path opacity="0.5" d="M242.755 219.664H249.21C249.596 219.664 249.967 219.824 250.24 220.109C250.513 220.393 250.667 220.78 250.667 221.182V222.356H241.31V221.182C241.31 220.782 241.461 220.397 241.732 220.113C242.003 219.829 242.371 219.667 242.755 219.664Z" fill="white"/>
<path d="M141.605 38.4414H64.5631C62.0117 38.4414 59.9434 40.5962 59.9434 43.2542V155.689C59.9434 158.347 62.0117 160.502 64.5631 160.502H141.605C144.157 160.502 146.225 158.347 146.225 155.689V43.2542C146.225 40.5962 144.157 38.4414 141.605 38.4414Z" fill="#CFD8DC"/>
<path opacity="0.6" d="M141.605 38.4414H64.5631C62.0117 38.4414 59.9434 40.5962 59.9434 43.2542V155.689C59.9434 158.347 62.0117 160.502 64.5631 160.502H141.605C144.157 160.502 146.225 158.347 146.225 155.689V43.2542C146.225 40.5962 144.157 38.4414 141.605 38.4414Z" fill="white"/>
<path d="M114.671 71.1723C114.672 73.5602 113.994 75.8948 112.721 77.8809C111.449 79.8669 109.639 81.4152 107.522 82.3298C105.405 83.2445 103.075 83.4844 100.827 83.0193C98.5785 82.5542 96.5133 81.405 94.8921 79.7169C93.271 78.0288 92.1668 75.8778 91.7192 73.5359C91.2716 71.194 91.5007 68.7664 92.3776 66.5601C93.2545 64.3539 94.7397 62.4681 96.6454 61.1414C98.5511 59.8146 100.792 59.1065 103.084 59.1065C104.605 59.1048 106.112 59.4158 107.519 60.0215C108.925 60.6272 110.203 61.5158 111.279 62.6365C112.355 63.7571 113.209 65.0879 113.791 66.5526C114.373 68.0172 114.672 69.5871 114.671 71.1723Z" fill="#CFD8DC"/>
<path opacity="0.7" d="M114.671 71.1723C114.672 73.5602 113.994 75.8948 112.721 77.8809C111.449 79.8669 109.639 81.4152 107.522 82.3298C105.405 83.2445 103.075 83.4844 100.827 83.0193C98.5785 82.5542 96.5133 81.405 94.8921 79.7169C93.271 78.0288 92.1668 75.8778 91.7192 73.5359C91.2716 71.194 91.5007 68.7664 92.3776 66.5601C93.2545 64.3539 94.7397 62.4681 96.6454 61.1414C98.5511 59.8146 100.792 59.1065 103.084 59.1065C104.605 59.1048 106.112 59.4158 107.519 60.0215C108.925 60.6272 110.203 61.5158 111.279 62.6365C112.355 63.7571 113.209 65.0879 113.791 66.5526C114.373 68.0172 114.672 69.5871 114.671 71.1723Z" fill="white"/>
<path d="M103.084 74.3561C105.375 74.3561 107.232 72.4214 107.232 70.035C107.232 67.6485 105.375 65.7139 103.084 65.7139C100.794 65.7139 98.9365 67.6485 98.9365 70.035C98.9365 72.4214 100.794 74.3561 103.084 74.3561Z" fill="white"/>
<path d="M110.442 80.5212C108.369 82.2937 105.77 83.2624 103.088 83.2624C100.406 83.2624 97.8067 82.2937 95.7334 80.5212C96.819 77.2082 99.0551 74.7618 101.74 74.141C102.626 73.9361 103.544 73.9361 104.43 74.141C107.12 74.7434 109.351 77.1897 110.442 80.5212Z" fill="white"/>
<path d="M97.6043 117.88C97.5873 117.736 97.5181 117.624 97.3969 117.544C97.2757 117.465 97.127 117.425 96.9509 117.425C96.8221 117.425 96.7094 117.446 96.6128 117.488C96.5172 117.529 96.4424 117.587 96.3884 117.66C96.3354 117.732 96.3089 117.815 96.3089 117.908C96.3089 117.986 96.3273 118.053 96.3643 118.108C96.4021 118.163 96.4504 118.209 96.5091 118.246C96.5679 118.282 96.6294 118.312 96.6938 118.336C96.7582 118.358 96.8174 118.377 96.8714 118.391L97.1668 118.471C97.2426 118.491 97.3269 118.518 97.4197 118.553C97.5134 118.588 97.6029 118.636 97.6881 118.696C97.7743 118.756 97.8453 118.833 97.9012 118.927C97.9571 119.02 97.985 119.135 97.985 119.272C97.985 119.429 97.9438 119.571 97.8614 119.698C97.78 119.825 97.6607 119.926 97.5035 120C97.3472 120.075 97.1573 120.113 96.9339 120.113C96.7255 120.113 96.5451 120.079 96.3927 120.012C96.2412 119.945 96.1218 119.851 96.0347 119.731C95.9485 119.61 95.8998 119.471 95.8884 119.312H96.252C96.2615 119.421 96.2984 119.512 96.3628 119.584C96.4282 119.655 96.5106 119.708 96.61 119.743C96.7104 119.777 96.8183 119.794 96.9339 119.794C97.0683 119.794 97.1891 119.773 97.2961 119.729C97.4031 119.685 97.4878 119.623 97.5503 119.544C97.6128 119.465 97.6441 119.372 97.6441 119.266C97.6441 119.169 97.6171 119.091 97.5631 119.03C97.5091 118.97 97.4381 118.92 97.3501 118.883C97.262 118.845 97.1668 118.812 97.0645 118.783L96.7066 118.681C96.4793 118.616 96.2994 118.522 96.1668 118.401C96.0342 118.28 95.968 118.121 95.968 117.925C95.968 117.762 96.012 117.62 96.1001 117.499C96.1891 117.377 96.3084 117.282 96.458 117.215C96.6086 117.147 96.7767 117.113 96.9623 117.113C97.1498 117.113 97.3164 117.146 97.4623 117.214C97.6081 117.28 97.7236 117.371 97.8089 117.486C97.895 117.602 97.9405 117.733 97.9452 117.88H97.6043ZM98.5187 120.062V117.88H98.854V120.062H98.5187ZM98.6892 117.516C98.6238 117.516 98.5675 117.494 98.5202 117.449C98.4738 117.405 98.4506 117.351 98.4506 117.289C98.4506 117.226 98.4738 117.173 98.5202 117.128C98.5675 117.084 98.6238 117.062 98.6892 117.062C98.7545 117.062 98.8104 117.084 98.8568 117.128C98.9041 117.173 98.9278 117.226 98.9278 117.289C98.9278 117.351 98.9041 117.405 98.8568 117.449C98.8104 117.494 98.7545 117.516 98.6892 117.516ZM100.349 120.925C100.187 120.925 100.047 120.904 99.931 120.863C99.8145 120.822 99.7175 120.768 99.6398 120.701C99.5631 120.634 99.502 120.563 99.4566 120.488L99.7236 120.3C99.7539 120.34 99.7923 120.385 99.8387 120.437C99.8851 120.489 99.9485 120.534 100.029 120.571C100.11 120.61 100.217 120.63 100.349 120.63C100.525 120.63 100.67 120.587 100.785 120.502C100.899 120.417 100.957 120.283 100.957 120.101V119.658H100.928C100.904 119.698 100.869 119.747 100.823 119.806C100.779 119.864 100.714 119.915 100.63 119.961C100.547 120.005 100.434 120.027 100.292 120.027C100.116 120.027 99.9575 119.986 99.8174 119.902C99.6782 119.819 99.5679 119.698 99.4864 119.539C99.4059 119.38 99.3657 119.187 99.3657 118.959C99.3657 118.736 99.405 118.541 99.4836 118.375C99.5622 118.209 99.6715 118.08 99.8117 117.989C99.9519 117.897 100.114 117.851 100.297 117.851C100.44 117.851 100.552 117.875 100.636 117.922C100.72 117.969 100.784 118.022 100.829 118.081C100.874 118.14 100.909 118.188 100.934 118.226H100.968V117.88H101.292V120.124C101.292 120.312 101.249 120.464 101.164 120.581C101.08 120.7 100.966 120.786 100.823 120.841C100.681 120.897 100.523 120.925 100.349 120.925ZM100.337 119.726C100.472 119.726 100.585 119.696 100.678 119.634C100.771 119.572 100.842 119.484 100.89 119.368C100.938 119.253 100.962 119.115 100.962 118.954C100.962 118.796 100.939 118.658 100.891 118.537C100.844 118.417 100.774 118.323 100.681 118.255C100.588 118.187 100.474 118.152 100.337 118.152C100.195 118.152 100.077 118.188 99.9822 118.26C99.8884 118.332 99.8179 118.429 99.7705 118.55C99.7241 118.671 99.7009 118.806 99.7009 118.954C99.7009 119.105 99.7246 119.239 99.7719 119.356C99.8202 119.471 99.8912 119.562 99.985 119.628C100.08 119.694 100.197 119.726 100.337 119.726ZM102.241 118.749V120.062H101.905V117.88H102.229V118.221H102.258C102.309 118.11 102.387 118.021 102.491 117.954C102.595 117.885 102.729 117.851 102.894 117.851C103.042 117.851 103.171 117.882 103.282 117.942C103.393 118.002 103.479 118.093 103.54 118.215C103.602 118.336 103.633 118.49 103.633 118.675V120.062H103.297V118.698C103.297 118.526 103.253 118.393 103.164 118.297C103.075 118.201 102.953 118.152 102.797 118.152C102.69 118.152 102.595 118.176 102.511 118.222C102.427 118.268 102.361 118.336 102.313 118.425C102.265 118.514 102.241 118.622 102.241 118.749ZM97.343 124.169V122.88H97.6782V125.062H97.343V124.692H97.3202C97.2691 124.803 97.1895 124.897 97.0816 124.975C96.9736 125.052 96.8373 125.09 96.6725 125.09C96.5361 125.09 96.4149 125.06 96.3089 125C96.2028 124.94 96.1195 124.849 96.0589 124.728C95.9983 124.606 95.968 124.452 95.968 124.266V122.88H96.3032V124.243C96.3032 124.402 96.3477 124.529 96.4367 124.624C96.5267 124.719 96.6412 124.766 96.7805 124.766C96.8638 124.766 96.9485 124.745 97.0347 124.702C97.1218 124.66 97.1948 124.594 97.2535 124.506C97.3131 124.418 97.343 124.306 97.343 124.169ZM98.2922 125.88V122.88H98.616V123.226H98.6558C98.6804 123.188 98.7145 123.14 98.7581 123.081C98.8026 123.022 98.866 122.969 98.9484 122.922C99.0318 122.875 99.1444 122.851 99.2865 122.851C99.4702 122.851 99.6321 122.897 99.7723 122.989C99.9124 123.081 100.022 123.211 100.1 123.38C100.179 123.548 100.218 123.747 100.218 123.976C100.218 124.207 100.179 124.408 100.1 124.577C100.022 124.746 99.9129 124.876 99.7737 124.969C99.6345 125.061 99.474 125.107 99.2922 125.107C99.152 125.107 99.0398 125.084 98.9555 125.037C98.8712 124.99 98.8064 124.937 98.7609 124.877C98.7155 124.816 98.6804 124.766 98.6558 124.726H98.6274V125.88H98.2922ZM98.6217 123.971C98.6217 124.135 98.6459 124.281 98.6942 124.407C98.7425 124.532 98.813 124.63 98.9058 124.701C98.9986 124.771 99.1122 124.806 99.2467 124.806C99.3869 124.806 99.5038 124.769 99.5976 124.695C99.6923 124.62 99.7633 124.52 99.8106 124.394C99.8589 124.267 99.8831 124.126 99.8831 123.971C99.8831 123.817 99.8594 123.679 99.8121 123.556C99.7657 123.432 99.6951 123.334 99.6004 123.262C99.5067 123.189 99.3888 123.152 99.2467 123.152C99.1104 123.152 98.9958 123.187 98.903 123.256C98.8102 123.324 98.7401 123.42 98.6927 123.543C98.6454 123.665 98.6217 123.808 98.6217 123.971ZM102.19 123.749V125.062H101.855V122.88H102.179V123.221H102.207C102.258 123.11 102.336 123.021 102.44 122.954C102.544 122.885 102.679 122.851 102.843 122.851C102.991 122.851 103.12 122.882 103.231 122.942C103.342 123.002 103.428 123.093 103.49 123.215C103.551 123.336 103.582 123.49 103.582 123.675V125.062H103.247V123.698C103.247 123.526 103.202 123.393 103.113 123.297C103.024 123.201 102.902 123.152 102.747 123.152C102.64 123.152 102.544 123.176 102.46 123.222C102.376 123.268 102.311 123.336 102.262 123.425C102.214 123.514 102.19 123.622 102.19 123.749ZM105.081 125.107C104.884 125.107 104.711 125.06 104.562 124.966C104.415 124.873 104.299 124.741 104.216 124.573C104.133 124.404 104.092 124.207 104.092 123.982C104.092 123.755 104.133 123.556 104.216 123.387C104.299 123.217 104.415 123.086 104.562 122.992C104.711 122.898 104.884 122.851 105.081 122.851C105.278 122.851 105.45 122.898 105.598 122.992C105.747 123.086 105.862 123.217 105.945 123.387C106.028 123.556 106.07 123.755 106.07 123.982C106.07 124.207 106.028 124.404 105.945 124.573C105.862 124.741 105.747 124.873 105.598 124.966C105.45 125.06 105.278 125.107 105.081 125.107ZM105.081 124.806C105.23 124.806 105.354 124.767 105.45 124.691C105.547 124.614 105.618 124.513 105.665 124.388C105.711 124.263 105.734 124.128 105.734 123.982C105.734 123.836 105.711 123.7 105.665 123.574C105.618 123.448 105.547 123.347 105.45 123.269C105.354 123.191 105.23 123.152 105.081 123.152C104.931 123.152 104.808 123.191 104.712 123.269C104.615 123.347 104.543 123.448 104.497 123.574C104.451 123.7 104.427 123.836 104.427 123.982C104.427 124.128 104.451 124.263 104.497 124.388C104.543 124.513 104.615 124.614 104.712 124.691C104.808 124.767 104.931 124.806 105.081 124.806ZM107.001 125.062L106.337 122.88H106.689L107.16 124.55H107.183L107.649 122.88H108.007L108.467 124.544H108.49L108.962 122.88H109.314L108.649 125.062H108.32L107.842 123.385H107.808L107.331 125.062H107.001Z" fill="black"/>
<path d="M126.431 122.061H79.7441C77.082 122.061 74.9238 124.309 74.9238 127.082V127.089C74.9238 129.862 77.082 132.11 79.7441 132.11H126.431C129.093 132.11 131.251 129.862 131.251 127.089V127.082C131.251 124.309 129.093 122.061 126.431 122.061Z" fill="#CFD8DC"/>
<g opacity="0.5">
<path d="M92.822 140.37V137.461H94.5663V137.774H93.1743V138.756H94.4356V139.069H93.1743V140.37H92.822ZM95.8504 140.416C95.6534 140.416 95.4806 140.369 95.3319 140.275C95.1842 140.181 95.0687 140.05 94.9854 139.881C94.903 139.713 94.8618 139.516 94.8618 139.291C94.8618 139.063 94.903 138.865 94.9854 138.695C95.0687 138.526 95.1842 138.394 95.3319 138.301C95.4806 138.207 95.6534 138.16 95.8504 138.16C96.0474 138.16 96.2197 138.207 96.3675 138.301C96.5161 138.394 96.6317 138.526 96.714 138.695C96.7974 138.865 96.839 139.063 96.839 139.291C96.839 139.516 96.7974 139.713 96.714 139.881C96.6317 140.05 96.5161 140.181 96.3675 140.275C96.2197 140.369 96.0474 140.416 95.8504 140.416ZM95.8504 140.114C96 140.114 96.1231 140.076 96.2197 139.999C96.3163 139.923 96.3878 139.822 96.4342 139.697C96.4806 139.572 96.5038 139.436 96.5038 139.291C96.5038 139.145 96.4806 139.009 96.4342 138.883C96.3878 138.757 96.3163 138.655 96.2197 138.578C96.1231 138.5 96 138.461 95.8504 138.461C95.7008 138.461 95.5777 138.5 95.4811 138.578C95.3845 138.655 95.313 138.757 95.2666 138.883C95.2202 139.009 95.197 139.145 95.197 139.291C95.197 139.436 95.2202 139.572 95.2666 139.697C95.313 139.822 95.3845 139.923 95.4811 139.999C95.5777 140.076 95.7008 140.114 95.8504 140.114ZM97.3508 140.37V138.188H97.6746V138.518H97.6974C97.7371 138.41 97.8091 138.322 97.9133 138.255C98.0174 138.188 98.1349 138.154 98.2655 138.154C98.2902 138.154 98.3209 138.155 98.3579 138.156C98.3948 138.157 98.4227 138.158 98.4417 138.16V138.501C98.4303 138.498 98.4043 138.494 98.3635 138.488C98.3238 138.481 98.2816 138.478 98.2371 138.478C98.1311 138.478 98.0364 138.5 97.953 138.545C97.8706 138.588 97.8053 138.649 97.757 138.727C97.7097 138.803 97.686 138.891 97.686 138.989V140.37H97.3508ZM99.6533 141.234C99.4914 141.234 99.3522 141.213 99.2357 141.171C99.1192 141.131 99.0222 141.077 98.9445 141.009C98.8678 140.943 98.8067 140.872 98.7613 140.796L99.0283 140.609C99.0586 140.649 99.097 140.694 99.1434 140.745C99.1898 140.797 99.2532 140.842 99.3337 140.88C99.4152 140.919 99.5217 140.938 99.6533 140.938C99.8295 140.938 99.9748 140.896 100.089 140.81C100.204 140.725 100.261 140.592 100.261 140.41V139.967H100.233C100.208 140.006 100.173 140.056 100.128 140.114C100.083 140.172 100.019 140.224 99.9346 140.269C99.8512 140.314 99.7385 140.336 99.5965 140.336C99.4204 140.336 99.2622 140.294 99.1221 140.211C98.9829 140.128 98.8725 140.006 98.7911 139.847C98.7106 139.688 98.6704 139.495 98.6704 139.268C98.6704 139.044 98.7097 138.85 98.7883 138.684C98.8669 138.517 98.9762 138.389 99.1164 138.298C99.2565 138.206 99.4185 138.16 99.6022 138.16C99.7442 138.16 99.8569 138.184 99.9403 138.231C100.025 138.277 100.089 138.33 100.133 138.39C100.179 138.449 100.214 138.497 100.239 138.535H100.273V138.188H100.597V140.433C100.597 140.62 100.554 140.773 100.469 140.89C100.384 141.008 100.271 141.095 100.128 141.15C99.9857 141.206 99.8276 141.234 99.6533 141.234ZM99.642 140.035C99.7764 140.035 99.8901 140.004 99.9829 139.943C100.076 139.881 100.146 139.792 100.195 139.677C100.243 139.561 100.267 139.423 100.267 139.262C100.267 139.105 100.243 138.966 100.196 138.846C100.149 138.726 100.079 138.631 99.9857 138.563C99.8929 138.495 99.7783 138.461 99.642 138.461C99.4999 138.461 99.3815 138.497 99.2868 138.569C99.1931 138.641 99.1225 138.738 99.0752 138.859C99.0288 138.98 99.0056 139.114 99.0056 139.262C99.0056 139.414 99.0293 139.548 99.0766 139.664C99.1249 139.78 99.1959 139.871 99.2897 139.937C99.3844 140.002 99.5018 140.035 99.642 140.035ZM102.097 140.416C101.9 140.416 101.727 140.369 101.578 140.275C101.43 140.181 101.315 140.05 101.231 139.881C101.149 139.713 101.108 139.516 101.108 139.291C101.108 139.063 101.149 138.865 101.231 138.695C101.315 138.526 101.43 138.394 101.578 138.301C101.727 138.207 101.9 138.16 102.097 138.16C102.293 138.16 102.466 138.207 102.614 138.301C102.762 138.394 102.878 138.526 102.96 138.695C103.043 138.865 103.085 139.063 103.085 139.291C103.085 139.516 103.043 139.713 102.96 139.881C102.878 140.05 102.762 140.181 102.614 140.275C102.466 140.369 102.293 140.416 102.097 140.416ZM102.097 140.114C102.246 140.114 102.369 140.076 102.466 139.999C102.562 139.923 102.634 139.822 102.68 139.697C102.727 139.572 102.75 139.436 102.75 139.291C102.75 139.145 102.727 139.009 102.68 138.883C102.634 138.757 102.562 138.655 102.466 138.578C102.369 138.5 102.246 138.461 102.097 138.461C101.947 138.461 101.824 138.5 101.727 138.578C101.631 138.655 101.559 138.757 101.513 138.883C101.466 139.009 101.443 139.145 101.443 139.291C101.443 139.436 101.466 139.572 101.513 139.697C101.559 139.822 101.631 139.923 101.727 139.999C101.824 140.076 101.947 140.114 102.097 140.114ZM104.546 138.188V138.472H103.415V138.188H104.546ZM103.745 137.666H104.08V139.745C104.08 139.84 104.094 139.911 104.121 139.958C104.149 140.005 104.185 140.036 104.229 140.052C104.273 140.067 104.32 140.075 104.37 140.075C104.407 140.075 104.437 140.073 104.46 140.069C104.484 140.064 104.503 140.06 104.517 140.058L104.585 140.359C104.563 140.367 104.531 140.376 104.49 140.384C104.45 140.394 104.398 140.399 104.335 140.399C104.241 140.399 104.148 140.378 104.057 140.337C103.967 140.297 103.892 140.235 103.833 140.151C103.774 140.068 103.745 139.963 103.745 139.836V137.666ZM92.822 145.37V142.461H93.805C94.0332 142.461 94.2197 142.502 94.3646 142.585C94.5104 142.666 94.6184 142.776 94.6885 142.916C94.7586 143.055 94.7936 143.21 94.7936 143.381C94.7936 143.553 94.7586 143.709 94.6885 143.849C94.6193 143.989 94.5123 144.101 94.3675 144.184C94.2226 144.266 94.037 144.308 93.8106 144.308H93.1061V143.995H93.7993C93.9555 143.995 94.081 143.968 94.1757 143.914C94.2704 143.86 94.339 143.787 94.3817 143.695C94.4252 143.603 94.447 143.498 94.447 143.381C94.447 143.265 94.4252 143.161 94.3817 143.069C94.339 142.977 94.2699 142.905 94.1743 142.853C94.0786 142.8 93.9517 142.774 93.7936 142.774H93.1743V145.37H92.822ZM95.9577 145.421C95.8194 145.421 95.6939 145.395 95.5812 145.343C95.4685 145.29 95.3791 145.214 95.3128 145.114C95.2465 145.014 95.2133 144.893 95.2133 144.751C95.2133 144.626 95.238 144.524 95.2872 144.447C95.3364 144.368 95.4023 144.307 95.4846 144.262C95.567 144.218 95.6579 144.185 95.7574 144.163C95.8577 144.14 95.9586 144.122 96.0599 144.109C96.1925 144.092 96.3 144.079 96.3824 144.07C96.4657 144.061 96.5263 144.045 96.5642 144.024C96.603 144.002 96.6224 143.964 96.6224 143.91V143.899C96.6224 143.758 96.5841 143.649 96.5074 143.572C96.4316 143.494 96.3166 143.455 96.1622 143.455C96.0022 143.455 95.8767 143.49 95.7858 143.56C95.6949 143.631 95.6309 143.705 95.594 143.785L95.2758 143.671C95.3327 143.539 95.4084 143.435 95.5031 143.362C95.5988 143.287 95.7029 143.235 95.8156 143.205C95.9292 143.175 96.041 143.16 96.1508 143.16C96.2209 143.16 96.3014 143.168 96.3923 143.185C96.4842 143.202 96.5727 143.235 96.6579 143.286C96.7441 143.337 96.8156 143.415 96.8724 143.518C96.9292 143.621 96.9577 143.759 96.9577 143.933V145.37H96.6224V145.075H96.6054C96.5827 145.122 96.5448 145.173 96.4917 145.227C96.4387 145.281 96.3682 145.327 96.2801 145.364C96.192 145.402 96.0845 145.421 95.9577 145.421ZM96.0088 145.12C96.1414 145.12 96.2531 145.094 96.344 145.042C96.4359 144.99 96.505 144.923 96.5514 144.84C96.5988 144.758 96.6224 144.671 96.6224 144.58V144.274C96.6082 144.291 96.577 144.306 96.5287 144.32C96.4813 144.334 96.4264 144.345 96.3639 144.356C96.3023 144.365 96.2422 144.374 96.1835 144.381C96.1257 144.388 96.0789 144.394 96.0429 144.399C95.9558 144.41 95.8743 144.428 95.7986 144.454C95.7238 144.479 95.6631 144.516 95.6167 144.566C95.5713 144.615 95.5486 144.683 95.5486 144.768C95.5486 144.884 95.5916 144.972 95.6778 145.032C95.7649 145.091 95.8753 145.12 96.0088 145.12ZM99.115 143.677L98.8138 143.762C98.7949 143.712 98.767 143.663 98.73 143.616C98.694 143.568 98.6448 143.528 98.5823 143.497C98.5198 143.465 98.4398 143.45 98.3422 143.45C98.2087 143.45 98.0974 143.48 98.0084 143.542C97.9204 143.603 97.8763 143.68 97.8763 143.774C97.8763 143.857 97.9066 143.923 97.9672 143.971C98.0278 144.019 98.1225 144.06 98.2513 144.092L98.5752 144.171C98.7703 144.219 98.9156 144.291 99.0113 144.389C99.1069 144.485 99.1547 144.61 99.1547 144.762C99.1547 144.887 99.1188 144.999 99.0468 145.097C98.9758 145.196 98.8763 145.274 98.7485 145.33C98.6206 145.387 98.472 145.416 98.3025 145.416C98.0799 145.416 97.8957 145.367 97.7499 145.271C97.6041 145.174 97.5117 145.033 97.4729 144.847L97.7911 144.768C97.8214 144.885 97.8787 144.973 97.963 145.032C98.0482 145.091 98.1595 145.12 98.2968 145.12C98.453 145.12 98.5771 145.087 98.6689 145.021C98.7617 144.953 98.8081 144.873 98.8081 144.779C98.8081 144.703 98.7816 144.64 98.7286 144.589C98.6756 144.537 98.5941 144.498 98.4843 144.472L98.1206 144.387C97.9208 144.34 97.7741 144.266 97.6803 144.167C97.5875 144.067 97.5411 143.941 97.5411 143.791C97.5411 143.667 97.5757 143.559 97.6448 143.464C97.7149 143.369 97.81 143.295 97.9303 143.241C98.0515 143.187 98.1888 143.16 98.3422 143.16C98.5581 143.16 98.7277 143.207 98.8508 143.302C98.9748 143.397 99.0629 143.522 99.115 143.677ZM101.205 143.677L100.904 143.762C100.885 143.712 100.857 143.663 100.82 143.616C100.784 143.568 100.735 143.528 100.672 143.497C100.61 143.465 100.53 143.45 100.432 143.45C100.299 143.45 100.187 143.48 100.098 143.542C100.01 143.603 99.9662 143.68 99.9662 143.774C99.9662 143.857 99.9965 143.923 100.057 143.971C100.118 144.019 100.212 144.06 100.341 144.092L100.665 144.171C100.86 144.219 101.005 144.291 101.101 144.389C101.197 144.485 101.245 144.61 101.245 144.762C101.245 144.887 101.209 144.999 101.137 145.097C101.066 145.196 100.966 145.274 100.838 145.33C100.71 145.387 100.562 145.416 100.392 145.416C100.17 145.416 99.9856 145.367 99.8398 145.271C99.6939 145.174 99.6016 145.033 99.5628 144.847L99.8809 144.768C99.9113 144.885 99.9685 144.973 100.053 145.032C100.138 145.091 100.249 145.12 100.387 145.12C100.543 145.12 100.667 145.087 100.759 145.021C100.852 144.953 100.898 144.873 100.898 144.779C100.898 144.703 100.871 144.64 100.818 144.589C100.765 144.537 100.684 144.498 100.574 144.472L100.21 144.387C100.011 144.34 99.8639 144.266 99.7702 144.167C99.6773 144.067 99.6309 143.941 99.6309 143.791C99.6309 143.667 99.6655 143.559 99.7346 143.464C99.8047 143.369 99.8999 143.295 100.02 143.241C100.141 143.187 100.279 143.16 100.432 143.16C100.648 143.16 100.818 143.207 100.941 143.302C101.065 143.397 101.153 143.522 101.205 143.677ZM102.244 145.37L101.579 143.188H101.931L102.403 144.859H102.425L102.891 143.188H103.249L103.709 144.853H103.732L104.204 143.188H104.556L103.891 145.37H103.562L103.084 143.694H103.05L102.573 145.37H102.244ZM105.811 145.416C105.614 145.416 105.442 145.369 105.293 145.275C105.145 145.181 105.03 145.05 104.946 144.881C104.864 144.713 104.823 144.516 104.823 144.291C104.823 144.063 104.864 143.865 104.946 143.695C105.03 143.526 105.145 143.394 105.293 143.301C105.442 143.207 105.614 143.16 105.811 143.16C106.008 143.16 106.181 143.207 106.328 143.301C106.477 143.394 106.593 143.526 106.675 143.695C106.758 143.865 106.8 144.063 106.8 144.291C106.8 144.516 106.758 144.713 106.675 144.881C106.593 145.05 106.477 145.181 106.328 145.275C106.181 145.369 106.008 145.416 105.811 145.416ZM105.811 145.114C105.961 145.114 106.084 145.076 106.181 144.999C106.277 144.923 106.349 144.822 106.395 144.697C106.442 144.572 106.465 144.436 106.465 144.291C106.465 144.145 106.442 144.009 106.395 143.883C106.349 143.757 106.277 143.655 106.181 143.578C106.084 143.5 105.961 143.461 105.811 143.461C105.662 143.461 105.539 143.5 105.442 143.578C105.345 143.655 105.274 143.757 105.228 143.883C105.181 144.009 105.158 144.145 105.158 144.291C105.158 144.436 105.181 144.572 105.228 144.697C105.274 144.822 105.345 144.923 105.442 144.999C105.539 145.076 105.662 145.114 105.811 145.114ZM92.7765 150.37V148.188H93.1004V148.518H93.1231C93.1629 148.41 93.2349 148.322 93.339 148.255C93.4432 148.188 93.5606 148.154 93.6913 148.154C93.7159 148.154 93.7467 148.155 93.7836 148.156C93.8206 148.157 93.8485 148.158 93.8675 148.16V148.501C93.8561 148.498 93.83 148.494 93.7893 148.488C93.7496 148.481 93.7074 148.478 93.6629 148.478C93.5568 148.478 93.4622 148.5 93.3788 148.545C93.2964 148.588 93.2311 148.649 93.1828 148.727C93.1354 148.803 93.1118 148.891 93.1118 148.989V150.37H92.7765ZM95.0223 150.416C94.8405 150.416 94.68 150.37 94.5407 150.278C94.4015 150.185 94.2926 150.054 94.214 149.886C94.1354 149.716 94.0961 149.516 94.0961 149.285C94.0961 149.056 94.1354 148.857 94.214 148.688C94.2926 148.52 94.402 148.39 94.5422 148.298C94.6823 148.206 94.8443 148.16 95.028 148.16C95.17 148.16 95.2822 148.184 95.3646 148.231C95.4479 148.277 95.5114 148.33 95.555 148.39C95.5995 148.449 95.634 148.497 95.6586 148.535H95.6871V147.461H96.0223V150.37H95.6984V150.035H95.6586C95.634 150.075 95.599 150.125 95.5535 150.185C95.5081 150.245 95.4432 150.299 95.3589 150.346C95.2747 150.392 95.1624 150.416 95.0223 150.416ZM95.0677 150.114C95.2022 150.114 95.3158 150.079 95.4086 150.009C95.5015 149.938 95.572 149.84 95.6203 149.715C95.6686 149.589 95.6927 149.444 95.6927 149.279C95.6927 149.116 95.6691 148.974 95.6217 148.852C95.5744 148.729 95.5043 148.633 95.4115 148.565C95.3187 148.496 95.2041 148.461 95.0677 148.461C94.9257 148.461 94.8073 148.497 94.7126 148.57C94.6189 148.642 94.5483 148.74 94.501 148.864C94.4546 148.988 94.4314 149.126 94.4314 149.279C94.4314 149.435 94.455 149.576 94.5024 149.703C94.5507 149.828 94.6217 149.929 94.7155 150.004C94.8102 150.078 94.9276 150.114 95.0677 150.114ZM97.1203 149.552V149.535C97.1222 149.354 97.1411 149.21 97.1771 149.103C97.2131 148.996 97.2642 148.909 97.3305 148.843C97.3968 148.777 97.4764 148.716 97.5692 148.66C97.625 148.626 97.6752 148.586 97.7197 148.539C97.7642 148.492 97.7993 148.437 97.8248 148.376C97.8514 148.314 97.8646 148.246 97.8646 148.171C97.8646 148.078 97.8428 147.998 97.7993 147.93C97.7557 147.862 97.6975 147.809 97.6246 147.772C97.5516 147.735 97.4707 147.717 97.3817 147.717C97.304 147.717 97.2292 147.733 97.1572 147.765C97.0853 147.797 97.0251 147.848 96.9768 147.917C96.9285 147.986 96.9006 148.077 96.893 148.188H96.5351C96.5426 148.027 96.5843 147.89 96.6601 147.775C96.7368 147.66 96.8376 147.573 96.9626 147.512C97.0886 147.452 97.2282 147.421 97.3817 147.421C97.5483 147.421 97.6932 147.454 97.8163 147.521C97.9404 147.587 98.036 147.678 98.1032 147.793C98.1714 147.909 98.2055 148.041 98.2055 148.188C98.2055 148.292 98.1894 148.387 98.1572 148.471C98.126 148.555 98.0805 148.631 98.0209 148.697C97.9622 148.763 97.8911 148.822 97.8078 148.873C97.7245 148.925 97.6577 148.98 97.6075 149.038C97.5573 149.095 97.5209 149.162 97.4981 149.241C97.4754 149.319 97.4631 149.417 97.4612 149.535V149.552H97.1203ZM97.3021 150.393C97.232 150.393 97.1719 150.368 97.1217 150.318C97.0715 150.267 97.0464 150.207 97.0464 150.137C97.0464 150.067 97.0715 150.007 97.1217 149.957C97.1719 149.907 97.232 149.881 97.3021 149.881C97.3722 149.881 97.4323 149.907 97.4825 149.957C97.5327 150.007 97.5578 150.067 97.5578 150.137C97.5578 150.184 97.546 150.226 97.5223 150.265C97.4996 150.304 97.4688 150.335 97.43 150.359C97.3921 150.381 97.3495 150.393 97.3021 150.393Z" fill="black"/>
</g>
<path d="M97.2583 131.732V125.914H97.9628V131.107H100.667V131.732H97.2583ZM103.44 131.823C103.046 131.823 102.7 131.73 102.403 131.542C102.108 131.355 101.877 131.092 101.71 130.755C101.545 130.418 101.463 130.024 101.463 129.573C101.463 129.119 101.545 128.722 101.71 128.383C101.877 128.044 102.108 127.781 102.403 127.593C102.7 127.406 103.046 127.312 103.44 127.312C103.834 127.312 104.179 127.406 104.474 127.593C104.772 127.781 105.003 128.044 105.167 128.383C105.334 128.722 105.417 129.119 105.417 129.573C105.417 130.024 105.334 130.418 105.167 130.755C105.003 131.092 104.772 131.355 104.474 131.542C104.179 131.73 103.834 131.823 103.44 131.823ZM103.44 131.221C103.739 131.221 103.986 131.144 104.179 130.991C104.372 130.838 104.515 130.636 104.608 130.386C104.7 130.136 104.747 129.865 104.747 129.573C104.747 129.282 104.7 129.01 104.608 128.758C104.515 128.506 104.372 128.302 104.179 128.147C103.986 127.992 103.739 127.914 103.44 127.914C103.141 127.914 102.895 127.992 102.701 128.147C102.508 128.302 102.365 128.506 102.272 128.758C102.18 129.01 102.133 129.282 102.133 129.573C102.133 129.865 102.18 130.136 102.272 130.386C102.365 130.636 102.508 130.838 102.701 130.991C102.895 131.144 103.141 131.221 103.44 131.221ZM98.9287 143.46C98.6048 143.46 98.3264 143.418 98.0935 143.335C97.8605 143.253 97.6664 143.145 97.5111 143.011C97.3577 142.878 97.2355 142.736 97.1446 142.585L97.6787 142.21C97.7393 142.289 97.816 142.38 97.9088 142.482C98.0016 142.587 98.1285 142.677 98.2895 142.752C98.4524 142.83 98.6655 142.869 98.9287 142.869C99.281 142.869 99.5717 142.784 99.8009 142.613C100.03 142.443 100.145 142.176 100.145 141.812V140.926H100.088C100.039 141.005 99.9685 141.104 99.8776 141.221C99.7886 141.337 99.6598 141.44 99.4912 141.531C99.3245 141.62 99.0992 141.664 98.8151 141.664C98.4628 141.664 98.1465 141.581 97.8662 141.414C97.5878 141.248 97.3672 141.005 97.2043 140.687C97.0433 140.369 96.9628 139.982 96.9628 139.528C96.9628 139.081 97.0414 138.692 97.1986 138.36C97.3558 138.027 97.5745 137.769 97.8548 137.588C98.1352 137.404 98.459 137.312 98.8264 137.312C99.1105 137.312 99.3359 137.359 99.5026 137.454C99.6711 137.547 99.7999 137.653 99.8889 137.772C99.9798 137.89 100.05 137.986 100.099 138.062H100.167V137.369H100.815V141.857C100.815 142.232 100.73 142.537 100.559 142.772C100.391 143.009 100.164 143.182 99.8776 143.292C99.5935 143.404 99.2772 143.46 98.9287 143.46ZM98.906 141.062C99.1749 141.062 99.4022 141 99.5878 140.877C99.7734 140.754 99.9145 140.577 100.011 140.346C100.108 140.115 100.156 139.838 100.156 139.517C100.156 139.202 100.109 138.925 100.014 138.684C99.9192 138.444 99.7791 138.255 99.5935 138.119C99.4079 137.982 99.1787 137.914 98.906 137.914C98.6219 137.914 98.3852 137.986 98.1958 138.13C98.0083 138.274 97.8672 138.467 97.7725 138.71C97.6797 138.952 97.6333 139.221 97.6333 139.517C97.6333 139.82 97.6806 140.088 97.7753 140.32C97.8719 140.552 98.0139 140.733 98.2014 140.866C98.3908 140.997 98.6257 141.062 98.906 141.062ZM102.042 141.732V137.369H102.713V141.732H102.042ZM102.383 136.642C102.253 136.642 102.14 136.597 102.045 136.508C101.952 136.419 101.906 136.312 101.906 136.187C101.906 136.062 101.952 135.955 102.045 135.866C102.14 135.777 102.253 135.732 102.383 135.732C102.514 135.732 102.626 135.777 102.718 135.866C102.813 135.955 102.861 136.062 102.861 136.187C102.861 136.312 102.813 136.419 102.718 136.508C102.626 136.597 102.514 136.642 102.383 136.642ZM104.611 139.107V141.732H103.941V137.369H104.589V138.051H104.645C104.748 137.829 104.903 137.651 105.111 137.517C105.32 137.38 105.589 137.312 105.918 137.312C106.214 137.312 106.472 137.373 106.694 137.494C106.915 137.613 107.088 137.795 107.211 138.039C107.334 138.282 107.395 138.588 107.395 138.96V141.732H106.725V139.005C106.725 138.662 106.636 138.395 106.458 138.204C106.28 138.011 106.035 137.914 105.725 137.914C105.511 137.914 105.32 137.961 105.151 138.053C104.984 138.146 104.853 138.282 104.756 138.46C104.66 138.638 104.611 138.854 104.611 139.107Z" fill="white"/>
<path d="M126.431 88.1309H79.7441C77.082 88.1309 74.9238 90.3792 74.9238 93.1527V93.1588C74.9238 95.9323 77.082 98.1806 79.7441 98.1806H126.431C129.093 98.1806 131.251 95.9323 131.251 93.1588V93.1527C131.251 90.3792 129.093 88.1309 126.431 88.1309Z" fill="white"/>
<path d="M126.431 102.379H79.7441C77.082 102.379 74.9238 104.627 74.9238 107.401V107.407C74.9238 110.18 77.082 112.429 79.7441 112.429H126.431C129.093 112.429 131.251 110.18 131.251 107.407V107.401C131.251 104.627 129.093 102.379 126.431 102.379Z" fill="white"/>
<g opacity="0.5">
<path d="M84.4254 92.347V95.9834H83.9993L82.0178 93.1283H81.9822V95.9834H81.5419V92.347H81.968L83.9567 95.2093H83.9922V92.347H84.4254ZM86.0523 96.0473C85.8795 96.0473 85.7226 96.0148 85.5818 95.9497C85.4409 95.8834 85.329 95.7881 85.2462 95.6638C85.1633 95.5383 85.1219 95.3868 85.1219 95.2093C85.1219 95.053 85.1527 94.9263 85.2142 94.8293C85.2758 94.731 85.358 94.6541 85.461 94.5985C85.564 94.5428 85.6776 94.5014 85.8019 94.4742C85.9274 94.4458 86.0535 94.4233 86.1801 94.4067C86.3459 94.3854 86.4802 94.3694 86.5832 94.3588C86.6874 94.3469 86.7631 94.3274 86.8105 94.3002C86.859 94.2729 86.8833 94.2256 86.8833 94.1581V94.1439C86.8833 93.9687 86.8353 93.8326 86.7394 93.7355C86.6447 93.6385 86.5009 93.5899 86.308 93.5899C86.1079 93.5899 85.9511 93.6337 85.8374 93.7213C85.7238 93.8089 85.6439 93.9024 85.5977 94.0019L85.2 93.8598C85.271 93.6941 85.3657 93.5651 85.4841 93.4727C85.6037 93.3792 85.7339 93.3141 85.8747 93.2774C86.0168 93.2396 86.1565 93.2206 86.2938 93.2206C86.3814 93.2206 86.482 93.2313 86.5956 93.2526C86.7104 93.2727 86.8211 93.3147 86.9276 93.3786C87.0354 93.4426 87.1247 93.539 87.1958 93.6681C87.2668 93.7971 87.3023 93.9699 87.3023 94.1865V95.9834H86.8833V95.6141H86.8619C86.8335 95.6733 86.7862 95.7366 86.7199 95.8041C86.6536 95.8715 86.5654 95.9289 86.4553 95.9763C86.3453 96.0236 86.2109 96.0473 86.0523 96.0473ZM86.1162 95.6709C86.2819 95.6709 86.4216 95.6383 86.5352 95.5732C86.6501 95.5081 86.7365 95.4241 86.7945 95.3211C86.8537 95.2181 86.8833 95.1098 86.8833 94.9962V94.6127C86.8655 94.634 86.8264 94.6535 86.7661 94.6713C86.7069 94.6878 86.6382 94.7026 86.5601 94.7156C86.4832 94.7275 86.408 94.7381 86.3346 94.7476C86.2624 94.7559 86.2038 94.763 86.1588 94.7689C86.0499 94.7831 85.9481 94.8062 85.8534 94.8382C85.7599 94.8689 85.6842 94.9157 85.6262 94.9784C85.5693 95.04 85.5409 95.124 85.5409 95.2306C85.5409 95.3762 85.5948 95.4862 85.7025 95.5608C85.8114 95.6342 85.9493 95.6709 86.1162 95.6709ZM88.0671 95.9834V93.2561H88.4719V93.6823H88.5075C88.5643 93.5367 88.656 93.4236 88.7827 93.3431C88.9093 93.2615 89.0614 93.2206 89.239 93.2206C89.4189 93.2206 89.5687 93.2615 89.6882 93.3431C89.8089 93.4236 89.9031 93.5367 89.9705 93.6823H89.9989C90.0688 93.5414 90.1735 93.4295 90.3132 93.3467C90.4529 93.2626 90.6204 93.2206 90.8157 93.2206C91.0595 93.2206 91.259 93.297 91.4141 93.4497C91.5691 93.6012 91.6467 93.8373 91.6467 94.1581V95.9834H91.2276V94.1581C91.2276 93.9569 91.1726 93.8131 91.0625 93.7267C90.9524 93.6402 90.8228 93.597 90.6737 93.597C90.4819 93.597 90.3333 93.655 90.228 93.771C90.1226 93.8859 90.07 94.0315 90.07 94.2078V95.9834H89.6438V94.1155C89.6438 93.9604 89.5935 93.8356 89.4929 93.7409C89.3923 93.645 89.2627 93.597 89.104 93.597C88.9951 93.597 88.8933 93.626 88.7987 93.684C88.7051 93.742 88.6294 93.8225 88.5714 93.9255C88.5146 94.0273 88.4862 94.1451 88.4862 94.2789V95.9834H88.0671ZM93.5563 96.0402C93.2935 96.0402 93.0668 95.9822 92.8762 95.8662C92.6868 95.749 92.5407 95.5857 92.4377 95.3762C92.3359 95.1655 92.285 94.9204 92.285 94.6411C92.285 94.3617 92.3359 94.1155 92.4377 93.9024C92.5407 93.6882 92.6839 93.5213 92.8674 93.4017C93.052 93.281 93.2675 93.2206 93.5137 93.2206C93.6557 93.2206 93.796 93.2443 93.9345 93.2916C94.073 93.339 94.199 93.4159 94.3127 93.5225C94.4263 93.6278 94.5169 93.7675 94.5843 93.9415C94.6518 94.1155 94.6855 94.3298 94.6855 94.5843V94.7618H92.5833V94.3996H94.2594C94.2594 94.2457 94.2286 94.1084 94.1671 93.9877C94.1067 93.8669 94.0203 93.7716 93.9078 93.7018C93.7966 93.632 93.6652 93.597 93.5137 93.597C93.3468 93.597 93.2024 93.6385 93.0804 93.7213C92.9597 93.803 92.8668 93.9095 92.8017 94.0409C92.7366 94.1723 92.704 94.3132 92.704 94.4635V94.705C92.704 94.911 92.7395 95.0856 92.8105 95.2288C92.8828 95.3708 92.9828 95.4791 93.1106 95.5537C93.2385 95.6271 93.387 95.6638 93.5563 95.6638C93.6664 95.6638 93.7658 95.6484 93.8546 95.6176C93.9445 95.5857 94.0221 95.5383 94.0872 95.4756C94.1523 95.4117 94.2026 95.3324 94.2381 95.2377L94.6429 95.3513C94.6003 95.4886 94.5287 95.6093 94.4281 95.7135C94.3275 95.8165 94.2032 95.897 94.0552 95.955C93.9073 96.0118 93.7409 96.0402 93.5563 96.0402ZM97.4181 96.9422C97.0559 96.9422 96.7357 96.8925 96.4576 96.7931C96.1794 96.6948 95.9456 96.5498 95.7562 96.358C95.5668 96.1663 95.4236 95.9313 95.3265 95.6531C95.2295 95.375 95.1809 95.0566 95.1809 94.6979C95.1809 94.3511 95.2301 94.0409 95.3283 93.7675C95.4277 93.4941 95.5716 93.262 95.7598 93.0715C95.9492 92.8797 96.1788 92.7335 96.4487 92.6329C96.7198 92.5323 97.0263 92.482 97.3684 92.482C97.7011 92.482 97.9922 92.5364 98.242 92.6453C98.493 92.753 98.7025 92.8992 98.8706 93.0839C99.0398 93.2674 99.1665 93.4739 99.2505 93.7036C99.3358 93.9332 99.3784 94.17 99.3784 94.4138C99.3784 94.5854 99.3701 94.7594 99.3535 94.9358C99.3369 95.1122 99.302 95.2744 99.2488 95.4223C99.1955 95.5691 99.1132 95.6875 99.002 95.7774C98.8919 95.8674 98.7427 95.9124 98.5545 95.9124C98.4717 95.9124 98.3805 95.8994 98.2811 95.8733C98.1816 95.8473 98.0935 95.8041 98.0165 95.7437C97.9396 95.6833 97.894 95.6022 97.8798 95.5004H97.8585C97.8301 95.5691 97.7863 95.6342 97.7271 95.6958C97.6691 95.7573 97.5927 95.8064 97.498 95.8431C97.4045 95.8798 97.2903 95.8958 97.1554 95.8911C97.0015 95.8852 96.8659 95.8508 96.7488 95.7881C96.6316 95.7242 96.5333 95.6378 96.454 95.5289C96.3759 95.4188 96.3167 95.2915 96.2765 95.1471C96.2374 95.0015 96.2179 94.8447 96.2179 94.6766C96.2179 94.5168 96.2415 94.3706 96.2889 94.238C96.3362 94.1054 96.4019 93.9894 96.486 93.89C96.5712 93.7906 96.6706 93.7113 96.7843 93.6521C96.8991 93.5917 97.0228 93.5544 97.1554 93.5402C97.2737 93.5284 97.3815 93.5337 97.4785 93.5562C97.5756 93.5775 97.6555 93.6101 97.7182 93.6539C97.781 93.6965 97.8206 93.7438 97.8372 93.7959H97.8585V93.597H98.2349V95.2021C98.2349 95.3016 98.2627 95.3892 98.3184 95.4649C98.374 95.5407 98.4551 95.5786 98.5616 95.5786C98.6824 95.5786 98.7747 95.5371 98.8386 95.4543C98.9037 95.3714 98.9481 95.2436 98.9718 95.0708C98.9966 94.8979 99.0091 94.6766 99.0091 94.4067C99.0091 94.2481 98.9872 94.0918 98.9434 93.9379C98.9007 93.7829 98.8356 93.6379 98.748 93.5029C98.6616 93.368 98.5521 93.249 98.4196 93.146C98.287 93.0431 98.1313 92.9626 97.9526 92.9046C97.775 92.8454 97.5732 92.8158 97.3471 92.8158C97.069 92.8158 96.8198 92.859 96.5996 92.9454C96.3806 93.0306 96.1942 93.1555 96.0403 93.32C95.8876 93.4834 95.771 93.6823 95.6905 93.9166C95.6112 94.1498 95.5716 94.415 95.5716 94.7121C95.5716 95.0139 95.6112 95.282 95.6905 95.5164C95.771 95.7508 95.8894 95.9485 96.0456 96.1095C96.2031 96.2704 96.3978 96.3924 96.6298 96.4752C96.8618 96.5593 97.1293 96.6013 97.4324 96.6013C97.5626 96.6013 97.691 96.5889 97.8176 96.564C97.9443 96.5392 98.0562 96.5119 98.1532 96.4823C98.2503 96.4527 98.3201 96.4308 98.3627 96.4166L98.4622 96.7433C98.3888 96.7741 98.2929 96.8049 98.1745 96.8357C98.0574 96.8664 97.9319 96.8919 97.7981 96.912C97.6655 96.9321 97.5389 96.9422 97.4181 96.9422ZM97.2122 95.5289C97.3708 95.5289 97.4992 95.4969 97.5975 95.433C97.6957 95.3691 97.7673 95.2726 97.8123 95.1436C97.8573 95.0145 97.8798 94.8518 97.8798 94.6553C97.8798 94.4564 97.8549 94.3013 97.8052 94.1901C97.7555 94.0788 97.6821 94.0007 97.585 93.9557C97.488 93.9107 97.3684 93.8882 97.2264 93.8882C97.0914 93.8882 96.976 93.9237 96.8801 93.9948C96.7855 94.0646 96.7127 94.1581 96.6618 94.2753C96.612 94.3913 96.5872 94.518 96.5872 94.6553C96.5872 94.8068 96.6073 94.9494 96.6475 95.0832C96.6878 95.2158 96.7535 95.3235 96.8446 95.4063C96.9358 95.488 97.0583 95.5289 97.2122 95.5289ZM100.006 95.9834V93.2561H100.41V93.6823H100.446C100.503 93.5367 100.594 93.4236 100.721 93.3431C100.848 93.2615 101 93.2206 101.177 93.2206C101.357 93.2206 101.507 93.2615 101.627 93.3431C101.747 93.4236 101.842 93.5367 101.909 93.6823H101.937C102.007 93.5414 102.112 93.4295 102.252 93.3467C102.391 93.2626 102.559 93.2206 102.754 93.2206C102.998 93.2206 103.197 93.297 103.353 93.4497C103.508 93.6012 103.585 93.8373 103.585 94.1581V95.9834H103.166V94.1581C103.166 93.9569 103.111 93.8131 103.001 93.7267C102.891 93.6402 102.761 93.597 102.612 93.597C102.42 93.597 102.272 93.655 102.166 93.771C102.061 93.8859 102.008 94.0315 102.008 94.2078V95.9834H101.582V94.1155C101.582 93.9604 101.532 93.8356 101.431 93.7409C101.331 93.645 101.201 93.597 101.043 93.597C100.934 93.597 100.832 93.626 100.737 93.684C100.644 93.742 100.568 93.8225 100.51 93.9255C100.453 94.0273 100.425 94.1451 100.425 94.2789V95.9834H100.006ZM82.2876 102.047C82.1148 102.047 81.958 102.015 81.8171 101.95C81.6763 101.883 81.5644 101.788 81.4815 101.664C81.3987 101.538 81.3572 101.387 81.3572 101.209C81.3572 101.053 81.388 100.926 81.4496 100.829C81.5111 100.731 81.5934 100.654 81.6964 100.598C81.7994 100.543 81.913 100.501 82.0373 100.474C82.1628 100.446 82.2888 100.423 82.4155 100.407C82.5812 100.385 82.7156 100.369 82.8185 100.359C82.9227 100.347 82.9985 100.327 83.0458 100.3C83.0943 100.273 83.1186 100.226 83.1186 100.158V100.144C83.1186 99.9687 83.0707 99.8326 82.9748 99.7355C82.8801 99.6385 82.7363 99.5899 82.5433 99.5899C82.3433 99.5899 82.1864 99.6337 82.0728 99.7213C81.9592 99.8089 81.8793 99.9024 81.8331 100.002L81.4354 99.8598C81.5064 99.6941 81.6011 99.5651 81.7195 99.4727C81.839 99.3792 81.9692 99.3141 82.1101 99.2774C82.2521 99.2396 82.3918 99.2206 82.5291 99.2206C82.6167 99.2206 82.7173 99.2313 82.831 99.2526C82.9458 99.2727 83.0565 99.3147 83.163 99.3786C83.2707 99.4426 83.3601 99.539 83.4311 99.6681C83.5021 99.7971 83.5376 99.9699 83.5376 100.187V101.983H83.1186V101.614H83.0973C83.0689 101.673 83.0215 101.737 82.9553 101.804C82.889 101.872 82.8008 101.929 82.6907 101.976C82.5806 102.024 82.4463 102.047 82.2876 102.047ZM82.3516 101.671C82.5173 101.671 82.657 101.638 82.7706 101.573C82.8854 101.508 82.9718 101.424 83.0298 101.321C83.089 101.218 83.1186 101.11 83.1186 100.996V100.613C83.1009 100.634 83.0618 100.653 83.0014 100.671C82.9422 100.688 82.8736 100.703 82.7955 100.716C82.7185 100.727 82.6433 100.738 82.57 100.748C82.4978 100.756 82.4392 100.763 82.3942 100.769C82.2853 100.783 82.1835 100.806 82.0888 100.838C81.9953 100.869 81.9195 100.916 81.8615 100.978C81.8047 101.04 81.7763 101.124 81.7763 101.231C81.7763 101.376 81.8301 101.486 81.9379 101.561C82.0468 101.634 82.1847 101.671 82.3516 101.671ZM84.3025 101.983V99.2561H84.7215V101.983H84.3025ZM84.5155 98.8016C84.4339 98.8016 84.3634 98.7738 84.3042 98.7181C84.2462 98.6625 84.2172 98.5956 84.2172 98.5175C84.2172 98.4394 84.2462 98.3725 84.3042 98.3169C84.3634 98.2612 84.4339 98.2334 84.5155 98.2334C84.5972 98.2334 84.6671 98.2612 84.7251 98.3169C84.7842 98.3725 84.8138 98.4394 84.8138 98.5175C84.8138 98.5956 84.7842 98.6625 84.7251 98.7181C84.6671 98.7738 84.5972 98.8016 84.5155 98.8016ZM85.908 98.347V101.983H85.489V98.347H85.908ZM86.9809 102.012C86.8933 102.012 86.8182 101.98 86.7554 101.918C86.6927 101.855 86.6613 101.78 86.6613 101.692C86.6613 101.605 86.6927 101.529 86.7554 101.467C86.8182 101.404 86.8933 101.373 86.9809 101.373C87.0685 101.373 87.1437 101.404 87.2064 101.467C87.2691 101.529 87.3005 101.605 87.3005 101.692C87.3005 101.75 87.2857 101.803 87.2561 101.852C87.2277 101.901 87.1892 101.94 87.1407 101.969C87.0934 101.998 87.0401 102.012 86.9809 102.012ZM89.1604 102.04C88.9047 102.04 88.6846 101.98 88.4999 101.859C88.3153 101.738 88.1732 101.572 88.0738 101.36C87.9743 101.148 87.9246 100.906 87.9246 100.634C87.9246 100.357 87.9755 100.113 88.0773 99.9007C88.1803 99.6876 88.3235 99.5213 88.507 99.4017C88.6917 99.281 88.9071 99.2206 89.1533 99.2206C89.3451 99.2206 89.5179 99.2561 89.6718 99.3271C89.8257 99.3982 89.9517 99.4976 90.05 99.6254C90.1482 99.7533 90.2092 99.9024 90.2329 100.073H89.8138C89.7819 99.9486 89.7108 99.8385 89.6008 99.7426C89.4919 99.6456 89.3451 99.597 89.1604 99.597C88.9971 99.597 88.8538 99.6396 88.7307 99.7249C88.6088 99.8089 88.5135 99.9279 88.4449 100.082C88.3774 100.234 88.3437 100.414 88.3437 100.62C88.3437 100.83 88.3768 101.014 88.4431 101.17C88.5106 101.326 88.6053 101.448 88.7272 101.534C88.8503 101.621 88.9947 101.664 89.1604 101.664C89.2693 101.664 89.3682 101.645 89.4569 101.607C89.5457 101.569 89.6209 101.515 89.6824 101.444C89.744 101.373 89.7878 101.287 89.8138 101.188H90.2329C90.2092 101.349 90.1506 101.494 90.0571 101.623C89.9648 101.751 89.8422 101.853 89.6895 101.928C89.538 102.003 89.3617 102.04 89.1604 102.04ZM91.9534 102.04C91.7072 102.04 91.4912 101.982 91.3053 101.864C91.1206 101.747 90.9762 101.583 90.8721 101.373C90.7691 101.162 90.7176 100.916 90.7176 100.634C90.7176 100.35 90.7691 100.102 90.8721 99.89C90.9762 99.6781 91.1206 99.5136 91.3053 99.3964C91.4912 99.2792 91.7072 99.2206 91.9534 99.2206C92.1996 99.2206 92.415 99.2792 92.5997 99.3964C92.7855 99.5136 92.93 99.6781 93.0329 99.89C93.1371 100.102 93.1892 100.35 93.1892 100.634C93.1892 100.916 93.1371 101.162 93.0329 101.373C92.93 101.583 92.7855 101.747 92.5997 101.864C92.415 101.982 92.1996 102.04 91.9534 102.04ZM91.9534 101.664C92.1404 101.664 92.2943 101.616 92.415 101.52C92.5358 101.424 92.6251 101.298 92.6831 101.142C92.7412 100.986 92.7702 100.816 92.7702 100.634C92.7702 100.452 92.7412 100.282 92.6831 100.124C92.6251 99.9669 92.5358 99.8397 92.415 99.7426C92.2943 99.6456 92.1404 99.597 91.9534 99.597C91.7664 99.597 91.6125 99.6456 91.4917 99.7426C91.371 99.8397 91.2816 99.9669 91.2236 100.124C91.1656 100.282 91.1366 100.452 91.1366 100.634C91.1366 100.816 91.1656 100.986 91.2236 101.142C91.2816 101.298 91.371 101.424 91.4917 101.52C91.6125 101.616 91.7664 101.664 91.9534 101.664ZM93.8288 101.983V99.2561H94.2337V99.6823H94.2692C94.326 99.5367 94.4177 99.4236 94.5444 99.3431C94.671 99.2615 94.8232 99.2206 95.0007 99.2206C95.1806 99.2206 95.3304 99.2615 95.4499 99.3431C95.5707 99.4236 95.6648 99.5367 95.7322 99.6823H95.7607C95.8305 99.5414 95.9353 99.4295 96.0749 99.3467C96.2146 99.2626 96.3821 99.2206 96.5774 99.2206C96.8213 99.2206 97.0207 99.297 97.1758 99.4497C97.3308 99.6012 97.4084 99.8373 97.4084 100.158V101.983H96.9893V100.158C96.9893 99.9569 96.9343 99.8131 96.8242 99.7267C96.7141 99.6402 96.5845 99.597 96.4354 99.597C96.2436 99.597 96.0951 99.655 95.9897 99.771C95.8844 99.8859 95.8317 100.031 95.8317 100.208V101.983H95.4055V100.116C95.4055 99.9604 95.3552 99.8356 95.2546 99.7409C95.154 99.645 95.0244 99.597 94.8658 99.597C94.7569 99.597 94.6551 99.626 94.5604 99.684C94.4669 99.742 94.3911 99.8225 94.3331 99.9255C94.2763 100.027 94.2479 100.145 94.2479 100.279V101.983H93.8288Z" fill="black"/>
</g>
<path d="M82.6119 110.606L82.6517 109.512L81.727 110.099L81.4884 109.681L82.4628 109.174L81.4884 108.667L81.727 108.249L82.6517 108.836L82.6119 107.742H83.0892L83.0494 108.836L83.9742 108.249L84.2128 108.667L83.2384 109.174L84.2128 109.681L83.9742 110.099L83.0494 109.512L83.0892 110.606H82.6119ZM86.1119 110.606L86.1517 109.512L85.227 110.099L84.9884 109.681L85.9628 109.174L84.9884 108.667L85.227 108.249L86.1517 108.836L86.1119 107.742H86.5892L86.5494 108.836L87.4742 108.249L87.7128 108.667L86.7384 109.174L87.7128 109.681L87.4742 110.099L86.5494 109.512L86.5892 110.606H86.1119ZM89.6119 110.606L89.6517 109.512L88.727 110.099L88.4884 109.681L89.4628 109.174L88.4884 108.667L88.727 108.249L89.6517 108.836L89.6119 107.742H90.0892L90.0494 108.836L90.9742 108.249L91.2128 108.667L90.2384 109.174L91.2128 109.681L90.9742 110.099L90.0494 109.512L90.0892 110.606H89.6119ZM93.1119 110.606L93.1517 109.512L92.227 110.099L91.9884 109.681L92.9628 109.174L91.9884 108.667L92.227 108.249L93.1517 108.836L93.1119 107.742H93.5892L93.5494 108.836L94.4742 108.249L94.7128 108.667L93.7384 109.174L94.7128 109.681L94.4742 110.099L93.5494 109.512L93.5892 110.606H93.1119ZM82.6119 118.606L82.6517 117.512L81.727 118.099L81.4884 117.681L82.4628 117.174L81.4884 116.667L81.727 116.249L82.6517 116.836L82.6119 115.742H83.0892L83.0494 116.836L83.9742 116.249L84.2128 116.667L83.2384 117.174L84.2128 117.681L83.9742 118.099L83.0494 117.512L83.0892 118.606H82.6119ZM86.1119 118.606L86.1517 117.512L85.227 118.099L84.9884 117.681L85.9628 117.174L84.9884 116.667L85.227 116.249L86.1517 116.836L86.1119 115.742H86.5892L86.5494 116.836L87.4742 116.249L87.7128 116.667L86.7384 117.174L87.7128 117.681L87.4742 118.099L86.5494 117.512L86.5892 118.606H86.1119ZM89.6119 118.606L89.6517 117.512L88.727 118.099L88.4884 117.681L89.4628 117.174L88.4884 116.667L88.727 116.249L89.6517 116.836L89.6119 115.742H90.0892L90.0494 116.836L90.9742 116.249L91.2128 116.667L90.2384 117.174L91.2128 117.681L90.9742 118.099L90.0494 117.512L90.0892 118.606H89.6119Z" fill="black"/>
<path opacity="0.2" d="M121.339 90.793V95.5136H127.758V90.793H121.339ZM126.708 91.3093L124.548 92.846L122.383 91.3093H126.708ZM121.829 94.9973V91.5367L124.548 93.4668L127.262 91.5367V94.9973H121.829Z" fill="black"/>
<g opacity="0.2">
<path d="M126.063 106.62V106.048C126.062 105.702 125.929 105.37 125.694 105.125C125.458 104.879 125.139 104.741 124.807 104.739H124.122C123.789 104.741 123.471 104.879 123.235 105.125C123 105.37 122.867 105.702 122.866 106.048V106.62H121.833V110.548H127.255V106.62H126.063ZM123.361 106.048C123.361 105.838 123.441 105.637 123.584 105.488C123.727 105.339 123.92 105.256 124.122 105.256H124.807C125.008 105.256 125.202 105.339 125.345 105.488C125.488 105.637 125.568 105.838 125.568 106.048V106.62H123.361V106.048ZM126.765 110.032H122.329V107.136H126.765V110.032Z" fill="black"/>
<path d="M124.406 108.741V109.208H124.689V108.741C124.731 108.716 124.765 108.68 124.789 108.637C124.813 108.594 124.825 108.545 124.825 108.495C124.831 108.453 124.828 108.41 124.817 108.37C124.805 108.329 124.786 108.291 124.759 108.259C124.733 108.227 124.7 108.202 124.663 108.184C124.626 108.166 124.586 108.157 124.545 108.157C124.504 108.157 124.464 108.166 124.427 108.184C124.39 108.202 124.357 108.227 124.331 108.259C124.304 108.291 124.284 108.329 124.273 108.37C124.262 108.41 124.259 108.453 124.265 108.495C124.266 108.545 124.279 108.594 124.304 108.637C124.329 108.68 124.364 108.716 124.406 108.741Z" fill="black"/>
</g>
<path d="M207.479 55.7197H190.528C189.143 55.7197 187.815 56.2929 186.836 57.313C185.857 58.3332 185.307 59.7168 185.307 61.1595V76.5262C185.307 77.9689 185.857 79.3525 186.836 80.3727C187.815 81.3928 189.143 81.966 190.528 81.966H197.231L199.001 86.8157L200.771 81.966H207.473C208.158 81.966 208.837 81.8252 209.47 81.5518C210.103 81.2783 210.679 80.8775 211.163 80.3723C211.647 79.8671 212.031 79.2674 212.293 78.6074C212.555 77.9475 212.689 77.2403 212.689 76.5262V61.1595C212.689 60.446 212.555 59.7392 212.294 59.0797C212.032 58.4201 211.649 57.8207 211.165 57.3156C210.681 56.8104 210.107 56.4095 209.474 56.1357C208.842 55.8619 208.164 55.7205 207.479 55.7197Z" fill="#CFD8DC"/>
<path opacity="0.7" d="M207.479 55.7197H190.528C189.143 55.7197 187.815 56.2929 186.836 57.313C185.857 58.3332 185.307 59.7168 185.307 61.1595V76.5262C185.307 77.9689 185.857 79.3525 186.836 80.3727C187.815 81.3928 189.143 81.966 190.528 81.966H197.231L199.001 86.8157L200.771 81.966H207.473C208.158 81.966 208.837 81.8252 209.47 81.5518C210.103 81.2783 210.679 80.8775 211.163 80.3723C211.647 79.8671 212.031 79.2674 212.293 78.6074C212.555 77.9475 212.689 77.2403 212.689 76.5262V61.1595C212.689 60.446 212.555 59.7392 212.294 59.0797C212.032 58.4201 211.649 57.8207 211.165 57.3156C210.681 56.8104 210.107 56.4095 209.474 56.1357C208.842 55.8619 208.164 55.7205 207.479 55.7197Z" fill="white"/>
<path d="M198.12 72.6902C198.008 72.6905 197.897 72.6654 197.795 72.6165C197.694 72.5677 197.603 72.4964 197.53 72.4075L194.226 68.3568C194.093 68.1938 194.028 67.9824 194.045 67.7692C194.061 67.5559 194.158 67.3583 194.315 67.2197C194.471 67.0811 194.674 67.013 194.879 67.0303C195.084 67.0476 195.273 67.1489 195.406 67.3119L198.12 70.6434L202.598 65.1114C202.731 64.9484 202.921 64.8471 203.126 64.8298C203.331 64.8125 203.533 64.8806 203.69 65.0192C203.846 65.1578 203.944 65.3554 203.96 65.5687C203.977 65.7819 203.911 65.9933 203.778 66.1563L198.71 72.4075C198.637 72.4958 198.547 72.5667 198.445 72.6154C198.343 72.6642 198.232 72.6897 198.12 72.6902Z" fill="white"/>
<path d="M204.949 74.9723C208.235 71.5493 208.235 65.9995 204.949 62.5765C201.663 59.1535 196.336 59.1535 193.051 62.5765C189.765 65.9995 189.765 71.5493 193.051 74.9723C196.336 78.3953 201.663 78.3953 204.949 74.9723Z" fill="#CFD8DC"/>
<path d="M230.506 222.356H234.4L226.435 175.524H222.541L230.506 222.356Z" fill="#263238"/>
<path d="M144.862 222.356H148.762L140.797 175.524H136.897L144.862 222.356Z" fill="#263238"/>
<path opacity="0.3" d="M230.506 222.356H234.4L226.435 175.524H222.541L230.506 222.356Z" fill="white"/>
<path opacity="0.3" d="M144.862 222.356H148.762L140.797 175.524H136.897L144.862 222.356Z" fill="white"/>
<path d="M110.973 203.049L228.472 203.049V198.937L110.973 198.937V203.049Z" fill="#263238"/>
<path opacity="0.5" d="M110.973 203.049L228.472 203.049V198.937L110.973 198.937V203.049Z" fill="white"/>
<path d="M194.576 222.356H190.682L198.647 175.524H202.541L194.576 222.356Z" fill="#263238"/>
<path d="M108.937 222.356H105.037L113.002 175.524H116.902L108.937 222.356Z" fill="#263238"/>
<path opacity="0.3" d="M194.576 222.356H190.682L198.647 175.524H202.541L194.576 222.356Z" fill="white"/>
<path opacity="0.3" d="M108.937 222.356H105.037L113.002 175.524H116.902L108.937 222.356Z" fill="white"/>
<path d="M144.266 173.699H148.142L154.632 136.112H150.756L144.266 173.699Z" fill="#263238"/>
<path opacity="0.3" d="M144.266 173.699H148.142L154.632 136.112H150.756L144.266 173.699Z" fill="white"/>
<path d="M221.257 173.699H225.133L231.623 136.112H227.747L221.257 173.699Z" fill="#263238"/>
<path d="M182.758 173.699H186.634L193.124 136.112H189.248L182.758 173.699Z" fill="#263238"/>
<path opacity="0.3" d="M221.257 173.699H225.133L231.623 136.112H227.747L221.257 173.699Z" fill="white"/>
<path opacity="0.3" d="M182.758 173.699H186.634L193.124 136.112H189.248L182.758 173.699Z" fill="white"/>
<path d="M137.57 138.681H239.387L240.602 131.649H138.786L137.57 138.681Z" fill="#263238"/>
<path d="M135.375 151.405H237.191L238.407 144.373H136.59L135.375 151.405Z" fill="#263238"/>
<path d="M133.175 164.128H234.991L236.207 157.097H134.39L133.175 164.128Z" fill="#263238"/>
<path d="M104.224 177.46L233.982 177.46V172.592L104.224 172.592V177.46Z" fill="#263238"/>
<path opacity="0.5" d="M137.57 138.681H239.387L240.602 131.649H138.786L137.57 138.681Z" fill="white"/>
<path opacity="0.5" d="M135.375 151.405H237.191L238.407 144.373H136.59L135.375 151.405Z" fill="white"/>
<path opacity="0.5" d="M133.175 164.128H234.991L236.207 157.097H134.39L133.175 164.128Z" fill="white"/>
<path opacity="0.5" d="M104.224 177.46L233.982 177.46V172.592L104.224 172.592V177.46Z" fill="white"/>
<path opacity="0.2" d="M104.222 177.46H202.121V172.592H104.222V177.46Z" fill="white"/>
<path d="M192.097 122.448C189.353 125.466 182.775 132.861 178.704 132.731C174.408 132.252 169.606 125.355 167.317 121.864C167.129 121.555 167.053 121.186 167.103 120.824C167.153 120.461 167.325 120.13 167.589 119.888C167.853 119.646 168.191 119.511 168.542 119.506C168.894 119.501 169.235 119.626 169.505 119.86C172.302 122.282 176.267 126.075 178.904 127.181C178.503 127.181 178.426 127.267 178.792 127.027C182.108 124.569 184.91 121.237 187.79 118.25C190.533 115.465 194.58 119.406 192.097 122.448Z" fill="#E9B376"/>
<path d="M190.599 116.94V125.749C190.599 125.749 188.829 127.298 186.617 129.006C185.519 129.861 184.321 130.752 183.2 131.508C181.495 132.664 179.961 133.512 179.183 133.463C176.858 133.315 171.813 129.56 171.813 129.56L175.129 123.806C175.129 123.806 178.941 126.234 179.183 126.4C179.424 126.566 187.419 116.996 190.599 116.94Z" fill="#CFD8DC"/>
<path opacity="0.2" d="M186.616 129.006C185.519 129.86 184.321 130.752 183.2 131.508C183.466 126.455 185.749 124.513 185.749 124.513C186.415 125.904 186.715 127.455 186.616 129.006Z" fill="black"/>
<path d="M193.82 93.7796C189.749 97.2402 190.233 107.198 194.805 113.732C194.805 113.732 204.576 114.586 210.004 112.054C215.432 109.521 209.414 93.3985 203.696 92.1323C200.323 91.3631 196.795 91.9516 193.82 93.7796Z" fill="#263238"/>
<path d="M194.062 104.125C192.57 101.445 191.112 94.21 197.29 91.9788C205.036 89.1882 208.5 94.333 209.178 99.4347C209.857 104.536 207.089 108.39 201.968 108.009C196.847 107.628 195.089 105.981 194.062 104.125Z" fill="#263238"/>
<path d="M185.743 124.514C184.988 128.245 186.333 137.034 186.533 143.66L204.776 145.849C204.776 143.771 205.148 140.759 206.34 135.971C207.018 133.168 207.998 129.75 209.337 125.558C209.532 124.944 209.738 124.329 209.927 123.647C210.167 122.989 210.263 122.284 210.208 121.583C210.153 120.881 209.948 120.202 209.609 119.593C209.27 118.985 208.805 118.463 208.247 118.066C207.69 117.669 207.054 117.406 206.387 117.297C205.62 117.168 204.806 117.058 203.974 116.972C201.039 116.588 198.081 116.425 195.124 116.486C194.162 116.517 193.159 116.59 192.203 116.677C188.799 116.978 186.439 121.022 185.743 124.514Z" fill="#263238"/>
<path d="M203.886 106.59C202.971 109.503 201.75 114.869 203.496 116.941C203.496 116.941 200.829 116.375 194.935 119.731C193.407 117.174 194.676 116.455 194.676 116.455C197.938 115.841 198.151 113.382 197.885 111.089L203.886 106.59Z" fill="#EBB376"/>
<path opacity="0.2" d="M201.442 108.421L197.902 111.082C197.973 111.626 197.996 112.175 197.973 112.724C199.206 112.607 201.035 111.322 201.324 110.019C201.457 109.498 201.497 108.957 201.442 108.421Z" fill="black"/>
<path d="M205.108 99.7853C205.173 104.647 205.297 106.706 203.126 109.374C199.869 113.388 194.116 112.404 192.659 107.659C191.349 103.356 191.479 96.1465 195.88 93.8661C196.851 93.3593 197.929 93.1191 199.014 93.1684C200.098 93.2177 201.153 93.5548 202.077 94.1477C203.001 94.7406 203.765 95.5697 204.295 96.5564C204.826 97.543 205.106 98.6544 205.108 99.7853Z" fill="#FFB573"/>
<path d="M201.149 95.2367C199.856 96.927 202.801 102.25 205.125 103.154C209.639 101.605 205.013 90.1903 201.149 95.2367Z" fill="#263238"/>
<path d="M195.62 92.968C193.903 93.7548 192.292 97.117 192.08 98.3709C194.635 98.5737 201.213 95.5004 201.213 95.5004C201.213 95.5004 205.845 96.3855 203.355 94.2096C200.865 92.0337 195.62 92.968 195.62 92.968Z" fill="#263238"/>
<path d="M197.343 101.765C197.343 102.158 197.196 102.49 196.948 102.515C196.7 102.539 196.476 102.226 196.446 101.832C196.417 101.439 196.6 101.107 196.848 101.082C197.095 101.058 197.314 101.371 197.343 101.765Z" fill="#263238"/>
<path d="M193.066 102.096C193.066 102.489 192.918 102.827 192.671 102.846C192.423 102.864 192.199 102.563 192.169 102.17C192.14 101.776 192.323 101.438 192.57 101.42C192.818 101.401 193.036 101.702 193.066 102.096Z" fill="#263238"/>
<path d="M192.676 101.42L191.75 101.217C191.75 101.217 192.269 101.93 192.676 101.42Z" fill="#263238"/>
<path d="M194.882 102.588C194.603 103.514 194.206 104.397 193.702 105.213C193.906 105.34 194.134 105.42 194.37 105.446C194.607 105.473 194.846 105.445 195.071 105.366L194.882 102.588Z" fill="#ED893E"/>
<path d="M197.255 106.749C197.072 106.794 196.887 106.825 196.7 106.841C196.67 106.841 196.642 106.829 196.621 106.807C196.6 106.785 196.588 106.756 196.588 106.725C196.588 106.694 196.6 106.664 196.621 106.642C196.642 106.62 196.67 106.608 196.7 106.608C197.173 106.583 197.633 106.443 198.043 106.197C198.454 105.951 198.802 105.607 199.06 105.194C199.067 105.181 199.076 105.169 199.087 105.16C199.098 105.151 199.111 105.144 199.125 105.14C199.139 105.136 199.153 105.135 199.167 105.137C199.181 105.139 199.195 105.143 199.207 105.151C199.233 105.165 199.252 105.189 199.261 105.218C199.269 105.247 199.267 105.278 199.255 105.305C199.032 105.673 198.74 105.991 198.396 106.239C198.052 106.487 197.664 106.661 197.255 106.749Z" fill="#263238"/>
<path d="M206.681 104.125C206.557 104.572 206.349 104.99 206.07 105.354C205.79 105.718 205.445 106.021 205.053 106.245C204.003 106.86 203.212 105.92 203.283 104.739C203.348 103.682 203.973 102.096 205.141 101.986C205.395 101.969 205.65 102.018 205.881 102.129C206.112 102.24 206.313 102.409 206.466 102.622C206.619 102.834 206.718 103.082 206.756 103.345C206.794 103.607 206.768 103.875 206.681 104.125Z" fill="#FFB573"/>
<path d="M199.419 100.609C199.372 100.618 199.324 100.613 199.281 100.593C199.238 100.573 199.201 100.54 199.177 100.498C198.646 99.5822 197.324 99.4716 197.312 99.4716C197.253 99.4675 197.198 99.439 197.158 99.3923C197.119 99.3456 197.099 99.2846 197.103 99.2226C197.107 99.1607 197.134 99.1029 197.179 99.062C197.224 99.021 197.283 99.0003 197.342 99.0044C197.407 99.0044 198.911 99.1396 199.56 100.234C199.591 100.287 199.6 100.35 199.585 100.41C199.571 100.47 199.534 100.521 199.484 100.553L199.419 100.609Z" fill="#263238"/>
<path d="M192.08 100.025C192.042 100.034 192.002 100.033 191.965 100.021C191.928 100.009 191.894 99.9873 191.868 99.9573C191.847 99.9361 191.83 99.9108 191.819 99.8828C191.808 99.8548 191.802 99.8248 191.802 99.7944C191.802 99.7641 191.808 99.734 191.819 99.706C191.83 99.6781 191.847 99.6527 191.868 99.6315C192.116 99.369 192.422 99.1731 192.759 99.0607C193.096 98.9483 193.454 98.9227 193.803 98.9861C193.831 98.993 193.858 99.0056 193.882 99.0232C193.905 99.0408 193.925 99.0631 193.94 99.0888C193.956 99.1145 193.966 99.1431 193.971 99.1729C193.976 99.2028 193.975 99.2333 193.968 99.2627C193.962 99.2922 193.949 99.32 193.933 99.3446C193.916 99.3692 193.894 99.3901 193.87 99.4061C193.845 99.4221 193.817 99.4328 193.789 99.4378C193.76 99.4427 193.731 99.4417 193.703 99.4348C193.426 99.3908 193.143 99.4158 192.878 99.5076C192.612 99.5995 192.371 99.7557 192.175 99.9635C192.148 99.9911 192.116 100.012 192.08 100.025Z" fill="#263238"/>
<path d="M196.955 101.1L196.028 100.897C196.028 100.897 196.548 101.598 196.955 101.1Z" fill="#263238"/>
<path d="M180.374 119.055L180.817 120.493C180.898 120.76 181.04 121.002 181.23 121.2C181.42 121.398 181.652 121.546 181.908 121.631L184.339 122.442C184.818 122.603 185.326 122.642 185.822 122.555C186.318 122.468 186.787 122.259 187.189 121.944L187.69 121.551C187.1 119.092 184.77 116.916 184.77 116.916L184.18 116.209C184.06 116.062 183.913 115.941 183.748 115.854C183.583 115.766 183.403 115.712 183.219 115.697C183.034 115.682 182.848 115.704 182.672 115.764C182.496 115.823 182.332 115.918 182.191 116.043L180.84 117.273C180.604 117.49 180.433 117.774 180.351 118.091C180.268 118.408 180.276 118.743 180.374 119.055Z" fill="#EBB376"/>
<path d="M164.019 120.37L164.462 121.814C164.545 122.081 164.688 122.323 164.879 122.521C165.07 122.718 165.303 122.866 165.559 122.952L167.984 123.763C168.463 123.922 168.971 123.96 169.467 123.874C169.962 123.787 170.431 123.578 170.834 123.265L171.341 122.872C170.751 120.413 168.391 118.231 168.391 118.231L167.801 117.53C167.681 117.382 167.535 117.259 167.369 117.171C167.204 117.082 167.023 117.028 166.837 117.012C166.652 116.997 166.465 117.02 166.288 117.081C166.111 117.141 165.948 117.237 165.807 117.364L164.456 118.594C164.227 118.815 164.064 119.1 163.986 119.415C163.909 119.73 163.92 120.062 164.019 120.37Z" fill="#EBB376"/>
<path opacity="0.2" d="M199.302 128.091C200.482 131.693 203.473 134.379 206.341 135.971C207.019 133.168 207.999 129.75 209.338 125.558C207.539 122.94 205.019 121.078 201.81 121.582C201.81 121.582 198.116 124.446 199.302 128.091Z" fill="black"/>
<path d="M134.561 199.552L137.64 200.849C137.64 200.849 163.807 159.728 166.232 161.27C175.005 166.87 193.041 176.877 201.579 170.816C210.116 164.756 205.048 148.78 205.048 148.78C205.048 148.78 188.445 142.707 186.392 146.463C185.851 147.584 185.38 148.74 184.982 149.924C184.557 151.11 184.227 152.112 184.227 152.112C183.725 151.866 167.453 143.709 159.789 147.072C151.995 150.483 134.561 199.552 134.561 199.552Z" fill="#EBB376"/>
<path d="M191.307 173.01C191.307 173.01 183.076 173.57 171.801 169.58C171.801 169.58 169.022 202.33 167.152 220.106L163.376 219.553C163.376 219.553 156.951 171.031 158.22 165.118C159.488 159.205 166.379 158.812 166.379 158.812C166.379 158.812 179.519 168.874 191.307 173.01Z" fill="#EBB376"/>
<path d="M191.308 173.01C185.751 173.08 180.211 172.363 174.841 170.877L175.915 166.218C180.062 169.076 185.85 170.815 191.308 173.01Z" fill="#CFD8DC"/>
<path opacity="0.4" d="M191.308 173.01C185.751 173.08 180.211 172.363 174.841 170.877L175.915 166.218C180.062 169.076 185.85 170.815 191.308 173.01Z" fill="white"/>
<path d="M175.218 165.745L174.232 170.933L175.731 171.468L176.887 166.888L175.218 165.745Z" fill="#CFD8DC"/>
<path opacity="0.6" d="M175.218 165.745L174.232 170.933L175.731 171.468L176.887 166.888L175.218 165.745Z" fill="white"/>
<path opacity="0.2" d="M159.589 185.74C158.999 172.832 158.739 166.169 160.769 163.507C162.109 161.862 163.953 160.751 165.99 160.36C168.633 167.337 180.15 171.688 180.469 171.805C184.77 172.733 191.142 172.973 191.301 173.035C185.79 171.867 180.558 169.568 175.908 166.273C172.588 163.994 169.406 161.504 166.38 158.817C166.38 158.817 159.506 159.205 158.238 165.118C157.718 167.539 158.485 177.079 159.571 187.522C159.608 186.929 159.614 186.334 159.589 185.74Z" fill="black"/>
<path d="M131.487 196.853C131.447 196.756 131.437 196.648 131.458 196.544C131.479 196.441 131.531 196.347 131.605 196.275C131.653 196.212 131.713 196.161 131.781 196.124C131.849 196.087 131.924 196.065 132.001 196.06C132.4 196.08 132.785 196.214 133.116 196.447C132.827 196.054 132.603 195.63 132.703 195.365C132.768 195.193 132.933 195.101 133.198 195.101C133.315 195.097 133.43 195.12 133.537 195.168C133.644 195.216 133.74 195.287 133.818 195.378C134.331 195.961 134.219 197.295 134.219 197.357C134.222 197.377 134.222 197.398 134.219 197.418C134.222 197.428 134.222 197.439 134.219 197.449C134.205 197.452 134.191 197.452 134.178 197.449H134.131C133.579 197.462 133.028 197.419 132.485 197.32C131.995 197.265 131.605 197.111 131.487 196.853ZM132.024 196.349C131.985 196.35 131.946 196.36 131.91 196.378C131.875 196.396 131.843 196.421 131.818 196.453C131.682 196.625 131.718 196.705 131.729 196.73C131.871 197.025 132.856 197.172 133.688 197.197C133.21 196.822 132.461 196.306 132.024 196.349ZM133.204 195.384C133.128 195.384 132.992 195.384 132.962 195.47C132.88 195.697 133.387 196.404 133.96 197.019C134.001 196.509 133.881 195.999 133.617 195.568C133.543 195.48 133.444 195.42 133.334 195.396L133.204 195.384Z" fill="#263238"/>
<path d="M159.683 216.744C159.608 216.672 159.555 216.579 159.532 216.476C159.509 216.373 159.516 216.265 159.553 216.166C159.571 216.088 159.605 216.015 159.652 215.952C159.698 215.888 159.757 215.836 159.825 215.797C160.197 215.634 160.606 215.583 161.005 215.65C160.58 215.422 160.208 215.139 160.19 214.857C160.19 214.672 160.303 214.519 160.527 214.396C160.632 214.344 160.747 214.317 160.863 214.317C160.979 214.317 161.094 214.344 161.199 214.396C161.907 214.691 162.379 215.945 162.379 216C162.385 216.022 162.385 216.045 162.379 216.067C162.375 216.087 162.365 216.104 162.35 216.117L162.32 216.147C161.645 216.517 160.912 216.758 160.155 216.86C159.989 216.88 159.822 216.839 159.683 216.744ZM159.966 216.043C159.93 216.061 159.898 216.088 159.872 216.121C159.847 216.154 159.828 216.192 159.819 216.233C159.766 216.449 159.819 216.504 159.854 216.522C160.102 216.725 161.034 216.418 161.813 216.067C161.229 215.945 160.338 215.815 159.966 216.043ZM160.627 214.654C160.556 214.691 160.438 214.758 160.444 214.838C160.444 215.078 161.205 215.49 161.984 215.785C161.809 215.309 161.49 214.906 161.075 214.635C161.012 214.606 160.944 214.592 160.875 214.592C160.789 214.592 160.704 214.613 160.627 214.654Z" fill="#263238"/>
<path d="M139.582 199.466C139.754 199.06 134.862 197.105 134.862 197.105C134.862 197.105 130.597 198.79 127.464 198.126C124.331 197.462 125.104 199.97 128.29 201.494L136.09 205.244C138.361 206.319 137.842 203.658 139.582 199.466Z" fill="#263238"/>
<path d="M168.072 215.477C168.072 215.035 162.863 215.447 162.863 215.447C162.863 215.447 159.7 218.877 156.603 219.676C153.505 220.475 155.264 222.399 158.739 222.356L167.329 222.245C169.795 222.214 168.226 220.051 168.072 215.477Z" fill="#263238"/>
<path d="M205.047 148.78C205.047 148.78 188.445 142.707 186.392 146.463C185.853 147.585 185.382 148.741 184.982 149.924C184.557 151.11 184.226 152.112 184.226 152.112L182.863 151.46L177.306 168.751C186.156 173.865 198.646 174.455 203.767 170.822C212.287 164.762 205.047 148.78 205.047 148.78Z" fill="#CFD8DC"/>
<g opacity="0.4">
<path d="M205.048 148.78C205.048 148.78 188.446 142.707 186.393 146.463C185.854 147.585 185.383 148.741 184.983 149.924C184.558 151.11 184.227 152.112 184.227 152.112L182.864 151.46L177.307 168.751C186.157 173.865 198.647 174.455 203.768 170.822C212.288 164.762 205.048 148.78 205.048 148.78Z" fill="white"/>
</g>
<path opacity="0.3" d="M184.227 152.112L193.802 156.347C193.802 156.347 188.888 152.044 184.952 149.924C184.557 151.11 184.227 152.112 184.227 152.112Z" fill="black"/>
<path d="M186.156 146.936L186.493 142.67L205.048 145.239L205.29 149.357L186.156 146.936Z" fill="#CFD8DC"/>
<path opacity="0.4" d="M186.156 146.936L186.493 142.67L205.048 145.239L205.29 149.357L186.156 146.936Z" fill="white"/>
<path d="M186.528 143.088L187.502 143.235L187.201 146.561L186.398 146.462L186.528 143.088Z" fill="#263238"/>
<path d="M188.423 143.371L198.884 144.957L198.612 147.981L188.128 146.678L188.423 143.371Z" fill="#263238"/>
<path d="M205.048 148.78L199.531 148.098L199.803 145.099L204.782 145.849L205.048 148.78Z" fill="#263238"/>
<path opacity="0.2" d="M186.528 143.088L187.502 143.235L187.201 146.561L186.398 146.462L186.528 143.088Z" fill="black"/>
<path opacity="0.2" d="M188.423 143.371L198.884 144.957L198.612 147.981L188.128 146.678L188.423 143.371Z" fill="black"/>
<path opacity="0.2" d="M205.048 148.78L199.531 148.098L199.803 145.099L204.782 145.849L205.048 148.78Z" fill="black"/>
<path d="M193.962 147.803H193.85L190.871 147.391C190.761 147.376 190.654 147.338 190.558 147.28C190.462 147.222 190.378 147.145 190.31 147.053C190.241 146.962 190.191 146.857 190.161 146.745C190.132 146.633 190.124 146.516 190.139 146.401L190.405 144.324C190.417 144.204 190.452 144.088 190.508 143.983C190.564 143.877 190.639 143.784 190.729 143.709C190.908 143.568 191.133 143.506 191.355 143.537L194.334 143.949C194.445 143.963 194.552 144 194.648 144.058C194.745 144.116 194.83 144.193 194.898 144.285C194.966 144.377 195.016 144.482 195.045 144.594C195.073 144.706 195.081 144.823 195.066 144.938L194.8 147.016C194.778 147.232 194.681 147.431 194.526 147.577C194.371 147.722 194.171 147.802 193.962 147.803ZM191.243 144.164C191.187 144.164 191.133 144.184 191.089 144.219C191.035 144.263 190.999 144.327 190.989 144.398L190.729 146.475C190.724 146.51 190.725 146.545 190.733 146.579C190.741 146.613 190.756 146.644 190.776 146.672C190.819 146.728 190.88 146.765 190.948 146.776L193.927 147.188C193.995 147.197 194.064 147.177 194.118 147.133C194.172 147.09 194.207 147.025 194.216 146.955L194.482 144.877C194.489 144.807 194.47 144.736 194.429 144.68C194.386 144.624 194.325 144.587 194.257 144.576L191.278 144.164H191.243Z" fill="white"/>
<path d="M194.109 146.156H194.062L193.012 145.977C192.974 145.972 192.937 145.958 192.904 145.937C192.871 145.916 192.843 145.888 192.82 145.855C192.797 145.823 192.781 145.786 192.773 145.747C192.764 145.707 192.763 145.667 192.77 145.627C192.783 145.547 192.825 145.475 192.888 145.427C192.951 145.379 193.029 145.358 193.106 145.369L194.157 145.547C194.235 145.554 194.307 145.592 194.358 145.655C194.409 145.717 194.434 145.798 194.428 145.879C194.422 145.961 194.385 146.036 194.325 146.089C194.265 146.142 194.188 146.168 194.109 146.162V146.156Z" fill="white"/>
<path d="M182.062 150.262L183.608 151.11L178.363 169.685L176.162 169.23L182.062 150.262Z" fill="#CFD8DC"/>
<path opacity="0.6" d="M182.062 150.262L183.608 151.11L178.363 169.685L176.162 169.23L182.062 150.262Z" fill="white"/>
<path d="M180.823 131.538H167.843C167.596 131.533 167.36 131.435 167.178 131.26C166.996 131.086 166.883 130.848 166.858 130.592L165.047 112.613C165.034 112.492 165.046 112.371 165.082 112.256C165.118 112.141 165.177 112.035 165.255 111.946C165.333 111.856 165.429 111.785 165.535 111.737C165.642 111.689 165.757 111.665 165.873 111.666H178.853C179.1 111.671 179.338 111.769 179.52 111.944C179.703 112.118 179.818 112.356 179.844 112.613L181.649 130.592C181.663 130.712 181.651 130.834 181.616 130.95C181.58 131.065 181.521 131.171 181.443 131.261C181.365 131.35 181.269 131.422 181.162 131.47C181.055 131.517 180.94 131.541 180.823 131.538Z" fill="#263238"/>
<path opacity="0.6" d="M180.823 131.538H167.843C167.596 131.533 167.36 131.435 167.178 131.26C166.996 131.086 166.883 130.848 166.858 130.592L165.047 112.613C165.034 112.492 165.046 112.371 165.082 112.256C165.118 112.141 165.177 112.035 165.255 111.946C165.333 111.856 165.429 111.785 165.535 111.737C165.642 111.689 165.757 111.665 165.873 111.666H178.853C179.1 111.671 179.338 111.769 179.52 111.944C179.703 112.118 179.818 112.356 179.844 112.613L181.649 130.592C181.663 130.712 181.651 130.834 181.616 130.95C181.58 131.065 181.521 131.171 181.443 131.261C181.365 131.35 181.269 131.422 181.162 131.47C181.055 131.517 180.94 131.541 180.823 131.538Z" fill="white"/>
<path opacity="0.2" d="M180.28 131.538H167.825C167.578 131.533 167.341 131.435 167.16 131.26C166.978 131.086 166.864 130.848 166.84 130.592L165.028 112.613C165.016 112.492 165.028 112.371 165.064 112.256C165.1 112.141 165.159 112.035 165.237 111.946C165.315 111.856 165.41 111.785 165.517 111.737C165.623 111.689 165.738 111.665 165.854 111.666H178.309C178.556 111.671 178.793 111.77 178.974 111.944C179.156 112.119 179.27 112.357 179.294 112.613L181.129 130.561C181.148 130.686 181.14 130.813 181.105 130.935C181.07 131.056 181.01 131.167 180.928 131.261C180.847 131.354 180.746 131.428 180.634 131.476C180.522 131.524 180.401 131.545 180.28 131.538Z" fill="white"/>
<path d="M172.697 120.1C172.517 120.097 172.339 120.134 172.173 120.209C172.008 120.283 171.86 120.394 171.739 120.533C171.617 120.672 171.526 120.836 171.471 121.015C171.415 121.193 171.397 121.382 171.417 121.569C171.453 121.967 171.629 122.338 171.911 122.61C172.193 122.882 172.561 123.037 172.945 123.044C173.126 123.046 173.305 123.008 173.47 122.933C173.635 122.857 173.783 122.746 173.904 122.607C174.025 122.467 174.117 122.303 174.172 122.124C174.227 121.945 174.246 121.756 174.226 121.569C173.843 121.56 173.476 121.406 173.194 121.136C172.913 120.865 172.736 120.497 172.697 120.1Z" fill="#263238"/>
<path opacity="0.3" d="M175.513 113.062H168.645C168.476 113.058 168.312 113.006 168.17 112.91C168.028 112.815 167.915 112.68 167.843 112.521L167.43 111.636H176.492L176.227 112.521C176.18 112.68 176.086 112.818 175.957 112.916C175.828 113.014 175.672 113.065 175.513 113.062Z" fill="black"/>
<path d="M208.659 154.202H206.246C206.246 154.202 203.231 144.773 201.473 136.782C200.982 134.669 200.606 132.528 200.346 130.371C200.094 127.981 200.294 125.563 200.936 123.253C201.543 120.968 202.582 118.833 203.992 116.971L203.502 116.941C208.069 116.891 210.535 118.539 210.842 121.501C211.149 124.464 206.122 142.043 205.862 144.392C205.603 146.74 208.659 154.202 208.659 154.202Z" fill="#CFD8DC"/>
<path d="M193.071 116.608C193.071 116.608 188.239 124.538 186.947 127.906C185.655 131.274 186.398 140.925 186.398 140.925C186.398 140.925 183.926 129.314 185.513 123.56C187.1 117.807 189.855 116.627 193.071 116.608Z" fill="#CFD8DC"/>
<path d="M209.615 123.757C207.072 127.555 201.001 136.474 195.774 134.384C193.018 133.075 191.054 130.696 189.23 128.391C187.642 126.307 186.219 124.091 184.977 121.765C184.774 121.438 184.699 121.043 184.766 120.66C184.834 120.277 185.039 119.935 185.339 119.704C185.64 119.473 186.014 119.37 186.385 119.416C186.756 119.462 187.096 119.654 187.337 119.952C189.012 121.765 190.759 123.585 192.499 125.269C194.015 126.695 195.962 128.551 197.721 129.221C197.598 129.162 197.466 129.127 197.331 129.117C197.231 129.117 197.254 129.117 197.331 129.049C200.281 126.947 202.547 123.333 204.736 120.327C207.013 117.051 211.68 120.327 209.627 123.757H209.615Z" fill="#E9B376"/>
<path opacity="0.2" d="M208.978 126.006C208.978 126.006 204.73 133.555 201.473 136.757C200.982 134.644 200.606 132.503 200.346 130.346C200.094 127.956 200.294 125.538 200.936 123.228L204.299 120.339C205.969 118.907 208.978 126.006 208.978 126.006Z" fill="black"/>
<path d="M209.278 119.048C211.502 120.278 210.83 123.64 207.915 127.611C205 131.581 199.726 136.947 196.953 135.97C194.18 134.993 191.053 131.151 191.053 131.151L193.076 125.201C193.076 125.201 197.047 128.342 197.873 128.182C198.699 128.023 202.747 122.564 203.915 120.874C205.083 119.184 206.865 117.69 209.278 119.048Z" fill="#CFD8DC"/>
<path d="M167.814 119.399L167.731 120.579C167.708 120.883 167.586 121.171 167.385 121.394C167.185 121.617 166.918 121.763 166.628 121.808L165.088 122.048L165.454 117.745L166.74 117.979C167.056 118.034 167.341 118.211 167.54 118.473C167.738 118.735 167.836 119.065 167.814 119.399Z" fill="#FFB573"/>
</svg>
