<svg width="35" height="35" viewBox="0 0 35 35" fill="none" xmlns="http://www.w3.org/2000/svg">
<circle cx="17.5" cy="17.5" r="17" fill="#FCFDF9" stroke="black"/>
<mask id="path-2-inside-1_302_83" fill="white">
<path d="M22.8151 20.2364C22.6857 19.9866 22.5286 19.7368 22.353 19.472C21.9352 18.9079 21.6456 18.2457 21.5074 17.5387L21.3134 14.5911C21.1979 12.3081 19.9641 10 17.5105 10H16.4847C14.0311 10 12.7881 12.3081 12.6634 14.5861L12.4693 17.5387C12.3317 18.252 12.0422 18.9208 11.6237 19.492C11.4666 19.7518 11.3095 19.9916 11.2032 20.2164C11.0892 20.3819 11.0201 20.5786 11.0038 20.7842C10.9874 20.9898 11.0245 21.1963 11.1108 21.3804C11.2115 21.5738 11.3598 21.7331 11.5393 21.8407C11.7188 21.9483 11.9224 22 12.1274 21.9899H15.6946C15.6186 22.2163 15.5942 22.4591 15.6234 22.6979C15.6526 22.9366 15.7346 23.1642 15.8624 23.3615C15.9903 23.5587 16.1602 23.7197 16.3578 23.8308C16.5554 23.942 16.7749 24 16.9976 24C17.2204 24 17.4398 23.942 17.6374 23.8308C17.835 23.7197 18.0049 23.5587 18.1328 23.3615C18.2606 23.1642 18.3426 22.9366 18.3718 22.6979C18.4011 22.4591 18.3767 22.2163 18.3007 21.9899H21.8679C22.0748 21.9981 22.2796 21.9434 22.4593 21.8322C22.6389 21.7209 22.7862 21.5575 22.8844 21.3605C22.9708 21.1847 23.0101 20.9863 22.9978 20.7878C22.9856 20.5892 22.9223 20.3982 22.8151 20.2364ZM17.4597 22.4895C17.4597 22.5883 17.4326 22.6849 17.3818 22.7671C17.331 22.8492 17.2589 22.9132 17.1744 22.9511C17.09 22.9889 16.9971 22.9988 16.9075 22.9795C16.8178 22.9602 16.7355 22.9126 16.6709 22.8428C16.6063 22.7729 16.5622 22.6839 16.5444 22.587C16.5266 22.4901 16.5357 22.3896 16.5707 22.2983C16.6057 22.207 16.6649 22.129 16.7409 22.0741C16.8169 22.0192 16.9062 21.9899 16.9976 21.9899C17.1202 21.9899 17.2377 22.0426 17.3243 22.1363C17.411 22.2299 17.4597 22.357 17.4597 22.4895ZM22.0804 20.9058C22.0804 20.9458 22.0019 20.9908 21.8863 20.9908H12.1274C12.0118 20.9908 11.9518 20.9458 11.9333 20.9058C11.9148 20.8659 11.9333 20.8109 11.9795 20.731C12.1043 20.5012 12.2475 20.2614 12.3954 20.0216C12.8574 19.3022 13.3195 18.4829 13.3888 17.6086L13.5875 14.6561C13.6846 12.9675 14.5024 10.9992 16.4847 10.9992H17.5105C19.4928 10.9992 20.3107 12.9675 20.4077 14.6611L20.6064 17.6086C20.6618 18.4929 21.1563 19.3022 21.6183 20.0216C21.7662 20.2614 21.9094 20.5212 22.0573 20.7759C22.072 20.7931 22.082 20.8144 22.0861 20.8373C22.0902 20.8603 22.0882 20.884 22.0804 20.9058Z"/>
</mask>
<path d="M22.8151 20.2364C22.6857 19.9866 22.5286 19.7368 22.353 19.472C21.9352 18.9079 21.6456 18.2457 21.5074 17.5387L21.3134 14.5911C21.1979 12.3081 19.9641 10 17.5105 10H16.4847C14.0311 10 12.7881 12.3081 12.6634 14.5861L12.4693 17.5387C12.3317 18.252 12.0422 18.9208 11.6237 19.492C11.4666 19.7518 11.3095 19.9916 11.2032 20.2164C11.0892 20.3819 11.0201 20.5786 11.0038 20.7842C10.9874 20.9898 11.0245 21.1963 11.1108 21.3804C11.2115 21.5738 11.3598 21.7331 11.5393 21.8407C11.7188 21.9483 11.9224 22 12.1274 21.9899H15.6946C15.6186 22.2163 15.5942 22.4591 15.6234 22.6979C15.6526 22.9366 15.7346 23.1642 15.8624 23.3615C15.9903 23.5587 16.1602 23.7197 16.3578 23.8308C16.5554 23.942 16.7749 24 16.9976 24C17.2204 24 17.4398 23.942 17.6374 23.8308C17.835 23.7197 18.0049 23.5587 18.1328 23.3615C18.2606 23.1642 18.3426 22.9366 18.3718 22.6979C18.4011 22.4591 18.3767 22.2163 18.3007 21.9899H21.8679C22.0748 21.9981 22.2796 21.9434 22.4593 21.8322C22.6389 21.7209 22.7862 21.5575 22.8844 21.3605C22.9708 21.1847 23.0101 20.9863 22.9978 20.7878C22.9856 20.5892 22.9223 20.3982 22.8151 20.2364ZM17.4597 22.4895C17.4597 22.5883 17.4326 22.6849 17.3818 22.7671C17.331 22.8492 17.2589 22.9132 17.1744 22.9511C17.09 22.9889 16.9971 22.9988 16.9075 22.9795C16.8178 22.9602 16.7355 22.9126 16.6709 22.8428C16.6063 22.7729 16.5622 22.6839 16.5444 22.587C16.5266 22.4901 16.5357 22.3896 16.5707 22.2983C16.6057 22.207 16.6649 22.129 16.7409 22.0741C16.8169 22.0192 16.9062 21.9899 16.9976 21.9899C17.1202 21.9899 17.2377 22.0426 17.3243 22.1363C17.411 22.2299 17.4597 22.357 17.4597 22.4895ZM22.0804 20.9058C22.0804 20.9458 22.0019 20.9908 21.8863 20.9908H12.1274C12.0118 20.9908 11.9518 20.9458 11.9333 20.9058C11.9148 20.8659 11.9333 20.8109 11.9795 20.731C12.1043 20.5012 12.2475 20.2614 12.3954 20.0216C12.8574 19.3022 13.3195 18.4829 13.3888 17.6086L13.5875 14.6561C13.6846 12.9675 14.5024 10.9992 16.4847 10.9992H17.5105C19.4928 10.9992 20.3107 12.9675 20.4077 14.6611L20.6064 17.6086C20.6618 18.4929 21.1563 19.3022 21.6183 20.0216C21.7662 20.2614 21.9094 20.5212 22.0573 20.7759C22.072 20.7931 22.082 20.8144 22.0861 20.8373C22.0902 20.8603 22.0882 20.884 22.0804 20.9058Z" fill="black"/>
<path d="M22.8151 20.2364L-39.342 52.431L-37.616 55.7633L-35.5437 58.892L22.8151 20.2364ZM22.353 19.472L80.691 -19.2149L79.6862 -20.7302L78.604 -22.1912L22.353 19.472ZM21.5074 17.5387L-48.3413 22.1376L-48.0484 26.5865L-47.1934 30.9624L21.5074 17.5387ZM21.3134 14.5911L-48.5972 18.1284L-48.5703 18.6595L-48.5354 19.1901L21.3134 14.5911ZM12.6634 14.5861L82.5126 19.1774L82.5377 18.7958L82.5586 18.414L12.6634 14.5861ZM12.4693 17.5387L81.203 30.793L82.0316 26.4963L82.3186 22.1299L12.4693 17.5387ZM11.6237 19.492L-44.8418 -21.88L-46.6722 -19.3819L-48.2747 -16.7319L11.6237 19.492ZM11.2032 20.2164L68.8419 59.9377L72.0624 55.2645L74.488 50.1335L11.2032 20.2164ZM11.1108 21.3804L-52.2708 51.092L-51.6498 52.4166L-50.9741 53.7141L11.1108 21.3804ZM12.1274 21.9899V-48.0101H10.4123L8.69924 -47.9261L12.1274 21.9899ZM15.6946 21.9899L82.0551 44.2673L113.033 -48.0101H15.6946V21.9899ZM18.3007 21.9899V-48.0101H-79.0375L-48.0599 44.2673L18.3007 21.9899ZM21.8679 21.9899L24.6167 -47.9561L23.2428 -48.0101H21.8679V21.9899ZM22.8844 21.3605L85.5354 52.5832L85.6229 52.4074L85.7096 52.2312L22.8844 21.3605ZM22.0804 20.9058L-43.8513 -2.6104L-47.9196 8.79581V20.9058H22.0804ZM11.9795 20.731L72.5822 55.764L73.0513 54.9526L73.4984 54.1289L11.9795 20.731ZM12.3954 20.0216L-46.5019 -17.8085L-46.8499 -17.2666L-47.188 -16.7184L12.3954 20.0216ZM13.3888 17.6086L83.1699 23.1408L83.2029 22.7249L83.2309 22.3087L13.3888 17.6086ZM13.5875 14.6561L83.4296 19.3561L83.4526 19.0142L83.4722 18.6721L13.5875 14.6561ZM20.4077 14.6611L-49.4777 18.6652L-49.4575 19.0173L-49.4338 19.3691L20.4077 14.6611ZM20.6064 17.6086L90.4692 13.2278L90.4589 13.0642L90.4479 12.9006L20.6064 17.6086ZM21.6183 20.0216L81.2017 -16.7184L80.8636 -17.2666L80.5156 -17.8085L21.6183 20.0216ZM22.0573 20.7759L-38.4859 55.9117L-35.2543 61.4801L-31.0613 66.3656L22.0573 20.7759ZM84.9722 -11.9582C83.0897 -15.5928 81.2794 -18.3276 80.691 -19.2149L-35.985 58.159C-36.1604 57.8944 -36.5975 57.2308 -37.1435 56.3365C-37.6982 55.428 -38.4797 54.0958 -39.342 52.431L84.9722 -11.9582ZM78.604 -22.1912C84.5514 -14.1615 88.4033 -5.12288 90.2083 4.11497L-47.1934 30.9624C-45.1121 41.6144 -40.6809 51.9774 -33.8979 61.1353L78.604 -22.1912ZM91.3562 12.9397L91.1621 9.99218L-48.5354 19.1901L-48.3413 22.1376L91.3562 12.9397ZM91.2239 11.0538C90.6532 -0.226336 87.3233 -15.4551 76.8261 -29.8343C64.8506 -46.2386 44.0252 -60 17.5105 -60V80C-6.55055 80 -25.5323 67.3927 -36.2487 52.7131C-45.4867 40.0588 -48.142 27.1255 -48.5972 18.1284L91.2239 11.0538ZM17.5105 -60H16.4847V80H17.5105V-60ZM16.4847 -60C-9.99718 -60 -30.7597 -46.2763 -42.7142 -30.0022C-53.2128 -15.7101 -56.6131 -0.540841 -57.2319 10.7583L82.5586 18.414C82.0646 27.435 79.3482 40.3112 70.1156 52.8798C59.4272 67.4303 40.513 80 16.4847 80V-60ZM-57.1859 9.99492L-57.38 12.9474L82.3186 22.1299L82.5126 19.1774L-57.1859 9.99492ZM-56.2644 4.2843C-54.4944 -4.89449 -50.7032 -13.8802 -44.8418 -21.88L68.0892 60.864C74.7876 51.7219 79.1579 41.3985 81.203 30.793L-56.2644 4.2843ZM-48.2747 -16.7319C-48.1408 -16.9535 -48.0156 -17.156 -48.1074 -17.0068C-48.1355 -16.9612 -48.377 -16.5699 -48.6555 -16.105C-49.1313 -15.3107 -50.5682 -12.9021 -52.0816 -9.70069L74.488 50.1335C73.7377 51.7206 73.0545 53.0054 72.5628 53.8953C72.0711 54.7854 71.6632 55.4742 71.4443 55.8397C71.238 56.1841 71.0719 56.4526 71.1208 56.3732C71.1242 56.3677 71.1259 56.3649 71.133 56.3533C71.1387 56.3441 71.1471 56.3305 71.1565 56.3153C71.175 56.2851 71.2032 56.2393 71.2362 56.1855C71.3013 56.0792 71.4021 55.9146 71.5222 55.716L-48.2747 -16.7319ZM-46.4355 -19.5049C-53.7195 -8.93517 -57.8136 3.11338 -58.7767 15.2442L80.7842 26.3242C79.8537 38.0438 75.8978 49.699 68.8419 59.9377L-46.4355 -19.5049ZM-58.7767 15.2442C-59.7395 27.3716 -57.5901 39.7447 -52.2708 51.092L74.4924 -8.3311C79.6391 2.64802 81.7144 14.6081 80.7842 26.3242L-58.7767 15.2442ZM-50.9741 53.7141C-45.1629 64.8724 -36.1982 74.8367 -24.4559 81.8769L47.5346 -38.1954C58.9178 -31.3705 67.5859 -21.7248 73.1957 -10.9532L-50.9741 53.7141ZM-24.4559 81.8769C-12.6478 88.9566 1.23749 92.608 15.5555 91.9059L8.69924 -47.9261C22.6072 -48.608 36.0854 -45.0599 47.5346 -38.1954L-24.4559 81.8769ZM12.1274 91.9899H15.6946V-48.0101H12.1274V91.9899ZM-50.666 -0.287414C-54.0902 9.91269 -55.1464 20.6769 -53.8581 31.2026L85.1048 14.1931C86.3347 24.2414 85.3273 34.5199 82.0551 44.2673L-50.666 -0.287414ZM-53.8581 31.2026C-52.5693 41.7312 -48.9203 52.1137 -42.8753 61.4387L74.6002 -14.7157C80.3895 -5.7852 83.8745 4.14205 85.1048 14.1931L-53.8581 31.2026ZM-42.8753 61.4387C-36.8178 70.783 -28.4025 78.9673 -17.9611 84.8407L50.6767 -37.1791C60.7229 -31.528 68.7984 -23.6657 74.6002 -14.7157L-42.8753 61.4387ZM-17.9611 84.8407C-7.48119 90.7358 4.53067 94 16.9976 94V-46C29.0191 -46 40.592 -42.8519 50.6767 -37.1791L-17.9611 84.8407ZM16.9976 94C29.4645 94 41.4764 90.7359 51.9564 84.8407L-16.6815 -37.1791C-6.59675 -42.8519 4.97618 -46 16.9976 -46V94ZM51.9564 84.8407C62.3977 78.9673 70.813 70.783 76.8706 61.4387L-40.605 -14.7157C-34.8032 -23.6657 -26.7277 -31.528 -16.6815 -37.1791L51.9564 84.8407ZM76.8706 61.4387C82.9155 52.1137 86.5645 41.7312 87.8533 31.2026L-51.1096 14.1931C-49.8793 4.14205 -46.3943 -5.7852 -40.605 -14.7157L76.8706 61.4387ZM87.8533 31.2026C89.1417 20.6768 88.0854 9.9126 84.6612 -0.287414L-48.0599 44.2673C-51.332 34.52 -52.3395 24.2415 -51.1096 14.1931L87.8533 31.2026ZM18.3007 91.9899H21.8679V-48.0101H18.3007V91.9899ZM19.119 91.9359C33.5726 92.504 47.5257 88.6441 59.3114 81.3462L-14.3928 -37.6819C-2.96647 -44.7573 10.5769 -48.5078 24.6167 -47.9561L19.119 91.9359ZM59.3114 81.3462C71.0297 74.0901 79.8893 63.9126 85.5354 52.5832L-39.7665 -9.86228C-34.3168 -20.7975 -25.7518 -30.6482 -14.3928 -37.6819L59.3114 81.3462ZM85.7096 52.2312C91.2485 40.9588 93.6133 28.6141 92.8651 16.4796L-46.8695 25.0959C-47.5932 13.3586 -45.307 1.41056 -39.9407 -9.51027L85.7096 52.2312ZM92.8651 16.4796C92.1167 4.34282 88.2407 -7.75034 81.1739 -18.4192L-35.5437 58.892C-42.3961 48.5468 -46.1456 36.8355 -46.8695 25.0959L92.8651 16.4796ZM-52.5403 22.4895C-52.5403 9.90504 -49.1119 -2.79132 -42.1643 -14.0332L76.9279 59.5673C83.9771 48.1611 87.4597 35.2716 87.4597 22.4895H-52.5403ZM-42.1643 -14.0332C-35.1899 -25.3185 -24.7247 -34.9839 -11.4361 -40.9351L45.785 86.8372C59.2424 80.8104 69.8519 71.0169 76.9279 59.5673L-42.1643 -14.0332ZM-11.4361 -40.9351C1.93798 -46.9245 17.0143 -48.598 31.6251 -45.4558L2.18986 91.4148C16.9799 94.5955 32.242 92.9022 45.785 86.8372L-11.4361 -40.9351ZM31.6251 -45.4558C46.1787 -42.3259 58.7389 -34.7655 68.0599 -24.688L-34.7181 70.3735C-25.2679 80.5908 -12.543 88.2464 2.18986 91.4148L31.6251 -45.4558ZM68.0599 -24.688C77.3277 -14.6678 83.097 -2.53678 85.389 9.92106L-52.3002 35.2529C-49.9725 47.9045 -44.1152 60.2136 -34.7181 70.3735L68.0599 -24.688ZM85.389 9.92106C87.6789 22.3679 86.5432 35.3203 81.9377 47.3414L-48.7963 -2.74475C-53.4717 9.45889 -54.6257 22.6123 -52.3002 35.2529L85.389 9.92106ZM81.9377 47.3414C77.3226 59.3876 69.1792 70.5471 57.7325 78.8164L-24.2507 -34.6682C-35.8494 -26.2891 -44.1113 -14.9735 -48.7963 -2.74475L81.9377 47.3414ZM57.7325 78.8164C46.2068 87.1427 32.0245 91.9899 16.9976 91.9899V-48.0101C1.78798 -48.0101 -12.5731 -43.1043 -24.2507 -34.6682L57.7325 78.8164ZM16.9976 91.9899C-3.28583 91.9899 -21.521 83.2288 -34.0646 69.667L68.7133 -25.3945C55.9964 -39.1437 37.5261 -48.0101 16.9976 -48.0101V91.9899ZM-34.0646 69.667C-46.4381 56.2892 -52.5403 39.2355 -52.5403 22.4895H87.4597C87.4597 5.47849 81.2601 -11.8293 68.7133 -25.3945L-34.0646 69.667ZM-47.9196 20.9058C-47.9196 -2.68301 -36.4876 -18.9101 -29.1348 -26.7971C-21.487 -35.0005 -13.4629 -39.6669 -8.08186 -42.2307C2.94959 -47.4866 13.5376 -49.0092 21.8863 -49.0092V90.9908C30.3506 90.9908 41.0356 89.4456 52.1353 84.1572C57.5503 81.5772 65.6014 76.8921 73.2674 68.6691C80.6386 60.7624 92.0804 44.5147 92.0804 20.9058H-47.9196ZM21.8863 -49.0092H12.1274V90.9908H21.8863V-49.0092ZM12.1274 -49.0092C27.8386 -49.0092 59.8992 -42.1421 75.4681 -8.47653L-51.6015 50.2882C-35.9956 84.0337 -3.81491 90.9908 12.1274 90.9908V-49.0092ZM75.4681 -8.47653C85.0171 12.1717 81.8455 30.8058 79.3134 39.801C76.9295 48.2694 73.4576 54.2497 72.5822 55.764L-48.6232 -14.302C-49.5448 -12.7078 -53.0491 -6.66007 -55.4491 1.86577C-57.9974 10.9184 -61.169 29.6 -51.6015 50.2882L75.4681 -8.47653ZM73.4984 54.1289C73.0835 54.8932 72.7312 55.5029 72.4932 55.907C72.2531 56.3147 72.0671 56.6182 71.9787 56.7615L-47.188 -16.7184C-47.6031 -16.0452 -48.5163 -14.5515 -49.5394 -12.6669L73.4984 54.1289ZM71.2926 57.8517C71.8999 56.9061 81.5899 43.07 83.1699 23.1408L-56.3922 12.0764C-55.6033 2.12543 -52.7692 -5.46855 -50.7877 -9.86877C-48.8431 -14.1873 -46.8826 -17.2158 -46.5019 -17.8085L71.2926 57.8517ZM83.2309 22.3087L83.4296 19.3561L-56.2545 9.95603L-56.4532 12.9086L83.2309 22.3087ZM83.4722 18.6721C83.0545 25.9411 81.0837 38.1374 72.7404 50.7706C62.6778 66.0073 43.0987 80.9992 16.4847 80.9992V-59.0008C-12.1115 -59.0008 -33.0907 -43.0248 -44.0821 -26.3818C-53.3542 -12.3422 -55.7824 1.68253 -56.2972 10.6401L83.4722 18.6721ZM16.4847 80.9992H17.5105V-59.0008H16.4847V80.9992ZM17.5105 80.9992C-9.10999 80.9992 -28.6968 65.9998 -38.7609 50.7474C-47.1024 38.1057 -49.0626 25.9092 -49.4777 18.6652L90.2931 10.6569C89.781 1.71939 87.3633 -12.308 78.0931 -26.3573C67.1002 -43.0173 46.1133 -59.0008 17.5105 -59.0008V80.9992ZM-49.4338 19.3691L-49.2351 22.3166L90.4479 12.9006L90.2492 9.9531L-49.4338 19.3691ZM-49.2564 21.9895C-48.5033 33.9984 -44.9356 43.2109 -42.4532 48.5212C-40.0823 53.5929 -37.5326 57.4567 -37.2789 57.8517L80.5156 -17.8085C80.5263 -17.7918 80.6546 -17.5924 80.8307 -17.3101C81.0118 -17.0198 81.2878 -16.5716 81.6183 -16.0094C82.258 -14.9211 83.2767 -13.1124 84.3729 -10.7674C86.4788 -6.26267 89.7716 2.10302 90.4692 13.2278L-49.2564 21.9895ZM-37.965 56.7615C-38.2366 56.3211 -38.4519 55.9594 -38.5948 55.7167C-38.736 55.4768 -38.8379 55.2996 -38.8695 55.2446C-38.8867 55.2147 -38.896 55.1983 -38.8875 55.2131C-38.8832 55.2207 -38.8786 55.2288 -38.868 55.2474C-38.859 55.2631 -38.8448 55.2879 -38.8296 55.3146C-38.774 55.4118 -38.6437 55.6398 -38.4859 55.9117L82.6005 -14.3599C82.6844 -14.2153 82.7414 -14.1153 82.7238 -14.146C82.6829 -14.2175 82.7383 -14.1207 82.6724 -14.2361C82.6444 -14.285 82.5987 -14.365 82.5451 -14.4583C82.3639 -14.774 81.8588 -15.6527 81.2017 -16.7184L-37.965 56.7615ZM-31.0613 66.3656C-39.471 56.567 -44.7189 44.9771 -46.8322 33.0958L91.0044 8.57885C88.8829 -3.3484 83.6151 -14.9808 75.1759 -24.8137L-31.0613 66.3656ZM-46.8322 33.0958C-48.944 21.2231 -47.9612 8.91242 -43.8513 -2.6104L88.0121 44.4221C92.1376 32.8556 93.1243 20.4975 91.0044 8.57885L-46.8322 33.0958Z" fill="black" mask="url(#path-2-inside-1_302_83)"/>
</svg>
