<svg width="28" height="28" viewBox="0 0 28 28" fill="none" xmlns="http://www.w3.org/2000/svg">
<path d="M4.66699 13.9997C4.66699 8.85468 8.85532 4.66634 14.0003 4.66634C19.1453 4.66634 23.3337 8.85468 23.3337 13.9997C23.3337 19.1447 19.1453 23.333 14.0003 23.333C8.85532 23.333 4.66699 19.1447 4.66699 13.9997ZM2.33366 13.9997C2.33366 20.4397 7.56032 25.6663 14.0003 25.6663C20.4403 25.6663 25.667 20.4397 25.667 13.9997C25.667 7.55967 20.4403 2.33301 14.0003 2.33301C7.56032 2.33301 2.33366 7.55967 2.33366 13.9997ZM14.0003 12.833L9.33366 12.833V15.1663L14.0003 15.1663L14.0003 18.6663L18.667 13.9997L14.0003 9.33301V12.833Z" fill="#999999"/>
</svg>
