<svg width="34" height="32" viewBox="0 0 34 32" xmlns="http://www.w3.org/2000/svg">
<path d="M3.2381 7.11111V28.4444H27.5238V32H3.2381C0 32 0 28.4444 0 28.4444V7.11111H3.2381ZM30.7619 3.55556V21.3333H9.71429V3.55556H30.7619ZM31.2476 0H9.22857C7.70667 0 6.47619 1.24444 6.47619 2.75556V22.1333C6.47619 23.6622 7.70667 24.8889 9.22857 24.8889H31.2476C32.7695 24.8889 34 23.6622 34 22.1333V2.75556C34 1.24444 32.7695 0 31.2476 0ZM11.3333 5.33333H16.1905V14.2222H11.3333V5.33333ZM29.1429 19.5556H11.3333V16H29.1429V19.5556ZM29.1429 8.88889H19.4286V5.33333H29.1429V8.88889ZM29.1429 14.2222H19.4286V10.6667H29.1429V14.2222Z" />
</svg>
