<svg width="47" height="50" viewBox="0 0 47 50" fill="none" xmlns="http://www.w3.org/2000/svg">
<g filter="url(#filter0_dd_235_155)">
<path fill-rule="evenodd" clip-rule="evenodd" d="M31.537 3.75H37.6619C40.196 3.75 42.2517 5.82356 42.2517 8.38159V14.5577C42.2517 17.1138 40.196 19.1893 37.6619 19.1893H31.537C29.001 19.1893 26.9453 17.1138 26.9453 14.5577V8.38159C26.9453 5.82356 29.001 3.75 31.537 3.75Z" stroke="#006241" stroke-width="1.5" stroke-linecap="round" stroke-linejoin="round"/>
<path fill-rule="evenodd" clip-rule="evenodd" d="M9.34173 3.75H15.4647C18.0007 3.75 20.0564 5.82356 20.0564 8.38159V14.5577C20.0564 17.1138 18.0007 19.1893 15.4647 19.1893H9.34173C6.80571 19.1893 4.75 17.1138 4.75 14.5577V8.38159C4.75 5.82356 6.80571 3.75 9.34173 3.75Z" stroke="#006241" stroke-width="1.5" stroke-linecap="round" stroke-linejoin="round"/>
<path fill-rule="evenodd" clip-rule="evenodd" d="M9.34173 25.8125H15.4647C18.0007 25.8125 20.0564 27.8861 20.0564 30.446V36.6202C20.0564 39.1782 18.0007 41.2518 15.4647 41.2518H9.34173C6.80571 41.2518 4.75 39.1782 4.75 36.6202V30.446C4.75 27.8861 6.80571 25.8125 9.34173 25.8125Z" stroke="#006241" stroke-width="1.5" stroke-linecap="round" stroke-linejoin="round"/>
<path fill-rule="evenodd" clip-rule="evenodd" d="M31.537 25.8125H37.6619C40.196 25.8125 42.2517 27.8861 42.2517 30.446V36.6202C42.2517 39.1782 40.196 41.2518 37.6619 41.2518H31.537C29.001 41.2518 26.9453 39.1782 26.9453 36.6202V30.446C26.9453 27.8861 29.001 25.8125 31.537 25.8125Z" stroke="#006241" stroke-width="1.5" stroke-linecap="round" stroke-linejoin="round"/>
</g>
<defs>
<filter id="filter0_dd_235_155" x="0" y="3" width="47" height="47" filterUnits="userSpaceOnUse" color-interpolation-filters="sRGB">
<feFlood flood-opacity="0" result="BackgroundImageFix"/>
<feColorMatrix in="SourceAlpha" type="matrix" values="0 0 0 0 0 0 0 0 0 0 0 0 0 0 0 0 0 0 127 0" result="hardAlpha"/>
<feOffset dy="4"/>
<feGaussianBlur stdDeviation="2"/>
<feComposite in2="hardAlpha" operator="out"/>
<feColorMatrix type="matrix" values="0 0 0 0 0 0 0 0 0 0 0 0 0 0 0 0 0 0 0.25 0"/>
<feBlend mode="normal" in2="BackgroundImageFix" result="effect1_dropShadow_235_155"/>
<feColorMatrix in="SourceAlpha" type="matrix" values="0 0 0 0 0 0 0 0 0 0 0 0 0 0 0 0 0 0 127 0" result="hardAlpha"/>
<feOffset dy="4"/>
<feGaussianBlur stdDeviation="2"/>
<feComposite in2="hardAlpha" operator="out"/>
<feColorMatrix type="matrix" values="0 0 0 0 0 0 0 0 0 0 0 0 0 0 0 0 0 0 0.25 0"/>
<feBlend mode="normal" in2="effect1_dropShadow_235_155" result="effect2_dropShadow_235_155"/>
<feBlend mode="normal" in="SourceGraphic" in2="effect2_dropShadow_235_155" result="shape"/>
</filter>
</defs>
</svg>
