<svg width="48" height="48" viewBox="0 0 48 48" fill="none" xmlns="http://www.w3.org/2000/svg">
<g clip-path="url(#clip0_68_103)">
<mask id="mask0_68_103" style="mask-type:luminance" maskUnits="userSpaceOnUse" x="0" y="0" width="48" height="48">
<path d="M48 0H0V48H48V0Z" fill="white"/>
</mask>
<g mask="url(#mask0_68_103)">
<path d="M47.8741 35.514L43.0061 26.752C43.1701 23.595 46.4161 21.91 46.4471 21.894C46.576 21.8296 46.6895 21.7381 46.7798 21.6257C46.8701 21.5133 46.935 21.3828 46.9701 21.243L47.9701 17.243C48.0253 17.0223 48.0035 16.7893 47.9084 16.5826C47.8134 16.3759 47.6506 16.2077 47.4471 16.106L41.4471 13.106C41.3084 13.0362 41.1553 12.9999 41.0001 13H38.0001V10H41.1841C41.42 10.6672 41.8842 11.2296 42.4946 11.5876C43.105 11.9457 43.8223 12.0765 44.5198 11.9568C45.2173 11.8371 45.85 11.4747 46.3062 10.9337C46.7623 10.3926 47.0125 9.70769 47.0125 9C47.0125 8.29231 46.7623 7.60741 46.3062 7.06634C45.85 6.52527 45.2173 6.16288 44.5198 6.0432C43.8223 5.92353 43.105 6.05429 42.4946 6.41237C41.8842 6.77045 41.42 7.33279 41.1841 8H38.0001C38.0001 7.20435 37.684 6.44129 37.1214 5.87868C36.5588 5.31607 35.7957 5 35.0001 5C34.2044 5 33.4414 5.31607 32.8788 5.87868C32.3162 6.44129 32.0001 7.20435 32.0001 8H20.0001C20.0001 7.20435 19.684 6.44129 19.1214 5.87868C18.5588 5.31607 17.7957 5 17.0001 5C16.2044 5 15.4414 5.31607 14.8788 5.87868C14.3162 6.44129 14.0001 7.20435 14.0001 8H6.81608C6.58019 7.33279 6.11602 6.77045 5.5056 6.41237C4.89519 6.05429 4.17785 5.92353 3.48035 6.0432C2.78286 6.16288 2.15012 6.52527 1.69398 7.06634C1.23784 7.60741 0.987658 8.29231 0.987658 9C0.987658 9.70769 1.23784 10.3926 1.69398 10.9337C2.15012 11.4747 2.78286 11.8371 3.48035 11.9568C4.17785 12.0765 4.89519 11.9457 5.5056 11.5876C6.11602 11.2296 6.58019 10.6672 6.81608 10H18.0001V13H15.0001C14.933 13 14.866 13.0064 14.8001 13.019L9.80009 14.019C9.65452 14.0481 9.51726 14.1092 9.39826 14.1979C9.27925 14.2867 9.1815 14.4008 9.11209 14.532L0.112085 31.532C0.0497909 31.6498 0.0116696 31.7789 -3.87877e-05 31.9116C-0.0117472 32.0444 0.00319352 32.1781 0.0439054 32.305C0.0846172 32.4319 0.150279 32.5493 0.237033 32.6505C0.323786 32.7516 0.429882 32.8344 0.549085 32.894L4.54908 34.894C4.78069 35.0099 5.04822 35.0313 5.29535 34.9539C5.54248 34.8765 5.74995 34.7063 5.87408 34.479L10.0001 26.922V42C10.0001 42.2652 10.1054 42.5196 10.293 42.7071C10.4805 42.8946 10.7349 43 11.0001 43H27.0001C27.2653 43 27.5197 42.8946 27.7072 42.7071C27.8947 42.5196 28.0001 42.2652 28.0001 42V26.922L32.1221 34.479C32.2462 34.7063 32.4537 34.8765 32.7008 34.9539C32.948 35.0313 33.2155 35.0099 33.4471 34.894L37.4471 32.894C37.5663 32.8344 37.6724 32.7516 37.7591 32.6505C37.8459 32.5493 37.9116 32.4319 37.9523 32.305C37.993 32.1781 38.0079 32.0444 37.9962 31.9116C37.9845 31.7789 37.9464 31.6498 37.8841 31.532L28.8841 14.532C28.8147 14.4008 28.7169 14.2867 28.5979 14.1979C28.4789 14.1092 28.3416 14.0481 28.1961 14.019L23.1961 13.019C23.1315 13.0066 23.0659 13.0003 23.0001 13H20.0001V10H36.0001V13H33.0001C32.8448 12.9999 32.6918 13.0362 32.5531 13.106L31.5531 13.606C31.3161 13.7246 31.1359 13.9325 31.052 14.184C30.9682 14.4354 30.9877 14.7099 31.1061 14.947C31.2094 15.1475 31.3784 15.3064 31.5847 15.3974C31.7911 15.4884 32.0224 15.5059 32.2401 15.447C32.5442 16.4689 33.1691 17.3658 34.0225 18.005C34.8758 18.6442 35.9122 18.9919 36.9784 18.9965C38.0445 19.0011 39.0839 18.6624 39.9427 18.0306C40.8015 17.3987 41.4342 16.5072 41.7471 15.488L45.8351 17.532L45.1351 20.338C44.0943 20.9378 43.194 21.7534 42.4946 22.73C41.7952 23.7066 41.3129 24.8216 41.0801 26H38.5001C38.2349 26 37.9805 26.1054 37.793 26.2929C37.6054 26.4804 37.5001 26.7348 37.5001 27C37.5001 27.2652 37.6054 27.5196 37.793 27.7071C37.9805 27.8946 38.2349 28 38.5001 28H41.4121L45.8501 35.989C45.3028 36.8466 44.6448 37.6284 43.8931 38.314C42.0258 40.0616 39.5575 41.0234 37.0001 41C35.0772 41.0249 33.1751 40.6006 31.4451 39.761C31.2076 39.6428 30.9329 39.6239 30.6814 39.7083C30.4299 39.7927 30.2222 39.9735 30.1041 40.211C29.9859 40.4485 29.967 40.7232 30.0514 40.9747C30.1357 41.2262 30.3166 41.4338 30.5541 41.552C32.5607 42.5299 34.768 43.0257 37.0001 43C40.0824 43.0128 43.0526 41.8444 45.3001 39.735C46.34 38.7901 47.2156 37.679 47.8911 36.447C47.9643 36.3018 48.001 36.141 47.9981 35.9784C47.9951 35.8158 47.9526 35.6564 47.8741 35.514ZM44.0001 8C44.1979 8 44.3912 8.05865 44.5557 8.16853C44.7201 8.27841 44.8483 8.43459 44.924 8.61732C44.9996 8.80004 45.0195 9.00111 44.9809 9.19509C44.9423 9.38907 44.847 9.56725 44.7072 9.70711C44.5673 9.84696 44.3892 9.9422 44.1952 9.98079C44.0012 10.0194 43.8001 9.99957 43.6174 9.92388C43.4347 9.84819 43.2785 9.72002 43.1686 9.55557C43.0587 9.39112 43.0001 9.19778 43.0001 9C43.0001 8.73478 43.1054 8.48043 43.293 8.29289C43.4805 8.10536 43.7349 8 44.0001 8ZM4.00008 10C3.8023 10 3.60896 9.94135 3.44451 9.83147C3.28007 9.72159 3.15189 9.56541 3.07621 9.38268C3.00052 9.19996 2.98071 8.99889 3.0193 8.80491C3.05788 8.61093 3.15313 8.43275 3.29298 8.29289C3.43283 8.15304 3.61101 8.0578 3.80499 8.01921C3.99898 7.98063 4.20004 8.00043 4.38277 8.07612C4.56549 8.15181 4.72167 8.27998 4.83155 8.44443C4.94144 8.60888 5.00008 8.80222 5.00008 9C5.00008 9.26522 4.89473 9.51957 4.70719 9.70711C4.51966 9.89464 4.2653 10 4.00008 10ZM22.2931 19.707L23.5861 21L20.6621 23.923L22.4791 15.2C22.4851 15.1398 22.4851 15.0792 22.4791 15.019L23.7121 16.869L22.2921 18.289C22.1987 18.382 22.1247 18.4925 22.0742 18.6142C22.0237 18.7359 21.9977 18.8664 21.9978 18.9982C21.9979 19.13 22.024 19.2604 22.0747 19.3821C22.1254 19.5037 22.1996 19.6141 22.2931 19.707ZM15.7071 18.293L14.2871 16.873L15.5201 15.023C15.5141 15.0832 15.5141 15.1438 15.5201 15.204L17.3371 23.923L14.4141 21L15.7071 19.707C15.8946 19.5195 15.9999 19.2652 15.9999 19C15.9999 18.7348 15.8946 18.4805 15.7071 18.293ZM17.5211 15H20.4791L19.0001 22.1L17.5211 15ZM12.0001 41V23C12.0002 22.7777 11.9262 22.5618 11.7899 22.3863C11.6535 22.2107 11.4626 22.0856 11.2472 22.0307C11.0319 21.9758 10.8043 21.9941 10.6006 22.0829C10.3968 22.1717 10.2285 22.3259 10.1221 22.521L4.58408 32.674L2.36309 31.563L10.6631 15.887L12.8301 15.454L12.1691 16.445C12.0408 16.6374 11.9832 16.8683 12.0059 17.0983C12.0287 17.3284 12.1306 17.5435 12.2941 17.707L13.5861 19L12.2931 20.293C12.1056 20.4805 12.0003 20.7348 12.0003 21C12.0003 21.2652 12.1056 21.5195 12.2931 21.707L18.0001 27.414V41H12.0001ZM35.6371 31.563L33.4161 32.674L27.8781 22.521C27.7717 22.3259 27.6033 22.1717 27.3996 22.0829C27.1958 21.9941 26.9683 21.9758 26.7529 22.0307C26.5376 22.0856 26.3466 22.2107 26.2103 22.3863C26.074 22.5618 26 22.7777 26.0001 23V41H20.0001V27.414L25.7071 21.707C25.8946 21.5195 25.9999 21.2652 25.9999 21C25.9999 20.7348 25.8946 20.4805 25.7071 20.293L24.4141 19L25.7071 17.707C25.8706 17.5435 25.9724 17.3284 25.9952 17.0983C26.018 16.8683 25.9604 16.6374 25.8321 16.445L25.1711 15.454L27.3381 15.887L35.6371 31.563ZM16.0001 8C16.0001 7.73478 16.1054 7.48043 16.293 7.29289C16.4805 7.10536 16.7349 7 17.0001 7C17.2653 7 17.5197 7.10536 17.7072 7.29289C17.8947 7.48043 18.0001 7.73478 18.0001 8H16.0001ZM34.0001 8C34.0001 7.73478 34.1054 7.48043 34.293 7.29289C34.4805 7.10536 34.7349 7 35.0001 7C35.2653 7 35.5197 7.10536 35.7072 7.29289C35.8947 7.48043 36.0001 7.73478 36.0001 8H34.0001ZM37.0001 17C36.3818 16.9974 35.7795 16.8039 35.2754 16.4459C34.7713 16.0879 34.3902 15.5829 34.1841 15H39.8161C39.61 15.5829 39.2289 16.0879 38.7248 16.4459C38.2207 16.8039 37.6183 16.9974 37.0001 17Z" fill="black"/>
</g>
</g>
<defs>
<clipPath id="clip0_68_103">
<rect width="48" height="48" rx="8" fill="white"/>
</clipPath>
</defs>
</svg>
