<svg width="47" height="40" viewBox="0 0 47 40" fill="none" xmlns="http://www.w3.org/2000/svg">
<g clip-path="url(#clip0_68_82)">
<path d="M45.42 18.0312H1V28.3012H45.42V18.0312Z" fill="white" stroke="#2B652A" stroke-width="2" stroke-linecap="round" stroke-linejoin="round"/>
<path d="M45.42 28.3008H1V38.7008H45.42V28.3008Z" fill="white" stroke="#2B652A" stroke-width="2" stroke-linecap="round" stroke-linejoin="round"/>
<path d="M1.42188 23.0703H4.42188" stroke="#2B652A" stroke-width="2" stroke-linecap="round" stroke-linejoin="round"/>
<path d="M1.42188 33.0703H4.42188" stroke="#2B652A" stroke-width="2" stroke-linecap="round" stroke-linejoin="round"/>
<path d="M45.4219 23.0703H42.4219" stroke="#2B652A" stroke-width="2" stroke-linecap="round" stroke-linejoin="round"/>
<path d="M45.4219 33.0703H42.4219" stroke="#2B652A" stroke-width="2" stroke-linecap="round" stroke-linejoin="round"/>
<path d="M6.09905 14.4504C5.73905 8.49044 6.99905 1.55044 9.88905 1.00044C12.779 0.45044 16.289 6.37044 17.999 12.0804" fill="#F0FF42"/>
<path d="M6.09905 14.4504C5.73905 8.49044 6.99905 1.55044 9.88905 1.00044C12.779 0.45044 16.289 6.37044 17.999 12.0804" stroke="#E2E626" stroke-width="2" stroke-linecap="round" stroke-linejoin="round"/>
<path d="M3.99813 18C3.81813 16.86 3.67813 15.62 3.57812 14.25C3.57812 14.25 8.45813 14.33 11.1281 17.89" fill="#2B652A"/>
<path d="M3.99813 18C3.81813 16.86 3.67813 15.62 3.57812 14.25C3.57812 14.25 8.45813 14.33 11.1281 17.89" stroke="#2B652A" stroke-width="2" stroke-linecap="round" stroke-linejoin="round"/>
<path d="M11.1211 17.9294C11.1211 17.9294 15.5711 13.0594 19.6511 11.1094C20.3238 12.9644 20.8161 14.8799 21.1211 16.8294" fill="#2B652A"/>
<path d="M11.1211 17.9294C11.1211 17.9294 15.5711 13.0594 19.6511 11.1094C20.3238 12.9644 20.8161 14.8799 21.1211 16.8294" stroke="#2B652A" stroke-width="2" stroke-linecap="round" stroke-linejoin="round"/>
<path d="M40.0697 18.0005C40.561 17.6015 41.0161 17.1598 41.4297 16.6805C45.1797 12.3305 41.2697 9.77055 41.2697 9.77055C41.2697 9.77055 38.7097 5.86055 34.3497 9.61055C32.4097 11.2705 30.3497 14.7005 28.6797 17.9905" fill="#FBBC05"/>
<path d="M40.0697 18.0005C40.561 17.6015 41.0161 17.1598 41.4297 16.6805C45.1797 12.3305 41.2697 9.77055 41.2697 9.77055C41.2697 9.77055 38.7097 5.86055 34.3497 9.61055C32.4097 11.2705 30.3497 14.7005 28.6797 17.9905" stroke="#D48D24" stroke-width="2" stroke-linecap="round" stroke-linejoin="round"/>
<path d="M32.3086 13.1523L33.7186 14.5623" stroke="#2B652A" stroke-width="2" stroke-linecap="round" stroke-linejoin="round"/>
<path d="M44.9412 10.002L42.1612 9.87203C42.0475 9.86602 41.9363 9.83669 41.8344 9.78586C41.7325 9.73503 41.6422 9.66378 41.5691 9.57656C41.4959 9.48933 41.4415 9.38799 41.4091 9.27883C41.3768 9.16967 41.3673 9.05503 41.3812 8.94203L41.8512 5.08203" fill="#2B652A"/>
<path d="M44.9412 10.002L42.1612 9.87203C42.0475 9.86602 41.9363 9.83669 41.8344 9.78586C41.7325 9.73503 41.6422 9.66378 41.5691 9.57656C41.4959 9.48933 41.4415 9.38799 41.4091 9.27883C41.3768 9.16967 41.3673 9.05503 41.3812 8.94203L41.8512 5.08203" stroke="#2B652A" stroke-width="2" stroke-linecap="round" stroke-linejoin="round"/>
</g>
<defs>
<clipPath id="clip0_68_82">
<rect width="46.42" height="39.7" rx="8" fill="white"/>
</clipPath>
</defs>
</svg>
