<svg width="47" height="40" viewBox="0 0 47 40" fill="none" xmlns="http://www.w3.org/2000/svg">
<g clip-path="url(#clip0_68_82)">
<path d="M45.42 18.0303H1V28.3003H45.42V18.0303Z" stroke="#333333" stroke-width="2" stroke-linecap="round" stroke-linejoin="round"/>
<path d="M45.42 28.3008H1V38.7008H45.42V28.3008Z" stroke="#333333" stroke-width="2" stroke-linecap="round" stroke-linejoin="round"/>
<path d="M1.41992 23.0703H4.41992" stroke="#333333" stroke-width="2" stroke-linecap="round" stroke-linejoin="round"/>
<path d="M1.41992 33.0703H4.41992" stroke="#333333" stroke-width="2" stroke-linecap="round" stroke-linejoin="round"/>
<path d="M45.4199 23.0703H42.4199" stroke="#333333" stroke-width="2" stroke-linecap="round" stroke-linejoin="round"/>
<path d="M45.4199 33.0703H42.4199" stroke="#333333" stroke-width="2" stroke-linecap="round" stroke-linejoin="round"/>
<path d="M6.10003 14.4504C5.74003 8.49044 7.00003 1.55044 9.89003 1.00044C12.78 0.45044 16.29 6.37044 18 12.0804" stroke="#333333" stroke-width="2" stroke-linecap="round" stroke-linejoin="round"/>
<path d="M4.00008 18C3.82008 16.86 3.68008 15.62 3.58008 14.25C3.58008 14.25 8.46008 14.33 11.1301 17.89" stroke="#333333" stroke-width="2" stroke-linecap="round" stroke-linejoin="round"/>
<path d="M11.1201 17.9304C11.1201 17.9304 15.5701 13.0604 19.6501 11.1104C20.3228 12.9653 20.8151 14.8809 21.1201 16.8304" stroke="#333333" stroke-width="2" stroke-linecap="round" stroke-linejoin="round"/>
<path d="M40.0697 18.0005C40.561 17.6015 41.0161 17.1598 41.4297 16.6805C45.1797 12.3305 41.2697 9.77055 41.2697 9.77055C41.2697 9.77055 38.7097 5.86055 34.3497 9.61055C32.4097 11.2705 30.3497 14.7005 28.6797 17.9905" stroke="#333333" stroke-width="2" stroke-linecap="round" stroke-linejoin="round"/>
<path d="M32.3096 13.1504L33.7196 14.5604" stroke="#333333" stroke-width="2" stroke-linecap="round" stroke-linejoin="round"/>
<path d="M44.9402 10.0001L42.1602 9.87008C42.0465 9.86407 41.9353 9.83474 41.8334 9.78391C41.7316 9.73307 41.6412 9.66183 41.5681 9.5746C41.4949 9.48738 41.4405 9.38603 41.4082 9.27687C41.3759 9.16772 41.3663 9.05307 41.3802 8.94008L41.8502 5.08008" stroke="#333333" stroke-width="2" stroke-linecap="round" stroke-linejoin="round"/>
<path d="M35.9404 8.55055C35.5074 7.88185 34.9154 7.33089 34.2174 6.94697C33.5193 6.56305 32.737 6.35813 31.9404 6.35055C31.5105 6.35766 31.0835 6.42155 30.6704 6.54055C30.6748 6.47729 30.6748 6.41381 30.6704 6.35055C30.7 5.70111 30.5977 5.0524 30.3696 4.44361C30.1415 3.83482 29.7923 3.27859 29.3432 2.80853C28.8941 2.33847 28.3544 1.96432 27.7566 1.7087C27.1589 1.45308 26.5155 1.32129 25.8654 1.32129C25.2153 1.32129 24.5719 1.45308 23.9741 1.7087C23.3764 1.96432 22.8367 2.33847 22.3876 2.80853C21.9384 3.27859 21.5893 3.83482 21.3612 4.44361C21.1331 5.0524 21.0308 5.70111 21.0604 6.35055C21.0604 6.41055 21.0604 6.47055 21.0604 6.54055C20.3008 6.32014 19.4976 6.29627 18.7263 6.47118C17.9549 6.6461 17.2406 7.01405 16.6504 7.54055" stroke="#333333" stroke-width="2" stroke-linecap="round" stroke-linejoin="round"/>
<path d="M25.4199 18.0703V10.0703" stroke="#333333" stroke-width="2" stroke-linecap="round" stroke-linejoin="round"/>
<path d="M22.0898 12.0703L25.4198 15.0703L28.7798 12.0703" stroke="#333333" stroke-width="2" stroke-linecap="round" stroke-linejoin="round"/>
</g>
<defs>
<clipPath id="clip0_68_82">
<rect width="46.42" height="39.7" rx="8" fill="white"/>
</clipPath>
</defs>
</svg>
