<svg width="46" height="46" viewBox="0 0 46 46" fill="none" xmlns="http://www.w3.org/2000/svg">
<g clip-path="url(#clip0_68_109)">
<path d="M37.7197 5.51984H8.27975C8.03575 5.51984 7.80175 5.61677 7.62922 5.78931C7.45668 5.96184 7.35975 6.19584 7.35975 6.43984V22.9998C7.35975 23.2438 7.45668 23.4778 7.62922 23.6504C7.80175 23.8229 8.03575 23.9198 8.27975 23.9198H37.7197C37.9637 23.9198 38.1978 23.8229 38.3703 23.6504C38.5428 23.4778 38.6398 23.2438 38.6398 22.9998V6.43984C38.6398 6.19584 38.5428 5.96184 38.3703 5.78931C38.1978 5.61677 37.9637 5.51984 37.7197 5.51984ZM36.7998 22.0798H9.19975V7.35984H36.7998V22.0798ZM45.9998 39.3022L42.3198 26.4222V5.51984C42.3198 4.54385 41.932 3.60782 41.2419 2.91769C40.5518 2.22756 39.6157 1.83984 38.6398 1.83984H7.35975C6.38376 1.83984 5.44773 2.22756 4.7576 2.91769C4.06747 3.60782 3.67975 4.54385 3.67975 5.51984V26.4406L-0.000245982 39.3206C-0.0116368 39.4061 -0.0116368 39.4928 -0.000245983 39.5782L-0.000245982 41.8966C0.00941282 42.5002 0.255991 43.0758 0.686282 43.4993C1.11657 43.9227 1.69608 44.1599 2.29975 44.1598H43.6998C44.0018 44.1598 44.3009 44.1004 44.5799 43.9848C44.859 43.8692 45.1125 43.6998 45.3261 43.4862C45.5397 43.2726 45.7091 43.0191 45.8247 42.74C45.9403 42.461 45.9998 42.1619 45.9998 41.8598V39.5598C46.0111 39.4744 46.0111 39.3877 45.9998 39.3022ZM5.26215 27.5998H40.7374L43.8654 38.6398H2.13415L5.26215 27.5998ZM5.51975 5.51984C5.51975 5.03185 5.71361 4.56383 6.05868 4.21877C6.40374 3.8737 6.87176 3.67984 7.35975 3.67984H38.6398C39.1278 3.67984 39.5958 3.8737 39.9408 4.21877C40.2859 4.56383 40.4798 5.03185 40.4798 5.51984V25.7598H5.51975V5.51984ZM43.6998 42.3198H2.29975C2.17921 42.3153 2.06483 42.2654 1.97953 42.1801C1.89423 42.0948 1.84431 41.9804 1.83975 41.8598V40.4798H44.1598V41.8598C44.1552 41.9804 44.1053 42.0948 44.02 42.1801C43.9347 42.2654 43.8203 42.3153 43.6998 42.3198ZM15.9158 36.4502C15.9934 36.5495 16.0907 36.6318 16.2014 36.6919C16.3122 36.7521 16.4342 36.7888 16.5598 36.7998H29.4398C29.5781 36.8005 29.7148 36.7699 29.8397 36.7103C29.9646 36.6508 30.0745 36.5639 30.1611 36.456C30.2478 36.3481 30.309 36.2221 30.3402 36.0873C30.3714 35.9525 30.3718 35.8124 30.3414 35.6774L29.5317 31.9974C29.4857 31.793 29.3712 31.6105 29.2072 31.48C29.0433 31.3495 28.8397 31.2789 28.6302 31.2798H17.5902C17.3806 31.2789 17.177 31.3495 17.0131 31.48C16.8491 31.6105 16.7346 31.793 16.6886 31.9974L15.8422 35.6774C15.7974 35.8038 15.7807 35.9385 15.7935 36.072C15.8062 36.2055 15.8479 36.3346 15.9158 36.4502ZM18.2158 33.1198H27.8574L28.2622 34.9598H17.7926L18.2158 33.1198Z" fill="#0E1D25"/>
</g>
<defs>
<clipPath id="clip0_68_109">
<rect width="46" height="46" rx="8" fill="white"/>
</clipPath>
</defs>
</svg>
