<svg width="48" height="48" viewBox="0 0 48 48" fill="none" xmlns="http://www.w3.org/2000/svg">
<path d="M42.9997 17.025V14C42.9997 10.224 40.0067 6 35.9997 6H11.9997C7.99269 6 4.99969 10.224 4.99969 14V17.025C3.91516 17.1248 2.88468 17.5444 2.03888 18.2306C1.19308 18.9167 0.570033 19.8386 0.248715 20.8792C-0.0726037 21.9198 -0.077727 23.0325 0.233994 24.076C0.545715 25.1196 1.16025 26.0471 1.99969 26.741V33C2.00097 33.9718 2.2854 34.9221 2.81819 35.7348C3.35099 36.5475 4.10905 37.1873 4.99969 37.576V40C4.99969 40.5304 5.21041 41.0391 5.58548 41.4142C5.96055 41.7893 6.46926 42 6.99969 42H8.99969C9.53012 42 10.0388 41.7893 10.4139 41.4142C10.789 41.0391 10.9997 40.5304 10.9997 40V38H36.9997V40C36.9997 40.5304 37.2104 41.0391 37.5855 41.4142C37.9605 41.7893 38.4693 42 38.9997 42H40.9997C41.5301 42 42.0388 41.7893 42.4139 41.4142C42.789 41.0391 42.9997 40.5304 42.9997 40V37.576C43.8903 37.1873 44.6484 36.5475 45.1812 35.7348C45.714 34.9221 45.9984 33.9718 45.9997 33V26.741C46.8391 26.0471 47.4537 25.1196 47.7654 24.076C48.0771 23.0325 48.072 21.9198 47.7507 20.8792C47.4293 19.8386 46.8063 18.9167 45.9605 18.2306C45.1147 17.5444 44.0842 17.1248 42.9997 17.025ZM11.9997 8H35.9997C38.7697 8 40.9997 11.282 40.9997 14V17.213C39.8492 17.5402 38.8365 18.2331 38.1148 19.187C37.3931 20.1409 37.0017 21.3039 36.9997 22.5V25.864C32.3532 25.3101 27.679 25.0216 22.9997 25C18.985 24.975 14.974 25.2477 10.9997 25.816V22.5C10.9977 21.3039 10.6063 20.1409 9.88461 19.187C9.16292 18.2331 8.15022 17.5402 6.99969 17.213V14C6.99969 11.282 9.22969 8 11.9997 8ZM8.99969 40H6.99969V38H8.99969V40ZM40.9997 40H38.9997V38H40.9997V40ZM44.4427 25.41C44.3064 25.5014 44.1947 25.6249 44.1175 25.7696C44.0402 25.9144 43.9998 26.0759 43.9997 26.24V33C43.9997 33.7956 43.6836 34.5587 43.121 35.1213C42.5584 35.6839 41.7953 36 40.9997 36H6.99969C6.20404 36 5.44098 35.6839 4.87837 35.1213C4.31576 34.5587 3.99969 33.7956 3.99969 33V26.24C3.99961 26.0759 3.95915 25.9144 3.8819 25.7696C3.80464 25.6249 3.69296 25.5014 3.55669 25.41C3.05365 25.0743 2.64619 24.6139 2.37405 24.0738C2.10191 23.5337 1.97436 22.9323 2.00386 22.3282C2.03335 21.7241 2.21887 21.138 2.54233 20.627C2.8658 20.1159 3.31616 19.6974 3.84951 19.4123C4.38287 19.1271 4.98101 18.9851 5.58563 18.9999C6.19024 19.0148 6.78069 19.186 7.2994 19.497C7.81811 19.808 8.24739 20.2481 8.54538 20.7744C8.84336 21.3007 8.99989 21.8952 8.99969 22.5V27C8.99974 27.1479 9.03259 27.2939 9.09588 27.4276C9.15917 27.5613 9.25132 27.6792 9.36569 27.773C9.47964 27.8672 9.61325 27.9347 9.75671 27.9705C9.90017 28.0064 10.0498 28.0096 10.1947 27.98C14.4261 27.2789 18.7109 26.951 22.9997 27C27.9681 27.0202 32.9305 27.3509 37.8577 27.99C37.9996 28.0104 38.1442 28 38.2817 27.9595C38.4192 27.9191 38.5464 27.8496 38.6547 27.7557C38.763 27.6618 38.8499 27.5458 38.9094 27.4154C38.9689 27.285 38.9997 27.1433 38.9997 27V22.5C38.9995 21.8952 39.156 21.3007 39.454 20.7744C39.752 20.2481 40.1813 19.808 40.7 19.497C41.2187 19.186 41.8091 19.0148 42.4138 18.9999C43.0184 18.9851 43.6165 19.1271 44.1499 19.4123C44.6832 19.6974 45.1336 20.1159 45.4571 20.627C45.7805 21.138 45.966 21.7241 45.9955 22.3282C46.025 22.9323 45.8975 23.5337 45.6253 24.0738C45.3532 24.6139 44.9457 25.0743 44.4427 25.41Z" fill="black"/>
</svg>
