<svg width="29" height="42" viewBox="0 0 29 42" fill="none" xmlns="http://www.w3.org/2000/svg">
<path d="M12.5 22H2C1.44772 22 1 22.4477 1 23V37C1 38.6569 2.34315 40 4 40H10.5C12.1569 40 13.5 38.6569 13.5 37V23C13.5 22.4477 13.0523 22 12.5 22Z" fill="#C9C8C0" stroke="black" stroke-width="2"/>
<path d="M27 40.5H19C18.4477 40.5 18 40.0523 18 39.5V27C18 26.4477 18.4477 26 19 26H20L20.5 12L20.9088 8.93367C21.2856 6.10809 22.8291 3.56966 25.1643 1.93496C25.727 1.54113 26.5 1.94362 26.5 2.63037V12V26H27C27.5523 26 28 26.4477 28 27V33.25V39.5C28 40.0523 27.5523 40.5 27 40.5Z" fill="#AB255D"/>
<path d="M27 40.5H19C18.4477 40.5 18 40.0523 18 39.5V27C18 26.4477 18.4477 26 19 26H20L20.5 12L20.9088 8.93367C21.2856 6.10809 22.8291 3.56966 25.1643 1.93496C25.727 1.54113 26.5 1.94362 26.5 2.63037V12V26H27C27.5523 26 28 26.4477 28 27V33.25V39.5C28 40.0523 27.5523 40.5 27 40.5Z" fill="#F95A5A" fill-opacity="0.2"/>
<path d="M20.5 12H26.5M20.5 12L20 26M20.5 12L20.9088 8.93367C21.2856 6.10809 22.8291 3.56966 25.1643 1.93496V1.93496C25.727 1.54113 26.5 1.94362 26.5 2.63037V12M26.5 12V26M26.5 26H27C27.5523 26 28 26.4477 28 27V33.25V39.5C28 40.0523 27.5523 40.5 27 40.5H19C18.4477 40.5 18 40.0523 18 39.5V27C18 26.4477 18.4477 26 19 26H20M26.5 26H20" stroke="black" stroke-width="2"/>
</svg>
